  0
SECTION
  2
HEADER
  9
$ACADVER
  1
AC1009
  9
$FILLMODE
 70
 0
  9
$SPLFRAME
 70
 1
  9
$EXTMIN
 10
0
 20
0
 30
0.0
  9
$EXTMAX
 10
1058.33
 20
1058.33
 30
0.0
  0
ENDSEC
  0
SECTION
  2
TABLES
  0
TABLE
  2
LAYER
 70
1
  0
LAYER
  2
0
 70
     0
 62
     7
  6
CONTINUOUS
  0
ENDTAB
  0
ENDSEC
  0
SECTION
  2
ENTITIES
  0
LINE
  8
0
 62
     0
 10
334.097
 20
130.433
 30
0.0
 11
334.253
 21
130.426
 31
0.0
  0
LINE
  8
0
 62
     0
 10
334.253
 20
130.426
 30
0.0
 11
334.409
 21
130.408
 31
0.0
  0
LINE
  8
0
 62
     0
 10
334.409
 20
130.408
 30
0.0
 11
334.563
 21
130.377
 31
0.0
  0
LINE
  8
0
 62
     0
 10
334.563
 20
130.377
 30
0.0
 11
334.714
 21
130.335
 31
0.0
  0
LINE
  8
0
 62
     0
 10
334.714
 20
130.335
 30
0.0
 11
334.862
 21
130.28
 31
0.0
  0
LINE
  8
0
 62
     0
 10
334.862
 20
130.28
 30
0.0
 11
335.004
 21
130.215
 31
0.0
  0
LINE
  8
0
 62
     0
 10
335.004
 20
130.215
 30
0.0
 11
335.14
 21
130.138
 31
0.0
  0
LINE
  8
0
 62
     0
 10
335.14
 20
130.138
 30
0.0
 11
335.271
 21
130.051
 31
0.0
  0
LINE
  8
0
 62
     0
 10
335.271
 20
130.051
 30
0.0
 11
335.394
 21
129.953
 31
0.0
  0
LINE
  8
0
 62
     0
 10
335.394
 20
129.953
 30
0.0
 11
335.511
 21
129.847
 31
0.0
  0
LINE
  8
0
 62
     0
 10
335.511
 20
129.847
 30
0.0
 11
335.617
 21
129.731
 31
0.0
  0
LINE
  8
0
 62
     0
 10
335.617
 20
129.731
 30
0.0
 11
335.715
 21
129.609
 31
0.0
  0
LINE
  8
0
 62
     0
 10
335.715
 20
129.609
 30
0.0
 11
335.802
 21
129.478
 31
0.0
  0
LINE
  8
0
 62
     0
 10
335.802
 20
129.478
 30
0.0
 11
335.879
 21
129.34
 31
0.0
  0
LINE
  8
0
 62
     0
 10
335.879
 20
129.34
 30
0.0
 11
335.944
 21
129.198
 31
0.0
  0
LINE
  8
0
 62
     0
 10
335.944
 20
129.198
 30
0.0
 11
335.999
 21
129.052
 31
0.0
  0
LINE
  8
0
 62
     0
 10
335.999
 20
129.052
 30
0.0
 11
336.04
 21
128.899
 31
0.0
  0
LINE
  8
0
 62
     0
 10
336.04
 20
128.899
 30
0.0
 11
336.072
 21
128.746
 31
0.0
  0
LINE
  8
0
 62
     0
 10
336.072
 20
128.746
 30
0.0
 11
336.09
 21
128.589
 31
0.0
  0
LINE
  8
0
 62
     0
 10
336.09
 20
128.589
 30
0.0
 11
336.097
 21
128.432
 31
0.0
  0
LINE
  8
0
 62
     0
 10
336.097
 20
128.432
 30
0.0
 11
336.097
 21
2.17179
 31
0.0
  0
LINE
  8
0
 62
     0
 10
336.097
 20
2.17179
 30
0.0
 11
336.09
 21
2.01469
 31
0.0
  0
LINE
  8
0
 62
     0
 10
336.09
 20
2.01469
 30
0.0
 11
336.072
 21
1.85897
 31
0.0
  0
LINE
  8
0
 62
     0
 10
336.072
 20
1.85897
 30
0.0
 11
336.04
 21
1.70463
 31
0.0
  0
LINE
  8
0
 62
     0
 10
336.04
 20
1.70463
 30
0.0
 11
335.999
 21
1.55305
 31
0.0
  0
LINE
  8
0
 62
     0
 10
335.999
 20
1.55305
 30
0.0
 11
335.944
 21
1.40698
 31
0.0
  0
LINE
  8
0
 62
     0
 10
335.944
 20
1.40698
 30
0.0
 11
335.879
 21
1.26366
 31
0.0
  0
LINE
  8
0
 62
     0
 10
335.879
 20
1.26366
 30
0.0
 11
335.802
 21
1.12723
 31
0.0
  0
LINE
  8
0
 62
     0
 10
335.802
 20
1.12723
 30
0.0
 11
335.715
 21
0.996322
 31
0.0
  0
LINE
  8
0
 62
     0
 10
335.715
 20
0.996322
 30
0.0
 11
335.617
 21
0.873675
 31
0.0
  0
LINE
  8
0
 62
     0
 10
335.617
 20
0.873675
 30
0.0
 11
335.511
 21
0.757922
 31
0.0
  0
LINE
  8
0
 62
     0
 10
335.511
 20
0.757922
 30
0.0
 11
335.394
 21
0.651813
 31
0.0
  0
LINE
  8
0
 62
     0
 10
335.394
 20
0.651813
 30
0.0
 11
335.271
 21
0.55397
 31
0.0
  0
LINE
  8
0
 62
     0
 10
335.271
 20
0.55397
 30
0.0
 11
335.14
 21
0.465776
 31
0.0
  0
LINE
  8
0
 62
     0
 10
335.14
 20
0.465776
 30
0.0
 11
335.004
 21
0.388606
 31
0.0
  0
LINE
  8
0
 62
     0
 10
335.004
 20
0.388606
 30
0.0
 11
334.862
 21
0.323839
 31
0.0
  0
LINE
  8
0
 62
     0
 10
334.862
 20
0.323839
 30
0.0
 11
334.714
 21
0.268718
 31
0.0
  0
LINE
  8
0
 62
     0
 10
334.714
 20
0.268718
 30
0.0
 11
334.563
 21
0.227376
 31
0.0
  0
LINE
  8
0
 62
     0
 10
334.563
 20
0.227376
 30
0.0
 11
334.409
 21
0.195682
 31
0.0
  0
LINE
  8
0
 62
     0
 10
334.409
 20
0.195682
 30
0.0
 11
334.253
 21
0.177767
 31
0.0
  0
LINE
  8
0
 62
     0
 10
334.253
 20
0.177767
 30
0.0
 11
334.096
 21
0.170877
 31
0.0
  0
LINE
  8
0
 62
     0
 10
334.096
 20
0.170877
 30
0.0
 11
2.096
 21
0.170877
 31
0.0
  0
LINE
  8
0
 62
     0
 10
2.096
 20
0.170877
 30
0.0
 11
1.9389
 21
0.177767
 31
0.0
  0
LINE
  8
0
 62
     0
 10
1.9389
 20
0.177767
 30
0.0
 11
1.7818
 21
0.195682
 31
0.0
  0
LINE
  8
0
 62
     0
 10
1.7818
 20
0.195682
 30
0.0
 11
1.62884
 21
0.227376
 31
0.0
  0
LINE
  8
0
 62
     0
 10
1.62884
 20
0.227376
 30
0.0
 11
1.47588
 21
0.268718
 31
0.0
  0
LINE
  8
0
 62
     0
 10
1.47588
 20
0.268718
 30
0.0
 11
1.32981
 21
0.323839
 31
0.0
  0
LINE
  8
0
 62
     0
 10
1.32981
 20
0.323839
 30
0.0
 11
1.18787
 21
0.388606
 31
0.0
  0
LINE
  8
0
 62
     0
 10
1.18787
 20
0.388606
 30
0.0
 11
1.05006
 21
0.465776
 31
0.0
  0
LINE
  8
0
 62
     0
 10
1.05006
 20
0.465776
 30
0.0
 11
0.919152
 21
0.55397
 31
0.0
  0
LINE
  8
0
 62
     0
 10
0.919152
 20
0.55397
 30
0.0
 11
0.796505
 21
0.651813
 31
0.0
  0
LINE
  8
0
 62
     0
 10
0.796505
 20
0.651813
 30
0.0
 11
0.680752
 21
0.757922
 31
0.0
  0
LINE
  8
0
 62
     0
 10
0.680752
 20
0.757922
 30
0.0
 11
0.574643
 21
0.873675
 31
0.0
  0
LINE
  8
0
 62
     0
 10
0.574643
 20
0.873675
 30
0.0
 11
0.4768
 21
0.996322
 31
0.0
  0
LINE
  8
0
 62
     0
 10
0.4768
 20
0.996322
 30
0.0
 11
0.389985
 21
1.12723
 31
0.0
  0
LINE
  8
0
 62
     0
 10
0.389985
 20
1.12723
 30
0.0
 11
0.312815
 21
1.26366
 31
0.0
  0
LINE
  8
0
 62
     0
 10
0.312815
 20
1.26366
 30
0.0
 11
0.248047
 21
1.40698
 31
0.0
  0
LINE
  8
0
 62
     0
 10
0.248047
 20
1.40698
 30
0.0
 11
0.192925
 21
1.55305
 31
0.0
  0
LINE
  8
0
 62
     0
 10
0.192925
 20
1.55305
 30
0.0
 11
0.150206
 21
1.70463
 31
0.0
  0
LINE
  8
0
 62
     0
 10
0.150206
 20
1.70463
 30
0.0
 11
0.119889
 21
1.85897
 31
0.0
  0
LINE
  8
0
 62
     0
 10
0.119889
 20
1.85897
 30
0.0
 11
0.101975
 21
2.01469
 31
0.0
  0
LINE
  8
0
 62
     0
 10
0.101975
 20
2.01469
 30
0.0
 11
0.0950846
 21
2.17179
 31
0.0
  0
LINE
  8
0
 62
     0
 10
0.0950846
 20
2.17179
 30
0.0
 11
0.0950846
 21
128.432
 31
0.0
  0
LINE
  8
0
 62
     0
 10
0.0950846
 20
128.432
 30
0.0
 11
0.101975
 21
128.589
 31
0.0
  0
LINE
  8
0
 62
     0
 10
0.101975
 20
128.589
 30
0.0
 11
0.119889
 21
128.746
 31
0.0
  0
LINE
  8
0
 62
     0
 10
0.119889
 20
128.746
 30
0.0
 11
0.150206
 21
128.899
 31
0.0
  0
LINE
  8
0
 62
     0
 10
0.150206
 20
128.899
 30
0.0
 11
0.192925
 21
129.052
 31
0.0
  0
LINE
  8
0
 62
     0
 10
0.192925
 20
129.052
 30
0.0
 11
0.248047
 21
129.198
 31
0.0
  0
LINE
  8
0
 62
     0
 10
0.248047
 20
129.198
 30
0.0
 11
0.312815
 21
129.34
 31
0.0
  0
LINE
  8
0
 62
     0
 10
0.312815
 20
129.34
 30
0.0
 11
0.389985
 21
129.478
 31
0.0
  0
LINE
  8
0
 62
     0
 10
0.389985
 20
129.478
 30
0.0
 11
0.4768
 21
129.609
 31
0.0
  0
LINE
  8
0
 62
     0
 10
0.4768
 20
129.609
 30
0.0
 11
0.574643
 21
129.731
 31
0.0
  0
LINE
  8
0
 62
     0
 10
0.574643
 20
129.731
 30
0.0
 11
0.680752
 21
129.847
 31
0.0
  0
LINE
  8
0
 62
     0
 10
0.680752
 20
129.847
 30
0.0
 11
0.796505
 21
129.953
 31
0.0
  0
LINE
  8
0
 62
     0
 10
0.796505
 20
129.953
 30
0.0
 11
0.919152
 21
130.051
 31
0.0
  0
LINE
  8
0
 62
     0
 10
0.919152
 20
130.051
 30
0.0
 11
1.05006
 21
130.138
 31
0.0
  0
LINE
  8
0
 62
     0
 10
1.05006
 20
130.138
 30
0.0
 11
1.18787
 21
130.215
 31
0.0
  0
LINE
  8
0
 62
     0
 10
1.18787
 20
130.215
 30
0.0
 11
1.32981
 21
130.28
 31
0.0
  0
LINE
  8
0
 62
     0
 10
1.32981
 20
130.28
 30
0.0
 11
1.47588
 21
130.335
 31
0.0
  0
LINE
  8
0
 62
     0
 10
1.47588
 20
130.335
 30
0.0
 11
1.62884
 21
130.377
 31
0.0
  0
LINE
  8
0
 62
     0
 10
1.62884
 20
130.377
 30
0.0
 11
1.7818
 21
130.408
 31
0.0
  0
LINE
  8
0
 62
     0
 10
1.7818
 20
130.408
 30
0.0
 11
1.9389
 21
130.426
 31
0.0
  0
LINE
  8
0
 62
     0
 10
1.9389
 20
130.426
 30
0.0
 11
2.096
 21
130.433
 31
0.0
  0
LINE
  8
0
 62
     0
 10
2.096
 20
130.433
 30
0.0
 11
334.097
 21
130.433
 31
0.0
  0
LINE
  8
0
 62
     0
 10
333.05
 20
4.19749
 30
0.0
 11
332.624
 21
3.97979
 31
0.0
  0
LINE
  8
0
 62
     0
 10
332.624
 20
3.97979
 30
0.0
 11
332.288
 21
3.64352
 31
0.0
  0
LINE
  8
0
 62
     0
 10
332.288
 20
3.64352
 30
0.0
 11
332.07
 21
3.21772
 31
0.0
  0
LINE
  8
0
 62
     0
 10
332.07
 20
3.21772
 30
0.0
 11
331.997
 21
2.74643
 31
0.0
  0
LINE
  8
0
 62
     0
 10
331.997
 20
2.74643
 30
0.0
 11
332.07
 21
2.27514
 31
0.0
  0
LINE
  8
0
 62
     0
 10
332.07
 20
2.27514
 30
0.0
 11
332.288
 21
1.8507
 31
0.0
  0
LINE
  8
0
 62
     0
 10
332.288
 20
1.8507
 30
0.0
 11
332.624
 21
1.51309
 31
0.0
  0
LINE
  8
0
 62
     0
 10
332.624
 20
1.51309
 30
0.0
 11
333.05
 21
1.29673
 31
0.0
  0
LINE
  8
0
 62
     0
 10
333.05
 20
1.29673
 30
0.0
 11
333.521
 21
1.22094
 31
0.0
  0
LINE
  8
0
 62
     0
 10
333.521
 20
1.22094
 30
0.0
 11
333.992
 21
1.29673
 31
0.0
  0
LINE
  8
0
 62
     0
 10
333.992
 20
1.29673
 30
0.0
 11
334.418
 21
1.51309
 31
0.0
  0
LINE
  8
0
 62
     0
 10
334.418
 20
1.51309
 30
0.0
 11
334.754
 21
1.8507
 31
0.0
  0
LINE
  8
0
 62
     0
 10
334.754
 20
1.8507
 30
0.0
 11
334.972
 21
2.27514
 31
0.0
  0
LINE
  8
0
 62
     0
 10
334.972
 20
2.27514
 30
0.0
 11
335.046
 21
2.74643
 31
0.0
  0
LINE
  8
0
 62
     0
 10
335.046
 20
2.74643
 30
0.0
 11
334.972
 21
3.21772
 31
0.0
  0
LINE
  8
0
 62
     0
 10
334.972
 20
3.21772
 30
0.0
 11
334.754
 21
3.64352
 31
0.0
  0
LINE
  8
0
 62
     0
 10
334.754
 20
3.64352
 30
0.0
 11
334.418
 21
3.97979
 31
0.0
  0
LINE
  8
0
 62
     0
 10
334.418
 20
3.97979
 30
0.0
 11
333.992
 21
4.19749
 31
0.0
  0
LINE
  8
0
 62
     0
 10
333.992
 20
4.19749
 30
0.0
 11
333.521
 21
4.27193
 31
0.0
  0
LINE
  8
0
 62
     0
 10
333.521
 20
4.27193
 30
0.0
 11
333.05
 21
4.19749
 31
0.0
  0
LINE
  8
0
 62
     0
 10
250.337
 20
4.19749
 30
0.0
 11
249.911
 21
3.97979
 31
0.0
  0
LINE
  8
0
 62
     0
 10
249.911
 20
3.97979
 30
0.0
 11
249.575
 21
3.64352
 31
0.0
  0
LINE
  8
0
 62
     0
 10
249.575
 20
3.64352
 30
0.0
 11
249.357
 21
3.21772
 31
0.0
  0
LINE
  8
0
 62
     0
 10
249.357
 20
3.21772
 30
0.0
 11
249.283
 21
2.74643
 31
0.0
  0
LINE
  8
0
 62
     0
 10
249.283
 20
2.74643
 30
0.0
 11
249.357
 21
2.27514
 31
0.0
  0
LINE
  8
0
 62
     0
 10
249.357
 20
2.27514
 30
0.0
 11
249.575
 21
1.8507
 31
0.0
  0
LINE
  8
0
 62
     0
 10
249.575
 20
1.8507
 30
0.0
 11
249.911
 21
1.51309
 31
0.0
  0
LINE
  8
0
 62
     0
 10
249.911
 20
1.51309
 30
0.0
 11
250.337
 21
1.29673
 31
0.0
  0
LINE
  8
0
 62
     0
 10
250.337
 20
1.29673
 30
0.0
 11
250.808
 21
1.22094
 31
0.0
  0
LINE
  8
0
 62
     0
 10
250.808
 20
1.22094
 30
0.0
 11
251.28
 21
1.29673
 31
0.0
  0
LINE
  8
0
 62
     0
 10
251.28
 20
1.29673
 30
0.0
 11
251.703
 21
1.51309
 31
0.0
  0
LINE
  8
0
 62
     0
 10
251.703
 20
1.51309
 30
0.0
 11
252.042
 21
1.8507
 31
0.0
  0
LINE
  8
0
 62
     0
 10
252.042
 20
1.8507
 30
0.0
 11
252.258
 21
2.27514
 31
0.0
  0
LINE
  8
0
 62
     0
 10
252.258
 20
2.27514
 30
0.0
 11
252.334
 21
2.74643
 31
0.0
  0
LINE
  8
0
 62
     0
 10
252.334
 20
2.74643
 30
0.0
 11
252.258
 21
3.21772
 31
0.0
  0
LINE
  8
0
 62
     0
 10
252.258
 20
3.21772
 30
0.0
 11
252.042
 21
3.64352
 31
0.0
  0
LINE
  8
0
 62
     0
 10
252.042
 20
3.64352
 30
0.0
 11
251.703
 21
3.97979
 31
0.0
  0
LINE
  8
0
 62
     0
 10
251.703
 20
3.97979
 30
0.0
 11
251.28
 21
4.19749
 31
0.0
  0
LINE
  8
0
 62
     0
 10
251.28
 20
4.19749
 30
0.0
 11
250.808
 21
4.27193
 31
0.0
  0
LINE
  8
0
 62
     0
 10
250.808
 20
4.27193
 30
0.0
 11
250.337
 21
4.19749
 31
0.0
  0
LINE
  8
0
 62
     0
 10
167.624
 20
4.19749
 30
0.0
 11
167.2
 21
3.97979
 31
0.0
  0
LINE
  8
0
 62
     0
 10
167.2
 20
3.97979
 30
0.0
 11
166.861
 21
3.64352
 31
0.0
  0
LINE
  8
0
 62
     0
 10
166.861
 20
3.64352
 30
0.0
 11
166.646
 21
3.21772
 31
0.0
  0
LINE
  8
0
 62
     0
 10
166.646
 20
3.21772
 30
0.0
 11
166.57
 21
2.74643
 31
0.0
  0
LINE
  8
0
 62
     0
 10
166.57
 20
2.74643
 30
0.0
 11
166.646
 21
2.27514
 31
0.0
  0
LINE
  8
0
 62
     0
 10
166.646
 20
2.27514
 30
0.0
 11
166.861
 21
1.8507
 31
0.0
  0
LINE
  8
0
 62
     0
 10
166.861
 20
1.8507
 30
0.0
 11
167.2
 21
1.51309
 31
0.0
  0
LINE
  8
0
 62
     0
 10
167.2
 20
1.51309
 30
0.0
 11
167.624
 21
1.29673
 31
0.0
  0
LINE
  8
0
 62
     0
 10
167.624
 20
1.29673
 30
0.0
 11
168.096
 21
1.22094
 31
0.0
  0
LINE
  8
0
 62
     0
 10
168.096
 20
1.22094
 30
0.0
 11
168.567
 21
1.29673
 31
0.0
  0
LINE
  8
0
 62
     0
 10
168.567
 20
1.29673
 30
0.0
 11
168.991
 21
1.51309
 31
0.0
  0
LINE
  8
0
 62
     0
 10
168.991
 20
1.51309
 30
0.0
 11
169.329
 21
1.8507
 31
0.0
  0
LINE
  8
0
 62
     0
 10
169.329
 20
1.8507
 30
0.0
 11
169.546
 21
2.27514
 31
0.0
  0
LINE
  8
0
 62
     0
 10
169.546
 20
2.27514
 30
0.0
 11
169.62
 21
2.74643
 31
0.0
  0
LINE
  8
0
 62
     0
 10
169.62
 20
2.74643
 30
0.0
 11
169.546
 21
3.21772
 31
0.0
  0
LINE
  8
0
 62
     0
 10
169.546
 20
3.21772
 30
0.0
 11
169.329
 21
3.64352
 31
0.0
  0
LINE
  8
0
 62
     0
 10
169.329
 20
3.64352
 30
0.0
 11
168.991
 21
3.97979
 31
0.0
  0
LINE
  8
0
 62
     0
 10
168.991
 20
3.97979
 30
0.0
 11
168.567
 21
4.19749
 31
0.0
  0
LINE
  8
0
 62
     0
 10
168.567
 20
4.19749
 30
0.0
 11
168.096
 21
4.27193
 31
0.0
  0
LINE
  8
0
 62
     0
 10
168.096
 20
4.27193
 30
0.0
 11
167.624
 21
4.19749
 31
0.0
  0
LINE
  8
0
 62
     0
 10
84.9119
 20
4.19749
 30
0.0
 11
84.486
 21
3.97979
 31
0.0
  0
LINE
  8
0
 62
     0
 10
84.486
 20
3.97979
 30
0.0
 11
84.1484
 21
3.64352
 31
0.0
  0
LINE
  8
0
 62
     0
 10
84.1484
 20
3.64352
 30
0.0
 11
83.9322
 21
3.21772
 31
0.0
  0
LINE
  8
0
 62
     0
 10
83.9322
 20
3.21772
 30
0.0
 11
83.8577
 21
2.74643
 31
0.0
  0
LINE
  8
0
 62
     0
 10
83.8577
 20
2.74643
 30
0.0
 11
83.9322
 21
2.27514
 31
0.0
  0
LINE
  8
0
 62
     0
 10
83.9322
 20
2.27514
 30
0.0
 11
84.1484
 21
1.8507
 31
0.0
  0
LINE
  8
0
 62
     0
 10
84.1484
 20
1.8507
 30
0.0
 11
84.486
 21
1.51309
 31
0.0
  0
LINE
  8
0
 62
     0
 10
84.486
 20
1.51309
 30
0.0
 11
84.9119
 21
1.29673
 31
0.0
  0
LINE
  8
0
 62
     0
 10
84.9119
 20
1.29673
 30
0.0
 11
85.3817
 21
1.22094
 31
0.0
  0
LINE
  8
0
 62
     0
 10
85.3817
 20
1.22094
 30
0.0
 11
85.8545
 21
1.29673
 31
0.0
  0
LINE
  8
0
 62
     0
 10
85.8545
 20
1.29673
 30
0.0
 11
86.2789
 21
1.51309
 31
0.0
  0
LINE
  8
0
 62
     0
 10
86.2789
 20
1.51309
 30
0.0
 11
86.6165
 21
1.8507
 31
0.0
  0
LINE
  8
0
 62
     0
 10
86.6165
 20
1.8507
 30
0.0
 11
86.8331
 21
2.27514
 31
0.0
  0
LINE
  8
0
 62
     0
 10
86.8331
 20
2.27514
 30
0.0
 11
86.9075
 21
2.74643
 31
0.0
  0
LINE
  8
0
 62
     0
 10
86.9075
 20
2.74643
 30
0.0
 11
86.8331
 21
3.21772
 31
0.0
  0
LINE
  8
0
 62
     0
 10
86.8331
 20
3.21772
 30
0.0
 11
86.6165
 21
3.64352
 31
0.0
  0
LINE
  8
0
 62
     0
 10
86.6165
 20
3.64352
 30
0.0
 11
86.2789
 21
3.97979
 31
0.0
  0
LINE
  8
0
 62
     0
 10
86.2789
 20
3.97979
 30
0.0
 11
85.8545
 21
4.19749
 31
0.0
  0
LINE
  8
0
 62
     0
 10
85.8545
 20
4.19749
 30
0.0
 11
85.3817
 21
4.27193
 31
0.0
  0
LINE
  8
0
 62
     0
 10
85.3817
 20
4.27193
 30
0.0
 11
84.9119
 21
4.19749
 31
0.0
  0
LINE
  8
0
 62
     0
 10
2.19797
 20
4.19749
 30
0.0
 11
1.77353
 21
3.97979
 31
0.0
  0
LINE
  8
0
 62
     0
 10
1.77353
 20
3.97979
 30
0.0
 11
1.43591
 21
3.64352
 31
0.0
  0
LINE
  8
0
 62
     0
 10
1.43591
 20
3.64352
 30
0.0
 11
1.21956
 21
3.21772
 31
0.0
  0
LINE
  8
0
 62
     0
 10
1.21956
 20
3.21772
 30
0.0
 11
1.14515
 21
2.74643
 31
0.0
  0
LINE
  8
0
 62
     0
 10
1.14515
 20
2.74643
 30
0.0
 11
1.21956
 21
2.27514
 31
0.0
  0
LINE
  8
0
 62
     0
 10
1.21956
 20
2.27514
 30
0.0
 11
1.43591
 21
1.8507
 31
0.0
  0
LINE
  8
0
 62
     0
 10
1.43591
 20
1.8507
 30
0.0
 11
1.77353
 21
1.51309
 31
0.0
  0
LINE
  8
0
 62
     0
 10
1.77353
 20
1.51309
 30
0.0
 11
2.19797
 21
1.29673
 31
0.0
  0
LINE
  8
0
 62
     0
 10
2.19797
 20
1.29673
 30
0.0
 11
2.67064
 21
1.22094
 31
0.0
  0
LINE
  8
0
 62
     0
 10
2.67064
 20
1.22094
 30
0.0
 11
3.14055
 21
1.29673
 31
0.0
  0
LINE
  8
0
 62
     0
 10
3.14055
 20
1.29673
 30
0.0
 11
3.56637
 21
1.51309
 31
0.0
  0
LINE
  8
0
 62
     0
 10
3.56637
 20
1.51309
 30
0.0
 11
3.90398
 21
1.8507
 31
0.0
  0
LINE
  8
0
 62
     0
 10
3.90398
 20
1.8507
 30
0.0
 11
4.12034
 21
2.27514
 31
0.0
  0
LINE
  8
0
 62
     0
 10
4.12034
 20
2.27514
 30
0.0
 11
4.19612
 21
2.74643
 31
0.0
  0
LINE
  8
0
 62
     0
 10
4.19612
 20
2.74643
 30
0.0
 11
4.12034
 21
3.21772
 31
0.0
  0
LINE
  8
0
 62
     0
 10
4.12034
 20
3.21772
 30
0.0
 11
3.90398
 21
3.64352
 31
0.0
  0
LINE
  8
0
 62
     0
 10
3.90398
 20
3.64352
 30
0.0
 11
3.56637
 21
3.97979
 31
0.0
  0
LINE
  8
0
 62
     0
 10
3.56637
 20
3.97979
 30
0.0
 11
3.14055
 21
4.19749
 31
0.0
  0
LINE
  8
0
 62
     0
 10
3.14055
 20
4.19749
 30
0.0
 11
2.67064
 21
4.27193
 31
0.0
  0
LINE
  8
0
 62
     0
 10
2.67064
 20
4.27193
 30
0.0
 11
2.19797
 21
4.19749
 31
0.0
  0
LINE
  8
0
 62
     0
 10
142.12
 20
22.6977
 30
0.0
 11
142.12
 21
21.6972
 31
0.0
  0
LINE
  8
0
 62
     0
 10
142.12
 20
21.6972
 30
0.0
 11
141.321
 21
21.6972
 31
0.0
  0
LINE
  8
0
 62
     0
 10
141.321
 20
21.6972
 30
0.0
 11
141.321
 21
18.7468
 31
0.0
  0
LINE
  8
0
 62
     0
 10
141.321
 20
18.7468
 30
0.0
 11
142.12
 21
18.7468
 31
0.0
  0
LINE
  8
0
 62
     0
 10
142.12
 20
18.7468
 30
0.0
 11
142.12
 21
12.7978
 31
0.0
  0
LINE
  8
0
 62
     0
 10
142.12
 20
12.7978
 30
0.0
 11
141.321
 21
12.7978
 31
0.0
  0
LINE
  8
0
 62
     0
 10
141.321
 20
12.7978
 30
0.0
 11
141.321
 21
9.84747
 31
0.0
  0
LINE
  8
0
 62
     0
 10
141.321
 20
9.84747
 30
0.0
 11
142.12
 21
9.84747
 31
0.0
  0
LINE
  8
0
 62
     0
 10
142.12
 20
9.84747
 30
0.0
 11
142.12
 21
8.847
 31
0.0
  0
LINE
  8
0
 62
     0
 10
142.12
 20
8.847
 30
0.0
 11
155.97
 21
8.847
 31
0.0
  0
LINE
  8
0
 62
     0
 10
155.97
 20
8.847
 30
0.0
 11
155.97
 21
9.84747
 31
0.0
  0
LINE
  8
0
 62
     0
 10
155.97
 20
9.84747
 30
0.0
 11
156.77
 21
9.84747
 31
0.0
  0
LINE
  8
0
 62
     0
 10
156.77
 20
9.84747
 30
0.0
 11
156.77
 21
12.7978
 31
0.0
  0
LINE
  8
0
 62
     0
 10
156.77
 20
12.7978
 30
0.0
 11
155.97
 21
12.7978
 31
0.0
  0
LINE
  8
0
 62
     0
 10
155.97
 20
12.7978
 30
0.0
 11
155.97
 21
18.7468
 31
0.0
  0
LINE
  8
0
 62
     0
 10
155.97
 20
18.7468
 30
0.0
 11
156.77
 21
18.7468
 31
0.0
  0
LINE
  8
0
 62
     0
 10
156.77
 20
18.7468
 30
0.0
 11
156.77
 21
21.6972
 31
0.0
  0
LINE
  8
0
 62
     0
 10
156.77
 20
21.6972
 30
0.0
 11
155.97
 21
21.6972
 31
0.0
  0
LINE
  8
0
 62
     0
 10
155.97
 20
21.6972
 30
0.0
 11
155.97
 21
22.6977
 31
0.0
  0
LINE
  8
0
 62
     0
 10
155.97
 20
22.6977
 30
0.0
 11
142.12
 21
22.6977
 31
0.0
  0
LINE
  8
0
 62
     0
 10
161.17
 20
22.6977
 30
0.0
 11
161.17
 21
21.6972
 31
0.0
  0
LINE
  8
0
 62
     0
 10
161.17
 20
21.6972
 30
0.0
 11
160.371
 21
21.6972
 31
0.0
  0
LINE
  8
0
 62
     0
 10
160.371
 20
21.6972
 30
0.0
 11
160.371
 21
18.7468
 31
0.0
  0
LINE
  8
0
 62
     0
 10
160.371
 20
18.7468
 30
0.0
 11
161.17
 21
18.7468
 31
0.0
  0
LINE
  8
0
 62
     0
 10
161.17
 20
18.7468
 30
0.0
 11
161.17
 21
12.7978
 31
0.0
  0
LINE
  8
0
 62
     0
 10
161.17
 20
12.7978
 30
0.0
 11
160.371
 21
12.7978
 31
0.0
  0
LINE
  8
0
 62
     0
 10
160.371
 20
12.7978
 30
0.0
 11
160.371
 21
9.84747
 31
0.0
  0
LINE
  8
0
 62
     0
 10
160.371
 20
9.84747
 30
0.0
 11
161.17
 21
9.84747
 31
0.0
  0
LINE
  8
0
 62
     0
 10
161.17
 20
9.84747
 30
0.0
 11
161.17
 21
8.847
 31
0.0
  0
LINE
  8
0
 62
     0
 10
161.17
 20
8.847
 30
0.0
 11
175.02
 21
8.847
 31
0.0
  0
LINE
  8
0
 62
     0
 10
175.02
 20
8.847
 30
0.0
 11
175.02
 21
9.84747
 31
0.0
  0
LINE
  8
0
 62
     0
 10
175.02
 20
9.84747
 30
0.0
 11
175.821
 21
9.84747
 31
0.0
  0
LINE
  8
0
 62
     0
 10
175.821
 20
9.84747
 30
0.0
 11
175.821
 21
12.7978
 31
0.0
  0
LINE
  8
0
 62
     0
 10
175.821
 20
12.7978
 30
0.0
 11
175.02
 21
12.7978
 31
0.0
  0
LINE
  8
0
 62
     0
 10
175.02
 20
12.7978
 30
0.0
 11
175.02
 21
18.7468
 31
0.0
  0
LINE
  8
0
 62
     0
 10
175.02
 20
18.7468
 30
0.0
 11
175.821
 21
18.7468
 31
0.0
  0
LINE
  8
0
 62
     0
 10
175.821
 20
18.7468
 30
0.0
 11
175.821
 21
21.6972
 31
0.0
  0
LINE
  8
0
 62
     0
 10
175.821
 20
21.6972
 30
0.0
 11
175.02
 21
21.6972
 31
0.0
  0
LINE
  8
0
 62
     0
 10
175.02
 20
21.6972
 30
0.0
 11
175.02
 21
22.6977
 31
0.0
  0
LINE
  8
0
 62
     0
 10
175.02
 20
22.6977
 30
0.0
 11
161.17
 21
22.6977
 31
0.0
  0
LINE
  8
0
 62
     0
 10
180.22
 20
22.6977
 30
0.0
 11
180.22
 21
21.6972
 31
0.0
  0
LINE
  8
0
 62
     0
 10
180.22
 20
21.6972
 30
0.0
 11
179.421
 21
21.6972
 31
0.0
  0
LINE
  8
0
 62
     0
 10
179.421
 20
21.6972
 30
0.0
 11
179.421
 21
18.7468
 31
0.0
  0
LINE
  8
0
 62
     0
 10
179.421
 20
18.7468
 30
0.0
 11
180.22
 21
18.7468
 31
0.0
  0
LINE
  8
0
 62
     0
 10
180.22
 20
18.7468
 30
0.0
 11
180.22
 21
12.7978
 31
0.0
  0
LINE
  8
0
 62
     0
 10
180.22
 20
12.7978
 30
0.0
 11
179.421
 21
12.7978
 31
0.0
  0
LINE
  8
0
 62
     0
 10
179.421
 20
12.7978
 30
0.0
 11
179.421
 21
9.84747
 31
0.0
  0
LINE
  8
0
 62
     0
 10
179.421
 20
9.84747
 30
0.0
 11
180.22
 21
9.84747
 31
0.0
  0
LINE
  8
0
 62
     0
 10
180.22
 20
9.84747
 30
0.0
 11
180.22
 21
8.847
 31
0.0
  0
LINE
  8
0
 62
     0
 10
180.22
 20
8.847
 30
0.0
 11
194.07
 21
8.847
 31
0.0
  0
LINE
  8
0
 62
     0
 10
194.07
 20
8.847
 30
0.0
 11
194.07
 21
9.84747
 31
0.0
  0
LINE
  8
0
 62
     0
 10
194.07
 20
9.84747
 30
0.0
 11
194.871
 21
9.84747
 31
0.0
  0
LINE
  8
0
 62
     0
 10
194.871
 20
9.84747
 30
0.0
 11
194.871
 21
12.7978
 31
0.0
  0
LINE
  8
0
 62
     0
 10
194.871
 20
12.7978
 30
0.0
 11
194.07
 21
12.7978
 31
0.0
  0
LINE
  8
0
 62
     0
 10
194.07
 20
12.7978
 30
0.0
 11
194.07
 21
18.7468
 31
0.0
  0
LINE
  8
0
 62
     0
 10
194.07
 20
18.7468
 30
0.0
 11
194.871
 21
18.7468
 31
0.0
  0
LINE
  8
0
 62
     0
 10
194.871
 20
18.7468
 30
0.0
 11
194.871
 21
21.6972
 31
0.0
  0
LINE
  8
0
 62
     0
 10
194.871
 20
21.6972
 30
0.0
 11
194.07
 21
21.6972
 31
0.0
  0
LINE
  8
0
 62
     0
 10
194.07
 20
21.6972
 30
0.0
 11
194.07
 21
22.6977
 31
0.0
  0
LINE
  8
0
 62
     0
 10
194.07
 20
22.6977
 30
0.0
 11
180.22
 21
22.6977
 31
0.0
  0
LINE
  8
0
 62
     0
 10
8.76984
 20
32.2227
 30
0.0
 11
8.76984
 21
31.2222
 31
0.0
  0
LINE
  8
0
 62
     0
 10
8.76984
 20
31.2222
 30
0.0
 11
7.97059
 21
31.2222
 31
0.0
  0
LINE
  8
0
 62
     0
 10
7.97059
 20
31.2222
 30
0.0
 11
7.97059
 21
28.2718
 31
0.0
  0
LINE
  8
0
 62
     0
 10
7.97059
 20
28.2718
 30
0.0
 11
8.76984
 21
28.2718
 31
0.0
  0
LINE
  8
0
 62
     0
 10
8.76984
 20
28.2718
 30
0.0
 11
8.76984
 21
22.3228
 31
0.0
  0
LINE
  8
0
 62
     0
 10
8.76984
 20
22.3228
 30
0.0
 11
7.97059
 21
22.3228
 31
0.0
  0
LINE
  8
0
 62
     0
 10
7.97059
 20
22.3228
 30
0.0
 11
7.97059
 21
19.3725
 31
0.0
  0
LINE
  8
0
 62
     0
 10
7.97059
 20
19.3725
 30
0.0
 11
8.76984
 21
19.3725
 31
0.0
  0
LINE
  8
0
 62
     0
 10
8.76984
 20
19.3725
 30
0.0
 11
8.76984
 21
18.372
 31
0.0
  0
LINE
  8
0
 62
     0
 10
8.76984
 20
18.372
 30
0.0
 11
22.6205
 21
18.372
 31
0.0
  0
LINE
  8
0
 62
     0
 10
22.6205
 20
18.372
 30
0.0
 11
22.6205
 21
19.3725
 31
0.0
  0
LINE
  8
0
 62
     0
 10
22.6205
 20
19.3725
 30
0.0
 11
23.4211
 21
19.3725
 31
0.0
  0
LINE
  8
0
 62
     0
 10
23.4211
 20
19.3725
 30
0.0
 11
23.4211
 21
22.3228
 31
0.0
  0
LINE
  8
0
 62
     0
 10
23.4211
 20
22.3228
 30
0.0
 11
22.6205
 21
22.3228
 31
0.0
  0
LINE
  8
0
 62
     0
 10
22.6205
 20
22.3228
 30
0.0
 11
22.6205
 21
28.2718
 31
0.0
  0
LINE
  8
0
 62
     0
 10
22.6205
 20
28.2718
 30
0.0
 11
23.4211
 21
28.2718
 31
0.0
  0
LINE
  8
0
 62
     0
 10
23.4211
 20
28.2718
 30
0.0
 11
23.4211
 21
31.2222
 31
0.0
  0
LINE
  8
0
 62
     0
 10
23.4211
 20
31.2222
 30
0.0
 11
22.6205
 21
31.2222
 31
0.0
  0
LINE
  8
0
 62
     0
 10
22.6205
 20
31.2222
 30
0.0
 11
22.6205
 21
32.2227
 31
0.0
  0
LINE
  8
0
 62
     0
 10
22.6205
 20
32.2227
 30
0.0
 11
8.76984
 21
32.2227
 31
0.0
  0
LINE
  8
0
 62
     0
 10
27.8198
 20
32.2227
 30
0.0
 11
27.8198
 21
31.2222
 31
0.0
  0
LINE
  8
0
 62
     0
 10
27.8198
 20
31.2222
 30
0.0
 11
27.0206
 21
31.2222
 31
0.0
  0
LINE
  8
0
 62
     0
 10
27.0206
 20
31.2222
 30
0.0
 11
27.0206
 21
28.2718
 31
0.0
  0
LINE
  8
0
 62
     0
 10
27.0206
 20
28.2718
 30
0.0
 11
27.8198
 21
28.2718
 31
0.0
  0
LINE
  8
0
 62
     0
 10
27.8198
 20
28.2718
 30
0.0
 11
27.8198
 21
22.3228
 31
0.0
  0
LINE
  8
0
 62
     0
 10
27.8198
 20
22.3228
 30
0.0
 11
27.0206
 21
22.3228
 31
0.0
  0
LINE
  8
0
 62
     0
 10
27.0206
 20
22.3228
 30
0.0
 11
27.0206
 21
19.3725
 31
0.0
  0
LINE
  8
0
 62
     0
 10
27.0206
 20
19.3725
 30
0.0
 11
27.8198
 21
19.3725
 31
0.0
  0
LINE
  8
0
 62
     0
 10
27.8198
 20
19.3725
 30
0.0
 11
27.8198
 21
18.372
 31
0.0
  0
LINE
  8
0
 62
     0
 10
27.8198
 20
18.372
 30
0.0
 11
41.6705
 21
18.372
 31
0.0
  0
LINE
  8
0
 62
     0
 10
41.6705
 20
18.372
 30
0.0
 11
41.6705
 21
19.3725
 31
0.0
  0
LINE
  8
0
 62
     0
 10
41.6705
 20
19.3725
 30
0.0
 11
42.4713
 21
19.3725
 31
0.0
  0
LINE
  8
0
 62
     0
 10
42.4713
 20
19.3725
 30
0.0
 11
42.4713
 21
22.3228
 31
0.0
  0
LINE
  8
0
 62
     0
 10
42.4713
 20
22.3228
 30
0.0
 11
41.6705
 21
22.3228
 31
0.0
  0
LINE
  8
0
 62
     0
 10
41.6705
 20
22.3228
 30
0.0
 11
41.6705
 21
28.2718
 31
0.0
  0
LINE
  8
0
 62
     0
 10
41.6705
 20
28.2718
 30
0.0
 11
42.4713
 21
28.2718
 31
0.0
  0
LINE
  8
0
 62
     0
 10
42.4713
 20
28.2718
 30
0.0
 11
42.4713
 21
31.2222
 31
0.0
  0
LINE
  8
0
 62
     0
 10
42.4713
 20
31.2222
 30
0.0
 11
41.6705
 21
31.2222
 31
0.0
  0
LINE
  8
0
 62
     0
 10
41.6705
 20
31.2222
 30
0.0
 11
41.6705
 21
32.2227
 31
0.0
  0
LINE
  8
0
 62
     0
 10
41.6705
 20
32.2227
 30
0.0
 11
27.8198
 21
32.2227
 31
0.0
  0
LINE
  8
0
 62
     0
 10
294.52
 20
32.2227
 30
0.0
 11
294.52
 21
31.2222
 31
0.0
  0
LINE
  8
0
 62
     0
 10
294.52
 20
31.2222
 30
0.0
 11
293.721
 21
31.2222
 31
0.0
  0
LINE
  8
0
 62
     0
 10
293.721
 20
31.2222
 30
0.0
 11
293.721
 21
28.2718
 31
0.0
  0
LINE
  8
0
 62
     0
 10
293.721
 20
28.2718
 30
0.0
 11
294.52
 21
28.2718
 31
0.0
  0
LINE
  8
0
 62
     0
 10
294.52
 20
28.2718
 30
0.0
 11
294.52
 21
22.3228
 31
0.0
  0
LINE
  8
0
 62
     0
 10
294.52
 20
22.3228
 30
0.0
 11
293.721
 21
22.3228
 31
0.0
  0
LINE
  8
0
 62
     0
 10
293.721
 20
22.3228
 30
0.0
 11
293.721
 21
19.3725
 31
0.0
  0
LINE
  8
0
 62
     0
 10
293.721
 20
19.3725
 30
0.0
 11
294.52
 21
19.3725
 31
0.0
  0
LINE
  8
0
 62
     0
 10
294.52
 20
19.3725
 30
0.0
 11
294.52
 21
18.372
 31
0.0
  0
LINE
  8
0
 62
     0
 10
294.52
 20
18.372
 30
0.0
 11
308.37
 21
18.372
 31
0.0
  0
LINE
  8
0
 62
     0
 10
308.37
 20
18.372
 30
0.0
 11
308.37
 21
19.3725
 31
0.0
  0
LINE
  8
0
 62
     0
 10
308.37
 20
19.3725
 30
0.0
 11
309.171
 21
19.3725
 31
0.0
  0
LINE
  8
0
 62
     0
 10
309.171
 20
19.3725
 30
0.0
 11
309.171
 21
22.3228
 31
0.0
  0
LINE
  8
0
 62
     0
 10
309.171
 20
22.3228
 30
0.0
 11
308.37
 21
22.3228
 31
0.0
  0
LINE
  8
0
 62
     0
 10
308.37
 20
22.3228
 30
0.0
 11
308.37
 21
28.2718
 31
0.0
  0
LINE
  8
0
 62
     0
 10
308.37
 20
28.2718
 30
0.0
 11
309.171
 21
28.2718
 31
0.0
  0
LINE
  8
0
 62
     0
 10
309.171
 20
28.2718
 30
0.0
 11
309.171
 21
31.2222
 31
0.0
  0
LINE
  8
0
 62
     0
 10
309.171
 20
31.2222
 30
0.0
 11
308.37
 21
31.2222
 31
0.0
  0
LINE
  8
0
 62
     0
 10
308.37
 20
31.2222
 30
0.0
 11
308.37
 21
32.2227
 31
0.0
  0
LINE
  8
0
 62
     0
 10
308.37
 20
32.2227
 30
0.0
 11
294.52
 21
32.2227
 31
0.0
  0
LINE
  8
0
 62
     0
 10
313.57
 20
32.2227
 30
0.0
 11
313.57
 21
31.2222
 31
0.0
  0
LINE
  8
0
 62
     0
 10
313.57
 20
31.2222
 30
0.0
 11
312.771
 21
31.2222
 31
0.0
  0
LINE
  8
0
 62
     0
 10
312.771
 20
31.2222
 30
0.0
 11
312.771
 21
28.2718
 31
0.0
  0
LINE
  8
0
 62
     0
 10
312.771
 20
28.2718
 30
0.0
 11
313.57
 21
28.2718
 31
0.0
  0
LINE
  8
0
 62
     0
 10
313.57
 20
28.2718
 30
0.0
 11
313.57
 21
22.3228
 31
0.0
  0
LINE
  8
0
 62
     0
 10
313.57
 20
22.3228
 30
0.0
 11
312.771
 21
22.3228
 31
0.0
  0
LINE
  8
0
 62
     0
 10
312.771
 20
22.3228
 30
0.0
 11
312.771
 21
19.3725
 31
0.0
  0
LINE
  8
0
 62
     0
 10
312.771
 20
19.3725
 30
0.0
 11
313.57
 21
19.3725
 31
0.0
  0
LINE
  8
0
 62
     0
 10
313.57
 20
19.3725
 30
0.0
 11
313.57
 21
18.372
 31
0.0
  0
LINE
  8
0
 62
     0
 10
313.57
 20
18.372
 30
0.0
 11
327.42
 21
18.372
 31
0.0
  0
LINE
  8
0
 62
     0
 10
327.42
 20
18.372
 30
0.0
 11
327.42
 21
19.3725
 31
0.0
  0
LINE
  8
0
 62
     0
 10
327.42
 20
19.3725
 30
0.0
 11
328.221
 21
19.3725
 31
0.0
  0
LINE
  8
0
 62
     0
 10
328.221
 20
19.3725
 30
0.0
 11
328.221
 21
22.3228
 31
0.0
  0
LINE
  8
0
 62
     0
 10
328.221
 20
22.3228
 30
0.0
 11
327.42
 21
22.3228
 31
0.0
  0
LINE
  8
0
 62
     0
 10
327.42
 20
22.3228
 30
0.0
 11
327.42
 21
28.2718
 31
0.0
  0
LINE
  8
0
 62
     0
 10
327.42
 20
28.2718
 30
0.0
 11
328.221
 21
28.2718
 31
0.0
  0
LINE
  8
0
 62
     0
 10
328.221
 20
28.2718
 30
0.0
 11
328.221
 21
31.2222
 31
0.0
  0
LINE
  8
0
 62
     0
 10
328.221
 20
31.2222
 30
0.0
 11
327.42
 21
31.2222
 31
0.0
  0
LINE
  8
0
 62
     0
 10
327.42
 20
31.2222
 30
0.0
 11
327.42
 21
32.2227
 31
0.0
  0
LINE
  8
0
 62
     0
 10
327.42
 20
32.2227
 30
0.0
 11
313.57
 21
32.2227
 31
0.0
  0
LINE
  8
0
 62
     0
 10
104.02
 20
41.7477
 30
0.0
 11
104.02
 21
40.7472
 31
0.0
  0
LINE
  8
0
 62
     0
 10
104.02
 20
40.7472
 30
0.0
 11
103.221
 21
40.7472
 31
0.0
  0
LINE
  8
0
 62
     0
 10
103.221
 20
40.7472
 30
0.0
 11
103.221
 21
37.797
 31
0.0
  0
LINE
  8
0
 62
     0
 10
103.221
 20
37.797
 30
0.0
 11
104.02
 21
37.797
 31
0.0
  0
LINE
  8
0
 62
     0
 10
104.02
 20
37.797
 30
0.0
 11
104.02
 21
31.8478
 31
0.0
  0
LINE
  8
0
 62
     0
 10
104.02
 20
31.8478
 30
0.0
 11
103.221
 21
31.8478
 31
0.0
  0
LINE
  8
0
 62
     0
 10
103.221
 20
31.8478
 30
0.0
 11
103.221
 21
28.8975
 31
0.0
  0
LINE
  8
0
 62
     0
 10
103.221
 20
28.8975
 30
0.0
 11
104.02
 21
28.8975
 31
0.0
  0
LINE
  8
0
 62
     0
 10
104.02
 20
28.8975
 30
0.0
 11
104.02
 21
27.897
 31
0.0
  0
LINE
  8
0
 62
     0
 10
104.02
 20
27.897
 30
0.0
 11
117.87
 21
27.897
 31
0.0
  0
LINE
  8
0
 62
     0
 10
117.87
 20
27.897
 30
0.0
 11
117.87
 21
28.8975
 31
0.0
  0
LINE
  8
0
 62
     0
 10
117.87
 20
28.8975
 30
0.0
 11
118.671
 21
28.8975
 31
0.0
  0
LINE
  8
0
 62
     0
 10
118.671
 20
28.8975
 30
0.0
 11
118.671
 21
31.8478
 31
0.0
  0
LINE
  8
0
 62
     0
 10
118.671
 20
31.8478
 30
0.0
 11
117.87
 21
31.8478
 31
0.0
  0
LINE
  8
0
 62
     0
 10
117.87
 20
31.8478
 30
0.0
 11
117.87
 21
37.797
 31
0.0
  0
LINE
  8
0
 62
     0
 10
117.87
 20
37.797
 30
0.0
 11
118.671
 21
37.797
 31
0.0
  0
LINE
  8
0
 62
     0
 10
118.671
 20
37.797
 30
0.0
 11
118.671
 21
40.7472
 31
0.0
  0
LINE
  8
0
 62
     0
 10
118.671
 20
40.7472
 30
0.0
 11
117.87
 21
40.7472
 31
0.0
  0
LINE
  8
0
 62
     0
 10
117.87
 20
40.7472
 30
0.0
 11
117.87
 21
41.7477
 31
0.0
  0
LINE
  8
0
 62
     0
 10
117.87
 20
41.7477
 30
0.0
 11
104.02
 21
41.7477
 31
0.0
  0
LINE
  8
0
 62
     0
 10
142.12
 20
41.7477
 30
0.0
 11
142.12
 21
40.7472
 31
0.0
  0
LINE
  8
0
 62
     0
 10
142.12
 20
40.7472
 30
0.0
 11
141.321
 21
40.7472
 31
0.0
  0
LINE
  8
0
 62
     0
 10
141.321
 20
40.7472
 30
0.0
 11
141.321
 21
37.797
 31
0.0
  0
LINE
  8
0
 62
     0
 10
141.321
 20
37.797
 30
0.0
 11
142.12
 21
37.797
 31
0.0
  0
LINE
  8
0
 62
     0
 10
142.12
 20
37.797
 30
0.0
 11
142.12
 21
31.8478
 31
0.0
  0
LINE
  8
0
 62
     0
 10
142.12
 20
31.8478
 30
0.0
 11
141.321
 21
31.8478
 31
0.0
  0
LINE
  8
0
 62
     0
 10
141.321
 20
31.8478
 30
0.0
 11
141.321
 21
28.8975
 31
0.0
  0
LINE
  8
0
 62
     0
 10
141.321
 20
28.8975
 30
0.0
 11
142.12
 21
28.8975
 31
0.0
  0
LINE
  8
0
 62
     0
 10
142.12
 20
28.8975
 30
0.0
 11
142.12
 21
27.897
 31
0.0
  0
LINE
  8
0
 62
     0
 10
142.12
 20
27.897
 30
0.0
 11
155.97
 21
27.897
 31
0.0
  0
LINE
  8
0
 62
     0
 10
155.97
 20
27.897
 30
0.0
 11
155.97
 21
28.8975
 31
0.0
  0
LINE
  8
0
 62
     0
 10
155.97
 20
28.8975
 30
0.0
 11
156.771
 21
28.8975
 31
0.0
  0
LINE
  8
0
 62
     0
 10
156.771
 20
28.8975
 30
0.0
 11
156.771
 21
31.8478
 31
0.0
  0
LINE
  8
0
 62
     0
 10
156.771
 20
31.8478
 30
0.0
 11
155.97
 21
31.8478
 31
0.0
  0
LINE
  8
0
 62
     0
 10
155.97
 20
31.8478
 30
0.0
 11
155.97
 21
37.797
 31
0.0
  0
LINE
  8
0
 62
     0
 10
155.97
 20
37.797
 30
0.0
 11
156.771
 21
37.797
 31
0.0
  0
LINE
  8
0
 62
     0
 10
156.771
 20
37.797
 30
0.0
 11
156.771
 21
40.7472
 31
0.0
  0
LINE
  8
0
 62
     0
 10
156.771
 20
40.7472
 30
0.0
 11
155.97
 21
40.7472
 31
0.0
  0
LINE
  8
0
 62
     0
 10
155.97
 20
40.7472
 30
0.0
 11
155.97
 21
41.7477
 31
0.0
  0
LINE
  8
0
 62
     0
 10
155.97
 20
41.7477
 30
0.0
 11
142.12
 21
41.7477
 31
0.0
  0
LINE
  8
0
 62
     0
 10
161.17
 20
41.7477
 30
0.0
 11
161.17
 21
40.7472
 31
0.0
  0
LINE
  8
0
 62
     0
 10
161.17
 20
40.7472
 30
0.0
 11
160.371
 21
40.7472
 31
0.0
  0
LINE
  8
0
 62
     0
 10
160.371
 20
40.7472
 30
0.0
 11
160.371
 21
37.797
 31
0.0
  0
LINE
  8
0
 62
     0
 10
160.371
 20
37.797
 30
0.0
 11
161.17
 21
37.797
 31
0.0
  0
LINE
  8
0
 62
     0
 10
161.17
 20
37.797
 30
0.0
 11
161.17
 21
31.8478
 31
0.0
  0
LINE
  8
0
 62
     0
 10
161.17
 20
31.8478
 30
0.0
 11
160.371
 21
31.8478
 31
0.0
  0
LINE
  8
0
 62
     0
 10
160.371
 20
31.8478
 30
0.0
 11
160.371
 21
28.8975
 31
0.0
  0
LINE
  8
0
 62
     0
 10
160.371
 20
28.8975
 30
0.0
 11
161.17
 21
28.8975
 31
0.0
  0
LINE
  8
0
 62
     0
 10
161.17
 20
28.8975
 30
0.0
 11
161.17
 21
27.897
 31
0.0
  0
LINE
  8
0
 62
     0
 10
161.17
 20
27.897
 30
0.0
 11
175.02
 21
27.897
 31
0.0
  0
LINE
  8
0
 62
     0
 10
175.02
 20
27.897
 30
0.0
 11
175.02
 21
28.8975
 31
0.0
  0
LINE
  8
0
 62
     0
 10
175.02
 20
28.8975
 30
0.0
 11
175.821
 21
28.8975
 31
0.0
  0
LINE
  8
0
 62
     0
 10
175.821
 20
28.8975
 30
0.0
 11
175.821
 21
31.8478
 31
0.0
  0
LINE
  8
0
 62
     0
 10
175.821
 20
31.8478
 30
0.0
 11
175.02
 21
31.8478
 31
0.0
  0
LINE
  8
0
 62
     0
 10
175.02
 20
31.8478
 30
0.0
 11
175.02
 21
37.797
 31
0.0
  0
LINE
  8
0
 62
     0
 10
175.02
 20
37.797
 30
0.0
 11
175.821
 21
37.797
 31
0.0
  0
LINE
  8
0
 62
     0
 10
175.821
 20
37.797
 30
0.0
 11
175.821
 21
40.7472
 31
0.0
  0
LINE
  8
0
 62
     0
 10
175.821
 20
40.7472
 30
0.0
 11
175.02
 21
40.7472
 31
0.0
  0
LINE
  8
0
 62
     0
 10
175.02
 20
40.7472
 30
0.0
 11
175.02
 21
41.7477
 31
0.0
  0
LINE
  8
0
 62
     0
 10
175.02
 20
41.7477
 30
0.0
 11
161.17
 21
41.7477
 31
0.0
  0
LINE
  8
0
 62
     0
 10
180.22
 20
41.7477
 30
0.0
 11
180.22
 21
40.7472
 31
0.0
  0
LINE
  8
0
 62
     0
 10
180.22
 20
40.7472
 30
0.0
 11
179.421
 21
40.7472
 31
0.0
  0
LINE
  8
0
 62
     0
 10
179.421
 20
40.7472
 30
0.0
 11
179.421
 21
37.797
 31
0.0
  0
LINE
  8
0
 62
     0
 10
179.421
 20
37.797
 30
0.0
 11
180.22
 21
37.797
 31
0.0
  0
LINE
  8
0
 62
     0
 10
180.22
 20
37.797
 30
0.0
 11
180.22
 21
31.8478
 31
0.0
  0
LINE
  8
0
 62
     0
 10
180.22
 20
31.8478
 30
0.0
 11
179.421
 21
31.8478
 31
0.0
  0
LINE
  8
0
 62
     0
 10
179.421
 20
31.8478
 30
0.0
 11
179.421
 21
28.8975
 31
0.0
  0
LINE
  8
0
 62
     0
 10
179.421
 20
28.8975
 30
0.0
 11
180.22
 21
28.8975
 31
0.0
  0
LINE
  8
0
 62
     0
 10
180.22
 20
28.8975
 30
0.0
 11
180.22
 21
27.897
 31
0.0
  0
LINE
  8
0
 62
     0
 10
180.22
 20
27.897
 30
0.0
 11
194.07
 21
27.897
 31
0.0
  0
LINE
  8
0
 62
     0
 10
194.07
 20
27.897
 30
0.0
 11
194.07
 21
28.8975
 31
0.0
  0
LINE
  8
0
 62
     0
 10
194.07
 20
28.8975
 30
0.0
 11
194.871
 21
28.8975
 31
0.0
  0
LINE
  8
0
 62
     0
 10
194.871
 20
28.8975
 30
0.0
 11
194.871
 21
31.8478
 31
0.0
  0
LINE
  8
0
 62
     0
 10
194.871
 20
31.8478
 30
0.0
 11
194.07
 21
31.8478
 31
0.0
  0
LINE
  8
0
 62
     0
 10
194.07
 20
31.8478
 30
0.0
 11
194.07
 21
37.797
 31
0.0
  0
LINE
  8
0
 62
     0
 10
194.07
 20
37.797
 30
0.0
 11
194.871
 21
37.797
 31
0.0
  0
LINE
  8
0
 62
     0
 10
194.871
 20
37.797
 30
0.0
 11
194.871
 21
40.7472
 31
0.0
  0
LINE
  8
0
 62
     0
 10
194.871
 20
40.7472
 30
0.0
 11
194.07
 21
40.7472
 31
0.0
  0
LINE
  8
0
 62
     0
 10
194.07
 20
40.7472
 30
0.0
 11
194.07
 21
41.7477
 31
0.0
  0
LINE
  8
0
 62
     0
 10
194.07
 20
41.7477
 30
0.0
 11
180.22
 21
41.7477
 31
0.0
  0
LINE
  8
0
 62
     0
 10
208.795
 20
41.7477
 30
0.0
 11
208.795
 21
40.7472
 31
0.0
  0
LINE
  8
0
 62
     0
 10
208.795
 20
40.7472
 30
0.0
 11
207.996
 21
40.7472
 31
0.0
  0
LINE
  8
0
 62
     0
 10
207.996
 20
40.7472
 30
0.0
 11
207.996
 21
37.797
 31
0.0
  0
LINE
  8
0
 62
     0
 10
207.996
 20
37.797
 30
0.0
 11
208.795
 21
37.797
 31
0.0
  0
LINE
  8
0
 62
     0
 10
208.795
 20
37.797
 30
0.0
 11
208.795
 21
31.8478
 31
0.0
  0
LINE
  8
0
 62
     0
 10
208.795
 20
31.8478
 30
0.0
 11
207.996
 21
31.8478
 31
0.0
  0
LINE
  8
0
 62
     0
 10
207.996
 20
31.8478
 30
0.0
 11
207.996
 21
28.8975
 31
0.0
  0
LINE
  8
0
 62
     0
 10
207.996
 20
28.8975
 30
0.0
 11
208.795
 21
28.8975
 31
0.0
  0
LINE
  8
0
 62
     0
 10
208.795
 20
28.8975
 30
0.0
 11
208.795
 21
27.897
 31
0.0
  0
LINE
  8
0
 62
     0
 10
208.795
 20
27.897
 30
0.0
 11
222.645
 21
27.897
 31
0.0
  0
LINE
  8
0
 62
     0
 10
222.645
 20
27.897
 30
0.0
 11
222.645
 21
28.8975
 31
0.0
  0
LINE
  8
0
 62
     0
 10
222.645
 20
28.8975
 30
0.0
 11
223.446
 21
28.8975
 31
0.0
  0
LINE
  8
0
 62
     0
 10
223.446
 20
28.8975
 30
0.0
 11
223.446
 21
31.8478
 31
0.0
  0
LINE
  8
0
 62
     0
 10
223.446
 20
31.8478
 30
0.0
 11
222.645
 21
31.8478
 31
0.0
  0
LINE
  8
0
 62
     0
 10
222.645
 20
31.8478
 30
0.0
 11
222.645
 21
37.797
 31
0.0
  0
LINE
  8
0
 62
     0
 10
222.645
 20
37.797
 30
0.0
 11
223.446
 21
37.797
 31
0.0
  0
LINE
  8
0
 62
     0
 10
223.446
 20
37.797
 30
0.0
 11
223.446
 21
40.7472
 31
0.0
  0
LINE
  8
0
 62
     0
 10
223.446
 20
40.7472
 30
0.0
 11
222.645
 21
40.7472
 31
0.0
  0
LINE
  8
0
 62
     0
 10
222.645
 20
40.7472
 30
0.0
 11
222.645
 21
41.7477
 31
0.0
  0
LINE
  8
0
 62
     0
 10
222.645
 20
41.7477
 30
0.0
 11
208.795
 21
41.7477
 31
0.0
  0
LINE
  8
0
 62
     0
 10
46.8697
 20
45.5581
 30
0.0
 11
46.8697
 21
44.5576
 31
0.0
  0
LINE
  8
0
 62
     0
 10
46.8697
 20
44.5576
 30
0.0
 11
46.0692
 21
44.5576
 31
0.0
  0
LINE
  8
0
 62
     0
 10
46.0692
 20
44.5576
 30
0.0
 11
46.0692
 21
41.607
 31
0.0
  0
LINE
  8
0
 62
     0
 10
46.0692
 20
41.607
 30
0.0
 11
46.8697
 21
41.607
 31
0.0
  0
LINE
  8
0
 62
     0
 10
46.8697
 20
41.607
 30
0.0
 11
46.8697
 21
35.6567
 31
0.0
  0
LINE
  8
0
 62
     0
 10
46.8697
 20
35.6567
 30
0.0
 11
46.0692
 21
35.6567
 31
0.0
  0
LINE
  8
0
 62
     0
 10
46.0692
 20
35.6567
 30
0.0
 11
46.0692
 21
32.7077
 31
0.0
  0
LINE
  8
0
 62
     0
 10
46.0692
 20
32.7077
 30
0.0
 11
46.8697
 21
32.7077
 31
0.0
  0
LINE
  8
0
 62
     0
 10
46.8697
 20
32.7077
 30
0.0
 11
46.8697
 21
31.7073
 31
0.0
  0
LINE
  8
0
 62
     0
 10
46.8697
 20
31.7073
 30
0.0
 11
60.7205
 21
31.7073
 31
0.0
  0
LINE
  8
0
 62
     0
 10
60.7205
 20
31.7073
 30
0.0
 11
60.7205
 21
32.7077
 31
0.0
  0
LINE
  8
0
 62
     0
 10
60.7205
 20
32.7077
 30
0.0
 11
61.5213
 21
32.7077
 31
0.0
  0
LINE
  8
0
 62
     0
 10
61.5213
 20
32.7077
 30
0.0
 11
61.5213
 21
35.6567
 31
0.0
  0
LINE
  8
0
 62
     0
 10
61.5213
 20
35.6567
 30
0.0
 11
60.7205
 21
35.6567
 31
0.0
  0
LINE
  8
0
 62
     0
 10
60.7205
 20
35.6567
 30
0.0
 11
60.7205
 21
41.607
 31
0.0
  0
LINE
  8
0
 62
     0
 10
60.7205
 20
41.607
 30
0.0
 11
61.5213
 21
41.607
 31
0.0
  0
LINE
  8
0
 62
     0
 10
61.5213
 20
41.607
 30
0.0
 11
61.5213
 21
44.5576
 31
0.0
  0
LINE
  8
0
 62
     0
 10
61.5213
 20
44.5576
 30
0.0
 11
60.7205
 21
44.5576
 31
0.0
  0
LINE
  8
0
 62
     0
 10
60.7205
 20
44.5576
 30
0.0
 11
60.7205
 21
45.5581
 31
0.0
  0
LINE
  8
0
 62
     0
 10
60.7205
 20
45.5581
 30
0.0
 11
46.8697
 21
45.5581
 31
0.0
  0
LINE
  8
0
 62
     0
 10
65.9197
 20
45.5581
 30
0.0
 11
65.9197
 21
44.5576
 31
0.0
  0
LINE
  8
0
 62
     0
 10
65.9197
 20
44.5576
 30
0.0
 11
65.1207
 21
44.5576
 31
0.0
  0
LINE
  8
0
 62
     0
 10
65.1207
 20
44.5576
 30
0.0
 11
65.1207
 21
41.607
 31
0.0
  0
LINE
  8
0
 62
     0
 10
65.1207
 20
41.607
 30
0.0
 11
65.9197
 21
41.607
 31
0.0
  0
LINE
  8
0
 62
     0
 10
65.9197
 20
41.607
 30
0.0
 11
65.9197
 21
35.6567
 31
0.0
  0
LINE
  8
0
 62
     0
 10
65.9197
 20
35.6567
 30
0.0
 11
65.1207
 21
35.6567
 31
0.0
  0
LINE
  8
0
 62
     0
 10
65.1207
 20
35.6567
 30
0.0
 11
65.1207
 21
32.7077
 31
0.0
  0
LINE
  8
0
 62
     0
 10
65.1207
 20
32.7077
 30
0.0
 11
65.9197
 21
32.7077
 31
0.0
  0
LINE
  8
0
 62
     0
 10
65.9197
 20
32.7077
 30
0.0
 11
65.9197
 21
31.7073
 31
0.0
  0
LINE
  8
0
 62
     0
 10
65.9197
 20
31.7073
 30
0.0
 11
79.7705
 21
31.7073
 31
0.0
  0
LINE
  8
0
 62
     0
 10
79.7705
 20
31.7073
 30
0.0
 11
79.7705
 21
32.7077
 31
0.0
  0
LINE
  8
0
 62
     0
 10
79.7705
 20
32.7077
 30
0.0
 11
80.5713
 21
32.7077
 31
0.0
  0
LINE
  8
0
 62
     0
 10
80.5713
 20
32.7077
 30
0.0
 11
80.5713
 21
35.6567
 31
0.0
  0
LINE
  8
0
 62
     0
 10
80.5713
 20
35.6567
 30
0.0
 11
79.7705
 21
35.6567
 31
0.0
  0
LINE
  8
0
 62
     0
 10
79.7705
 20
35.6567
 30
0.0
 11
79.7705
 21
41.607
 31
0.0
  0
LINE
  8
0
 62
     0
 10
79.7705
 20
41.607
 30
0.0
 11
80.5713
 21
41.607
 31
0.0
  0
LINE
  8
0
 62
     0
 10
80.5713
 20
41.607
 30
0.0
 11
80.5713
 21
44.5576
 31
0.0
  0
LINE
  8
0
 62
     0
 10
80.5713
 20
44.5576
 30
0.0
 11
79.7705
 21
44.5576
 31
0.0
  0
LINE
  8
0
 62
     0
 10
79.7705
 20
44.5576
 30
0.0
 11
79.7705
 21
45.5581
 31
0.0
  0
LINE
  8
0
 62
     0
 10
79.7705
 20
45.5581
 30
0.0
 11
65.9197
 21
45.5581
 31
0.0
  0
LINE
  8
0
 62
     0
 10
84.9697
 20
45.5581
 30
0.0
 11
84.9697
 21
44.5576
 31
0.0
  0
LINE
  8
0
 62
     0
 10
84.9697
 20
44.5576
 30
0.0
 11
84.1707
 21
44.5576
 31
0.0
  0
LINE
  8
0
 62
     0
 10
84.1707
 20
44.5576
 30
0.0
 11
84.1707
 21
41.607
 31
0.0
  0
LINE
  8
0
 62
     0
 10
84.1707
 20
41.607
 30
0.0
 11
84.9697
 21
41.607
 31
0.0
  0
LINE
  8
0
 62
     0
 10
84.9697
 20
41.607
 30
0.0
 11
84.9697
 21
35.6567
 31
0.0
  0
LINE
  8
0
 62
     0
 10
84.9697
 20
35.6567
 30
0.0
 11
84.1707
 21
35.6567
 31
0.0
  0
LINE
  8
0
 62
     0
 10
84.1707
 20
35.6567
 30
0.0
 11
84.1707
 21
32.7077
 31
0.0
  0
LINE
  8
0
 62
     0
 10
84.1707
 20
32.7077
 30
0.0
 11
84.9697
 21
32.7077
 31
0.0
  0
LINE
  8
0
 62
     0
 10
84.9697
 20
32.7077
 30
0.0
 11
84.9697
 21
31.7073
 31
0.0
  0
LINE
  8
0
 62
     0
 10
84.9697
 20
31.7073
 30
0.0
 11
98.8205
 21
31.7073
 31
0.0
  0
LINE
  8
0
 62
     0
 10
98.8205
 20
31.7073
 30
0.0
 11
98.8205
 21
32.7077
 31
0.0
  0
LINE
  8
0
 62
     0
 10
98.8205
 20
32.7077
 30
0.0
 11
99.6199
 21
32.7077
 31
0.0
  0
LINE
  8
0
 62
     0
 10
99.6199
 20
32.7077
 30
0.0
 11
99.6199
 21
35.6567
 31
0.0
  0
LINE
  8
0
 62
     0
 10
99.6199
 20
35.6567
 30
0.0
 11
98.8205
 21
35.6567
 31
0.0
  0
LINE
  8
0
 62
     0
 10
98.8205
 20
35.6567
 30
0.0
 11
98.8205
 21
41.607
 31
0.0
  0
LINE
  8
0
 62
     0
 10
98.8205
 20
41.607
 30
0.0
 11
99.6199
 21
41.607
 31
0.0
  0
LINE
  8
0
 62
     0
 10
99.6199
 20
41.607
 30
0.0
 11
99.6199
 21
44.5576
 31
0.0
  0
LINE
  8
0
 62
     0
 10
99.6199
 20
44.5576
 30
0.0
 11
98.8205
 21
44.5576
 31
0.0
  0
LINE
  8
0
 62
     0
 10
98.8205
 20
44.5576
 30
0.0
 11
98.8205
 21
45.5581
 31
0.0
  0
LINE
  8
0
 62
     0
 10
98.8205
 20
45.5581
 30
0.0
 11
84.9697
 21
45.5581
 31
0.0
  0
LINE
  8
0
 62
     0
 10
237.37
 20
45.5581
 30
0.0
 11
237.37
 21
44.5576
 31
0.0
  0
LINE
  8
0
 62
     0
 10
237.37
 20
44.5576
 30
0.0
 11
236.571
 21
44.5576
 31
0.0
  0
LINE
  8
0
 62
     0
 10
236.571
 20
44.5576
 30
0.0
 11
236.571
 21
41.607
 31
0.0
  0
LINE
  8
0
 62
     0
 10
236.571
 20
41.607
 30
0.0
 11
237.37
 21
41.607
 31
0.0
  0
LINE
  8
0
 62
     0
 10
237.37
 20
41.607
 30
0.0
 11
237.37
 21
35.6567
 31
0.0
  0
LINE
  8
0
 62
     0
 10
237.37
 20
35.6567
 30
0.0
 11
236.571
 21
35.6567
 31
0.0
  0
LINE
  8
0
 62
     0
 10
236.571
 20
35.6567
 30
0.0
 11
236.571
 21
32.7077
 31
0.0
  0
LINE
  8
0
 62
     0
 10
236.571
 20
32.7077
 30
0.0
 11
237.37
 21
32.7077
 31
0.0
  0
LINE
  8
0
 62
     0
 10
237.37
 20
32.7077
 30
0.0
 11
237.37
 21
31.7073
 31
0.0
  0
LINE
  8
0
 62
     0
 10
237.37
 20
31.7073
 30
0.0
 11
251.22
 21
31.7073
 31
0.0
  0
LINE
  8
0
 62
     0
 10
251.22
 20
31.7073
 30
0.0
 11
251.22
 21
32.7077
 31
0.0
  0
LINE
  8
0
 62
     0
 10
251.22
 20
32.7077
 30
0.0
 11
252.021
 21
32.7077
 31
0.0
  0
LINE
  8
0
 62
     0
 10
252.021
 20
32.7077
 30
0.0
 11
252.021
 21
35.6567
 31
0.0
  0
LINE
  8
0
 62
     0
 10
252.021
 20
35.6567
 30
0.0
 11
251.22
 21
35.6567
 31
0.0
  0
LINE
  8
0
 62
     0
 10
251.22
 20
35.6567
 30
0.0
 11
251.22
 21
41.607
 31
0.0
  0
LINE
  8
0
 62
     0
 10
251.22
 20
41.607
 30
0.0
 11
252.021
 21
41.607
 31
0.0
  0
LINE
  8
0
 62
     0
 10
252.021
 20
41.607
 30
0.0
 11
252.021
 21
44.5576
 31
0.0
  0
LINE
  8
0
 62
     0
 10
252.021
 20
44.5576
 30
0.0
 11
251.22
 21
44.5576
 31
0.0
  0
LINE
  8
0
 62
     0
 10
251.22
 20
44.5576
 30
0.0
 11
251.22
 21
45.5581
 31
0.0
  0
LINE
  8
0
 62
     0
 10
251.22
 20
45.5581
 30
0.0
 11
237.37
 21
45.5581
 31
0.0
  0
LINE
  8
0
 62
     0
 10
256.42
 20
45.5581
 30
0.0
 11
256.42
 21
44.5576
 31
0.0
  0
LINE
  8
0
 62
     0
 10
256.42
 20
44.5576
 30
0.0
 11
255.619
 21
44.5576
 31
0.0
  0
LINE
  8
0
 62
     0
 10
255.619
 20
44.5576
 30
0.0
 11
255.619
 21
41.607
 31
0.0
  0
LINE
  8
0
 62
     0
 10
255.619
 20
41.607
 30
0.0
 11
256.42
 21
41.607
 31
0.0
  0
LINE
  8
0
 62
     0
 10
256.42
 20
41.607
 30
0.0
 11
256.42
 21
35.6567
 31
0.0
  0
LINE
  8
0
 62
     0
 10
256.42
 20
35.6567
 30
0.0
 11
255.619
 21
35.6567
 31
0.0
  0
LINE
  8
0
 62
     0
 10
255.619
 20
35.6567
 30
0.0
 11
255.619
 21
32.7077
 31
0.0
  0
LINE
  8
0
 62
     0
 10
255.619
 20
32.7077
 30
0.0
 11
256.42
 21
32.7077
 31
0.0
  0
LINE
  8
0
 62
     0
 10
256.42
 20
32.7077
 30
0.0
 11
256.42
 21
31.7073
 31
0.0
  0
LINE
  8
0
 62
     0
 10
256.42
 20
31.7073
 30
0.0
 11
270.27
 21
31.7073
 31
0.0
  0
LINE
  8
0
 62
     0
 10
270.27
 20
31.7073
 30
0.0
 11
270.27
 21
32.7077
 31
0.0
  0
LINE
  8
0
 62
     0
 10
270.27
 20
32.7077
 30
0.0
 11
271.071
 21
32.7077
 31
0.0
  0
LINE
  8
0
 62
     0
 10
271.071
 20
32.7077
 30
0.0
 11
271.071
 21
35.6567
 31
0.0
  0
LINE
  8
0
 62
     0
 10
271.071
 20
35.6567
 30
0.0
 11
270.27
 21
35.6567
 31
0.0
  0
LINE
  8
0
 62
     0
 10
270.27
 20
35.6567
 30
0.0
 11
270.27
 21
41.607
 31
0.0
  0
LINE
  8
0
 62
     0
 10
270.27
 20
41.607
 30
0.0
 11
271.071
 21
41.607
 31
0.0
  0
LINE
  8
0
 62
     0
 10
271.071
 20
41.607
 30
0.0
 11
271.071
 21
44.5576
 31
0.0
  0
LINE
  8
0
 62
     0
 10
271.071
 20
44.5576
 30
0.0
 11
270.27
 21
44.5576
 31
0.0
  0
LINE
  8
0
 62
     0
 10
270.27
 20
44.5576
 30
0.0
 11
270.27
 21
45.5581
 31
0.0
  0
LINE
  8
0
 62
     0
 10
270.27
 20
45.5581
 30
0.0
 11
256.42
 21
45.5581
 31
0.0
  0
LINE
  8
0
 62
     0
 10
275.47
 20
45.5581
 30
0.0
 11
275.47
 21
44.5576
 31
0.0
  0
LINE
  8
0
 62
     0
 10
275.47
 20
44.5576
 30
0.0
 11
274.671
 21
44.5576
 31
0.0
  0
LINE
  8
0
 62
     0
 10
274.671
 20
44.5576
 30
0.0
 11
274.671
 21
41.607
 31
0.0
  0
LINE
  8
0
 62
     0
 10
274.671
 20
41.607
 30
0.0
 11
275.47
 21
41.607
 31
0.0
  0
LINE
  8
0
 62
     0
 10
275.47
 20
41.607
 30
0.0
 11
275.47
 21
35.6567
 31
0.0
  0
LINE
  8
0
 62
     0
 10
275.47
 20
35.6567
 30
0.0
 11
274.671
 21
35.6567
 31
0.0
  0
LINE
  8
0
 62
     0
 10
274.671
 20
35.6567
 30
0.0
 11
274.671
 21
32.7077
 31
0.0
  0
LINE
  8
0
 62
     0
 10
274.671
 20
32.7077
 30
0.0
 11
275.47
 21
32.7077
 31
0.0
  0
LINE
  8
0
 62
     0
 10
275.47
 20
32.7077
 30
0.0
 11
275.47
 21
31.7073
 31
0.0
  0
LINE
  8
0
 62
     0
 10
275.47
 20
31.7073
 30
0.0
 11
289.32
 21
31.7073
 31
0.0
  0
LINE
  8
0
 62
     0
 10
289.32
 20
31.7073
 30
0.0
 11
289.32
 21
32.7077
 31
0.0
  0
LINE
  8
0
 62
     0
 10
289.32
 20
32.7077
 30
0.0
 11
290.121
 21
32.7077
 31
0.0
  0
LINE
  8
0
 62
     0
 10
290.121
 20
32.7077
 30
0.0
 11
290.121
 21
35.6567
 31
0.0
  0
LINE
  8
0
 62
     0
 10
290.121
 20
35.6567
 30
0.0
 11
289.32
 21
35.6567
 31
0.0
  0
LINE
  8
0
 62
     0
 10
289.32
 20
35.6567
 30
0.0
 11
289.32
 21
41.607
 31
0.0
  0
LINE
  8
0
 62
     0
 10
289.32
 20
41.607
 30
0.0
 11
290.121
 21
41.607
 31
0.0
  0
LINE
  8
0
 62
     0
 10
290.121
 20
41.607
 30
0.0
 11
290.121
 21
44.5576
 31
0.0
  0
LINE
  8
0
 62
     0
 10
290.121
 20
44.5576
 30
0.0
 11
289.32
 21
44.5576
 31
0.0
  0
LINE
  8
0
 62
     0
 10
289.32
 20
44.5576
 30
0.0
 11
289.32
 21
45.5581
 31
0.0
  0
LINE
  8
0
 62
     0
 10
289.32
 20
45.5581
 30
0.0
 11
275.47
 21
45.5581
 31
0.0
  0
LINE
  8
0
 62
     0
 10
8.76984
 20
51.2727
 30
0.0
 11
8.76984
 21
50.2722
 31
0.0
  0
LINE
  8
0
 62
     0
 10
8.76984
 20
50.2722
 30
0.0
 11
7.97059
 21
50.2722
 31
0.0
  0
LINE
  8
0
 62
     0
 10
7.97059
 20
50.2722
 30
0.0
 11
7.97059
 21
47.322
 31
0.0
  0
LINE
  8
0
 62
     0
 10
7.97059
 20
47.322
 30
0.0
 11
8.76984
 21
47.322
 31
0.0
  0
LINE
  8
0
 62
     0
 10
8.76984
 20
47.322
 30
0.0
 11
8.76984
 21
41.3727
 31
0.0
  0
LINE
  8
0
 62
     0
 10
8.76984
 20
41.3727
 30
0.0
 11
7.97059
 21
41.3727
 31
0.0
  0
LINE
  8
0
 62
     0
 10
7.97059
 20
41.3727
 30
0.0
 11
7.97059
 21
38.4224
 31
0.0
  0
LINE
  8
0
 62
     0
 10
7.97059
 20
38.4224
 30
0.0
 11
8.76984
 21
38.4224
 31
0.0
  0
LINE
  8
0
 62
     0
 10
8.76984
 20
38.4224
 30
0.0
 11
8.76984
 21
37.422
 31
0.0
  0
LINE
  8
0
 62
     0
 10
8.76984
 20
37.422
 30
0.0
 11
22.6205
 21
37.422
 31
0.0
  0
LINE
  8
0
 62
     0
 10
22.6205
 20
37.422
 30
0.0
 11
22.6205
 21
38.4224
 31
0.0
  0
LINE
  8
0
 62
     0
 10
22.6205
 20
38.4224
 30
0.0
 11
23.4211
 21
38.4224
 31
0.0
  0
LINE
  8
0
 62
     0
 10
23.4211
 20
38.4224
 30
0.0
 11
23.4211
 21
41.3727
 31
0.0
  0
LINE
  8
0
 62
     0
 10
23.4211
 20
41.3727
 30
0.0
 11
22.6205
 21
41.3727
 31
0.0
  0
LINE
  8
0
 62
     0
 10
22.6205
 20
41.3727
 30
0.0
 11
22.6205
 21
47.322
 31
0.0
  0
LINE
  8
0
 62
     0
 10
22.6205
 20
47.322
 30
0.0
 11
23.4211
 21
47.322
 31
0.0
  0
LINE
  8
0
 62
     0
 10
23.4211
 20
47.322
 30
0.0
 11
23.4211
 21
50.2722
 31
0.0
  0
LINE
  8
0
 62
     0
 10
23.4211
 20
50.2722
 30
0.0
 11
22.6205
 21
50.2722
 31
0.0
  0
LINE
  8
0
 62
     0
 10
22.6205
 20
50.2722
 30
0.0
 11
22.6205
 21
51.2727
 31
0.0
  0
LINE
  8
0
 62
     0
 10
22.6205
 20
51.2727
 30
0.0
 11
8.76984
 21
51.2727
 31
0.0
  0
LINE
  8
0
 62
     0
 10
27.8198
 20
51.2727
 30
0.0
 11
27.8198
 21
50.2722
 31
0.0
  0
LINE
  8
0
 62
     0
 10
27.8198
 20
50.2722
 30
0.0
 11
27.0206
 21
50.2722
 31
0.0
  0
LINE
  8
0
 62
     0
 10
27.0206
 20
50.2722
 30
0.0
 11
27.0206
 21
47.322
 31
0.0
  0
LINE
  8
0
 62
     0
 10
27.0206
 20
47.322
 30
0.0
 11
27.8198
 21
47.322
 31
0.0
  0
LINE
  8
0
 62
     0
 10
27.8198
 20
47.322
 30
0.0
 11
27.8198
 21
41.3727
 31
0.0
  0
LINE
  8
0
 62
     0
 10
27.8198
 20
41.3727
 30
0.0
 11
27.0206
 21
41.3727
 31
0.0
  0
LINE
  8
0
 62
     0
 10
27.0206
 20
41.3727
 30
0.0
 11
27.0206
 21
38.4224
 31
0.0
  0
LINE
  8
0
 62
     0
 10
27.0206
 20
38.4224
 30
0.0
 11
27.8198
 21
38.4224
 31
0.0
  0
LINE
  8
0
 62
     0
 10
27.8198
 20
38.4224
 30
0.0
 11
27.8198
 21
37.422
 31
0.0
  0
LINE
  8
0
 62
     0
 10
27.8198
 20
37.422
 30
0.0
 11
41.6705
 21
37.422
 31
0.0
  0
LINE
  8
0
 62
     0
 10
41.6705
 20
37.422
 30
0.0
 11
41.6705
 21
38.4224
 31
0.0
  0
LINE
  8
0
 62
     0
 10
41.6705
 20
38.4224
 30
0.0
 11
42.4713
 21
38.4224
 31
0.0
  0
LINE
  8
0
 62
     0
 10
42.4713
 20
38.4224
 30
0.0
 11
42.4713
 21
41.3727
 31
0.0
  0
LINE
  8
0
 62
     0
 10
42.4713
 20
41.3727
 30
0.0
 11
41.6705
 21
41.3727
 31
0.0
  0
LINE
  8
0
 62
     0
 10
41.6705
 20
41.3727
 30
0.0
 11
41.6705
 21
47.322
 31
0.0
  0
LINE
  8
0
 62
     0
 10
41.6705
 20
47.322
 30
0.0
 11
42.4713
 21
47.322
 31
0.0
  0
LINE
  8
0
 62
     0
 10
42.4713
 20
47.322
 30
0.0
 11
42.4713
 21
50.2722
 31
0.0
  0
LINE
  8
0
 62
     0
 10
42.4713
 20
50.2722
 30
0.0
 11
41.6705
 21
50.2722
 31
0.0
  0
LINE
  8
0
 62
     0
 10
41.6705
 20
50.2722
 30
0.0
 11
41.6705
 21
51.2727
 31
0.0
  0
LINE
  8
0
 62
     0
 10
41.6705
 20
51.2727
 30
0.0
 11
27.8198
 21
51.2727
 31
0.0
  0
LINE
  8
0
 62
     0
 10
294.52
 20
51.2727
 30
0.0
 11
294.52
 21
50.2722
 31
0.0
  0
LINE
  8
0
 62
     0
 10
294.52
 20
50.2722
 30
0.0
 11
293.721
 21
50.2722
 31
0.0
  0
LINE
  8
0
 62
     0
 10
293.721
 20
50.2722
 30
0.0
 11
293.721
 21
47.322
 31
0.0
  0
LINE
  8
0
 62
     0
 10
293.721
 20
47.322
 30
0.0
 11
294.52
 21
47.322
 31
0.0
  0
LINE
  8
0
 62
     0
 10
294.52
 20
47.322
 30
0.0
 11
294.52
 21
41.3727
 31
0.0
  0
LINE
  8
0
 62
     0
 10
294.52
 20
41.3727
 30
0.0
 11
293.721
 21
41.3727
 31
0.0
  0
LINE
  8
0
 62
     0
 10
293.721
 20
41.3727
 30
0.0
 11
293.721
 21
38.4224
 31
0.0
  0
LINE
  8
0
 62
     0
 10
293.721
 20
38.4224
 30
0.0
 11
294.52
 21
38.4224
 31
0.0
  0
LINE
  8
0
 62
     0
 10
294.52
 20
38.4224
 30
0.0
 11
294.52
 21
37.422
 31
0.0
  0
LINE
  8
0
 62
     0
 10
294.52
 20
37.422
 30
0.0
 11
308.37
 21
37.422
 31
0.0
  0
LINE
  8
0
 62
     0
 10
308.37
 20
37.422
 30
0.0
 11
308.37
 21
38.4224
 31
0.0
  0
LINE
  8
0
 62
     0
 10
308.37
 20
38.4224
 30
0.0
 11
309.171
 21
38.4224
 31
0.0
  0
LINE
  8
0
 62
     0
 10
309.171
 20
38.4224
 30
0.0
 11
309.171
 21
41.3727
 31
0.0
  0
LINE
  8
0
 62
     0
 10
309.171
 20
41.3727
 30
0.0
 11
308.37
 21
41.3727
 31
0.0
  0
LINE
  8
0
 62
     0
 10
308.37
 20
41.3727
 30
0.0
 11
308.37
 21
47.322
 31
0.0
  0
LINE
  8
0
 62
     0
 10
308.37
 20
47.322
 30
0.0
 11
309.171
 21
47.322
 31
0.0
  0
LINE
  8
0
 62
     0
 10
309.171
 20
47.322
 30
0.0
 11
309.171
 21
50.2722
 31
0.0
  0
LINE
  8
0
 62
     0
 10
309.171
 20
50.2722
 30
0.0
 11
308.37
 21
50.2722
 31
0.0
  0
LINE
  8
0
 62
     0
 10
308.37
 20
50.2722
 30
0.0
 11
308.37
 21
51.2727
 31
0.0
  0
LINE
  8
0
 62
     0
 10
308.37
 20
51.2727
 30
0.0
 11
294.52
 21
51.2727
 31
0.0
  0
LINE
  8
0
 62
     0
 10
313.57
 20
51.2727
 30
0.0
 11
313.57
 21
50.2722
 31
0.0
  0
LINE
  8
0
 62
     0
 10
313.57
 20
50.2722
 30
0.0
 11
312.771
 21
50.2722
 31
0.0
  0
LINE
  8
0
 62
     0
 10
312.771
 20
50.2722
 30
0.0
 11
312.771
 21
47.322
 31
0.0
  0
LINE
  8
0
 62
     0
 10
312.771
 20
47.322
 30
0.0
 11
313.57
 21
47.322
 31
0.0
  0
LINE
  8
0
 62
     0
 10
313.57
 20
47.322
 30
0.0
 11
313.57
 21
41.3727
 31
0.0
  0
LINE
  8
0
 62
     0
 10
313.57
 20
41.3727
 30
0.0
 11
312.771
 21
41.3727
 31
0.0
  0
LINE
  8
0
 62
     0
 10
312.771
 20
41.3727
 30
0.0
 11
312.771
 21
38.4224
 31
0.0
  0
LINE
  8
0
 62
     0
 10
312.771
 20
38.4224
 30
0.0
 11
313.57
 21
38.4224
 31
0.0
  0
LINE
  8
0
 62
     0
 10
313.57
 20
38.4224
 30
0.0
 11
313.57
 21
37.422
 31
0.0
  0
LINE
  8
0
 62
     0
 10
313.57
 20
37.422
 30
0.0
 11
327.42
 21
37.422
 31
0.0
  0
LINE
  8
0
 62
     0
 10
327.42
 20
37.422
 30
0.0
 11
327.42
 21
38.4224
 31
0.0
  0
LINE
  8
0
 62
     0
 10
327.42
 20
38.4224
 30
0.0
 11
328.221
 21
38.4224
 31
0.0
  0
LINE
  8
0
 62
     0
 10
328.221
 20
38.4224
 30
0.0
 11
328.221
 21
41.3727
 31
0.0
  0
LINE
  8
0
 62
     0
 10
328.221
 20
41.3727
 30
0.0
 11
327.42
 21
41.3727
 31
0.0
  0
LINE
  8
0
 62
     0
 10
327.42
 20
41.3727
 30
0.0
 11
327.42
 21
47.322
 31
0.0
  0
LINE
  8
0
 62
     0
 10
327.42
 20
47.322
 30
0.0
 11
328.221
 21
47.322
 31
0.0
  0
LINE
  8
0
 62
     0
 10
328.221
 20
47.322
 30
0.0
 11
328.221
 21
50.2722
 31
0.0
  0
LINE
  8
0
 62
     0
 10
328.221
 20
50.2722
 30
0.0
 11
327.42
 21
50.2722
 31
0.0
  0
LINE
  8
0
 62
     0
 10
327.42
 20
50.2722
 30
0.0
 11
327.42
 21
51.2727
 31
0.0
  0
LINE
  8
0
 62
     0
 10
327.42
 20
51.2727
 30
0.0
 11
313.57
 21
51.2727
 31
0.0
  0
LINE
  8
0
 62
     0
 10
104.02
 20
60.7977
 30
0.0
 11
104.02
 21
59.7972
 31
0.0
  0
LINE
  8
0
 62
     0
 10
104.02
 20
59.7972
 30
0.0
 11
103.221
 21
59.7972
 31
0.0
  0
LINE
  8
0
 62
     0
 10
103.221
 20
59.7972
 30
0.0
 11
103.221
 21
56.847
 31
0.0
  0
LINE
  8
0
 62
     0
 10
103.221
 20
56.847
 30
0.0
 11
104.02
 21
56.847
 31
0.0
  0
LINE
  8
0
 62
     0
 10
104.02
 20
56.847
 30
0.0
 11
104.02
 21
50.8977
 31
0.0
  0
LINE
  8
0
 62
     0
 10
104.02
 20
50.8977
 30
0.0
 11
103.221
 21
50.8977
 31
0.0
  0
LINE
  8
0
 62
     0
 10
103.221
 20
50.8977
 30
0.0
 11
103.221
 21
47.9474
 31
0.0
  0
LINE
  8
0
 62
     0
 10
103.221
 20
47.9474
 30
0.0
 11
104.02
 21
47.9474
 31
0.0
  0
LINE
  8
0
 62
     0
 10
104.02
 20
47.9474
 30
0.0
 11
104.02
 21
46.947
 31
0.0
  0
LINE
  8
0
 62
     0
 10
104.02
 20
46.947
 30
0.0
 11
117.87
 21
46.947
 31
0.0
  0
LINE
  8
0
 62
     0
 10
117.87
 20
46.947
 30
0.0
 11
117.87
 21
47.9474
 31
0.0
  0
LINE
  8
0
 62
     0
 10
117.87
 20
47.9474
 30
0.0
 11
118.671
 21
47.9474
 31
0.0
  0
LINE
  8
0
 62
     0
 10
118.671
 20
47.9474
 30
0.0
 11
118.671
 21
50.8977
 31
0.0
  0
LINE
  8
0
 62
     0
 10
118.671
 20
50.8977
 30
0.0
 11
117.87
 21
50.8977
 31
0.0
  0
LINE
  8
0
 62
     0
 10
117.87
 20
50.8977
 30
0.0
 11
117.87
 21
56.847
 31
0.0
  0
LINE
  8
0
 62
     0
 10
117.87
 20
56.847
 30
0.0
 11
118.671
 21
56.847
 31
0.0
  0
LINE
  8
0
 62
     0
 10
118.671
 20
56.847
 30
0.0
 11
118.671
 21
59.7972
 31
0.0
  0
LINE
  8
0
 62
     0
 10
118.671
 20
59.7972
 30
0.0
 11
117.87
 21
59.7972
 31
0.0
  0
LINE
  8
0
 62
     0
 10
117.87
 20
59.7972
 30
0.0
 11
117.87
 21
60.7977
 31
0.0
  0
LINE
  8
0
 62
     0
 10
117.87
 20
60.7977
 30
0.0
 11
104.02
 21
60.7977
 31
0.0
  0
LINE
  8
0
 62
     0
 10
218.32
 20
60.7977
 30
0.0
 11
218.32
 21
59.7972
 31
0.0
  0
LINE
  8
0
 62
     0
 10
218.32
 20
59.7972
 30
0.0
 11
217.521
 21
59.7972
 31
0.0
  0
LINE
  8
0
 62
     0
 10
217.521
 20
59.7972
 30
0.0
 11
217.521
 21
56.847
 31
0.0
  0
LINE
  8
0
 62
     0
 10
217.521
 20
56.847
 30
0.0
 11
218.32
 21
56.847
 31
0.0
  0
LINE
  8
0
 62
     0
 10
218.32
 20
56.847
 30
0.0
 11
218.32
 21
50.8977
 31
0.0
  0
LINE
  8
0
 62
     0
 10
218.32
 20
50.8977
 30
0.0
 11
217.521
 21
50.8977
 31
0.0
  0
LINE
  8
0
 62
     0
 10
217.521
 20
50.8977
 30
0.0
 11
217.521
 21
47.9474
 31
0.0
  0
LINE
  8
0
 62
     0
 10
217.521
 20
47.9474
 30
0.0
 11
218.32
 21
47.9474
 31
0.0
  0
LINE
  8
0
 62
     0
 10
218.32
 20
47.9474
 30
0.0
 11
218.32
 21
46.947
 31
0.0
  0
LINE
  8
0
 62
     0
 10
218.32
 20
46.947
 30
0.0
 11
232.17
 21
46.947
 31
0.0
  0
LINE
  8
0
 62
     0
 10
232.17
 20
46.947
 30
0.0
 11
232.17
 21
47.9474
 31
0.0
  0
LINE
  8
0
 62
     0
 10
232.17
 20
47.9474
 30
0.0
 11
232.971
 21
47.9474
 31
0.0
  0
LINE
  8
0
 62
     0
 10
232.971
 20
47.9474
 30
0.0
 11
232.971
 21
50.8977
 31
0.0
  0
LINE
  8
0
 62
     0
 10
232.971
 20
50.8977
 30
0.0
 11
232.17
 21
50.8977
 31
0.0
  0
LINE
  8
0
 62
     0
 10
232.17
 20
50.8977
 30
0.0
 11
232.17
 21
56.847
 31
0.0
  0
LINE
  8
0
 62
     0
 10
232.17
 20
56.847
 30
0.0
 11
232.971
 21
56.847
 31
0.0
  0
LINE
  8
0
 62
     0
 10
232.971
 20
56.847
 30
0.0
 11
232.971
 21
59.7972
 31
0.0
  0
LINE
  8
0
 62
     0
 10
232.971
 20
59.7972
 30
0.0
 11
232.17
 21
59.7972
 31
0.0
  0
LINE
  8
0
 62
     0
 10
232.17
 20
59.7972
 30
0.0
 11
232.17
 21
60.7977
 31
0.0
  0
LINE
  8
0
 62
     0
 10
232.17
 20
60.7977
 30
0.0
 11
218.32
 21
60.7977
 31
0.0
  0
LINE
  8
0
 62
     0
 10
46.8697
 20
64.6081
 30
0.0
 11
46.8697
 21
63.6076
 31
0.0
  0
LINE
  8
0
 62
     0
 10
46.8697
 20
63.6076
 30
0.0
 11
46.0692
 21
63.6076
 31
0.0
  0
LINE
  8
0
 62
     0
 10
46.0692
 20
63.6076
 30
0.0
 11
46.0692
 21
60.657
 31
0.0
  0
LINE
  8
0
 62
     0
 10
46.0692
 20
60.657
 30
0.0
 11
46.8697
 21
60.657
 31
0.0
  0
LINE
  8
0
 62
     0
 10
46.8697
 20
60.657
 30
0.0
 11
46.8697
 21
54.7067
 31
0.0
  0
LINE
  8
0
 62
     0
 10
46.8697
 20
54.7067
 30
0.0
 11
46.0692
 21
54.7067
 31
0.0
  0
LINE
  8
0
 62
     0
 10
46.0692
 20
54.7067
 30
0.0
 11
46.0692
 21
51.7578
 31
0.0
  0
LINE
  8
0
 62
     0
 10
46.0692
 20
51.7578
 30
0.0
 11
46.8697
 21
51.7578
 31
0.0
  0
LINE
  8
0
 62
     0
 10
46.8697
 20
51.7578
 30
0.0
 11
46.8697
 21
50.7573
 31
0.0
  0
LINE
  8
0
 62
     0
 10
46.8697
 20
50.7573
 30
0.0
 11
60.7205
 21
50.7573
 31
0.0
  0
LINE
  8
0
 62
     0
 10
60.7205
 20
50.7573
 30
0.0
 11
60.7205
 21
51.7578
 31
0.0
  0
LINE
  8
0
 62
     0
 10
60.7205
 20
51.7578
 30
0.0
 11
61.5213
 21
51.7578
 31
0.0
  0
LINE
  8
0
 62
     0
 10
61.5213
 20
51.7578
 30
0.0
 11
61.5213
 21
54.7067
 31
0.0
  0
LINE
  8
0
 62
     0
 10
61.5213
 20
54.7067
 30
0.0
 11
60.7205
 21
54.7067
 31
0.0
  0
LINE
  8
0
 62
     0
 10
60.7205
 20
54.7067
 30
0.0
 11
60.7205
 21
60.657
 31
0.0
  0
LINE
  8
0
 62
     0
 10
60.7205
 20
60.657
 30
0.0
 11
61.5213
 21
60.657
 31
0.0
  0
LINE
  8
0
 62
     0
 10
61.5213
 20
60.657
 30
0.0
 11
61.5213
 21
63.6076
 31
0.0
  0
LINE
  8
0
 62
     0
 10
61.5213
 20
63.6076
 30
0.0
 11
60.7205
 21
63.6076
 31
0.0
  0
LINE
  8
0
 62
     0
 10
60.7205
 20
63.6076
 30
0.0
 11
60.7205
 21
64.6081
 31
0.0
  0
LINE
  8
0
 62
     0
 10
60.7205
 20
64.6081
 30
0.0
 11
46.8697
 21
64.6081
 31
0.0
  0
LINE
  8
0
 62
     0
 10
65.9197
 20
64.6081
 30
0.0
 11
65.9197
 21
63.6076
 31
0.0
  0
LINE
  8
0
 62
     0
 10
65.9197
 20
63.6076
 30
0.0
 11
65.1207
 21
63.6076
 31
0.0
  0
LINE
  8
0
 62
     0
 10
65.1207
 20
63.6076
 30
0.0
 11
65.1207
 21
60.657
 31
0.0
  0
LINE
  8
0
 62
     0
 10
65.1207
 20
60.657
 30
0.0
 11
65.9197
 21
60.657
 31
0.0
  0
LINE
  8
0
 62
     0
 10
65.9197
 20
60.657
 30
0.0
 11
65.9197
 21
54.7067
 31
0.0
  0
LINE
  8
0
 62
     0
 10
65.9197
 20
54.7067
 30
0.0
 11
65.1207
 21
54.7067
 31
0.0
  0
LINE
  8
0
 62
     0
 10
65.1207
 20
54.7067
 30
0.0
 11
65.1207
 21
51.7578
 31
0.0
  0
LINE
  8
0
 62
     0
 10
65.1207
 20
51.7578
 30
0.0
 11
65.9197
 21
51.7578
 31
0.0
  0
LINE
  8
0
 62
     0
 10
65.9197
 20
51.7578
 30
0.0
 11
65.9197
 21
50.7573
 31
0.0
  0
LINE
  8
0
 62
     0
 10
65.9197
 20
50.7573
 30
0.0
 11
79.7705
 21
50.7573
 31
0.0
  0
LINE
  8
0
 62
     0
 10
79.7705
 20
50.7573
 30
0.0
 11
79.7705
 21
51.7578
 31
0.0
  0
LINE
  8
0
 62
     0
 10
79.7705
 20
51.7578
 30
0.0
 11
80.5713
 21
51.7578
 31
0.0
  0
LINE
  8
0
 62
     0
 10
80.5713
 20
51.7578
 30
0.0
 11
80.5713
 21
54.7067
 31
0.0
  0
LINE
  8
0
 62
     0
 10
80.5713
 20
54.7067
 30
0.0
 11
79.7705
 21
54.7067
 31
0.0
  0
LINE
  8
0
 62
     0
 10
79.7705
 20
54.7067
 30
0.0
 11
79.7705
 21
60.657
 31
0.0
  0
LINE
  8
0
 62
     0
 10
79.7705
 20
60.657
 30
0.0
 11
80.5713
 21
60.657
 31
0.0
  0
LINE
  8
0
 62
     0
 10
80.5713
 20
60.657
 30
0.0
 11
80.5713
 21
63.6076
 31
0.0
  0
LINE
  8
0
 62
     0
 10
80.5713
 20
63.6076
 30
0.0
 11
79.7705
 21
63.6076
 31
0.0
  0
LINE
  8
0
 62
     0
 10
79.7705
 20
63.6076
 30
0.0
 11
79.7705
 21
64.6081
 31
0.0
  0
LINE
  8
0
 62
     0
 10
79.7705
 20
64.6081
 30
0.0
 11
65.9197
 21
64.6081
 31
0.0
  0
LINE
  8
0
 62
     0
 10
84.9697
 20
64.6081
 30
0.0
 11
84.9697
 21
63.6076
 31
0.0
  0
LINE
  8
0
 62
     0
 10
84.9697
 20
63.6076
 30
0.0
 11
84.1707
 21
63.6076
 31
0.0
  0
LINE
  8
0
 62
     0
 10
84.1707
 20
63.6076
 30
0.0
 11
84.1707
 21
60.657
 31
0.0
  0
LINE
  8
0
 62
     0
 10
84.1707
 20
60.657
 30
0.0
 11
84.9697
 21
60.657
 31
0.0
  0
LINE
  8
0
 62
     0
 10
84.9697
 20
60.657
 30
0.0
 11
84.9697
 21
54.7067
 31
0.0
  0
LINE
  8
0
 62
     0
 10
84.9697
 20
54.7067
 30
0.0
 11
84.1707
 21
54.7067
 31
0.0
  0
LINE
  8
0
 62
     0
 10
84.1707
 20
54.7067
 30
0.0
 11
84.1707
 21
51.7578
 31
0.0
  0
LINE
  8
0
 62
     0
 10
84.1707
 20
51.7578
 30
0.0
 11
84.9697
 21
51.7578
 31
0.0
  0
LINE
  8
0
 62
     0
 10
84.9697
 20
51.7578
 30
0.0
 11
84.9697
 21
50.7573
 31
0.0
  0
LINE
  8
0
 62
     0
 10
84.9697
 20
50.7573
 30
0.0
 11
98.8205
 21
50.7573
 31
0.0
  0
LINE
  8
0
 62
     0
 10
98.8205
 20
50.7573
 30
0.0
 11
98.8205
 21
51.7578
 31
0.0
  0
LINE
  8
0
 62
     0
 10
98.8205
 20
51.7578
 30
0.0
 11
99.6199
 21
51.7578
 31
0.0
  0
LINE
  8
0
 62
     0
 10
99.6199
 20
51.7578
 30
0.0
 11
99.6199
 21
54.7067
 31
0.0
  0
LINE
  8
0
 62
     0
 10
99.6199
 20
54.7067
 30
0.0
 11
98.8205
 21
54.7067
 31
0.0
  0
LINE
  8
0
 62
     0
 10
98.8205
 20
54.7067
 30
0.0
 11
98.8205
 21
60.657
 31
0.0
  0
LINE
  8
0
 62
     0
 10
98.8205
 20
60.657
 30
0.0
 11
99.6199
 21
60.657
 31
0.0
  0
LINE
  8
0
 62
     0
 10
99.6199
 20
60.657
 30
0.0
 11
99.6199
 21
63.6076
 31
0.0
  0
LINE
  8
0
 62
     0
 10
99.6199
 20
63.6076
 30
0.0
 11
98.8205
 21
63.6076
 31
0.0
  0
LINE
  8
0
 62
     0
 10
98.8205
 20
63.6076
 30
0.0
 11
98.8205
 21
64.6081
 31
0.0
  0
LINE
  8
0
 62
     0
 10
98.8205
 20
64.6081
 30
0.0
 11
84.9697
 21
64.6081
 31
0.0
  0
LINE
  8
0
 62
     0
 10
237.37
 20
64.6081
 30
0.0
 11
237.37
 21
63.6076
 31
0.0
  0
LINE
  8
0
 62
     0
 10
237.37
 20
63.6076
 30
0.0
 11
236.571
 21
63.6076
 31
0.0
  0
LINE
  8
0
 62
     0
 10
236.571
 20
63.6076
 30
0.0
 11
236.571
 21
60.657
 31
0.0
  0
LINE
  8
0
 62
     0
 10
236.571
 20
60.657
 30
0.0
 11
237.37
 21
60.657
 31
0.0
  0
LINE
  8
0
 62
     0
 10
237.37
 20
60.657
 30
0.0
 11
237.37
 21
54.7067
 31
0.0
  0
LINE
  8
0
 62
     0
 10
237.37
 20
54.7067
 30
0.0
 11
236.571
 21
54.7067
 31
0.0
  0
LINE
  8
0
 62
     0
 10
236.571
 20
54.7067
 30
0.0
 11
236.571
 21
51.7578
 31
0.0
  0
LINE
  8
0
 62
     0
 10
236.571
 20
51.7578
 30
0.0
 11
237.37
 21
51.7578
 31
0.0
  0
LINE
  8
0
 62
     0
 10
237.37
 20
51.7578
 30
0.0
 11
237.37
 21
50.7573
 31
0.0
  0
LINE
  8
0
 62
     0
 10
237.37
 20
50.7573
 30
0.0
 11
251.22
 21
50.7573
 31
0.0
  0
LINE
  8
0
 62
     0
 10
251.22
 20
50.7573
 30
0.0
 11
251.22
 21
51.7578
 31
0.0
  0
LINE
  8
0
 62
     0
 10
251.22
 20
51.7578
 30
0.0
 11
252.021
 21
51.7578
 31
0.0
  0
LINE
  8
0
 62
     0
 10
252.021
 20
51.7578
 30
0.0
 11
252.021
 21
54.7067
 31
0.0
  0
LINE
  8
0
 62
     0
 10
252.021
 20
54.7067
 30
0.0
 11
251.22
 21
54.7067
 31
0.0
  0
LINE
  8
0
 62
     0
 10
251.22
 20
54.7067
 30
0.0
 11
251.22
 21
60.657
 31
0.0
  0
LINE
  8
0
 62
     0
 10
251.22
 20
60.657
 30
0.0
 11
252.021
 21
60.657
 31
0.0
  0
LINE
  8
0
 62
     0
 10
252.021
 20
60.657
 30
0.0
 11
252.021
 21
63.6076
 31
0.0
  0
LINE
  8
0
 62
     0
 10
252.021
 20
63.6076
 30
0.0
 11
251.22
 21
63.6076
 31
0.0
  0
LINE
  8
0
 62
     0
 10
251.22
 20
63.6076
 30
0.0
 11
251.22
 21
64.6081
 31
0.0
  0
LINE
  8
0
 62
     0
 10
251.22
 20
64.6081
 30
0.0
 11
237.37
 21
64.6081
 31
0.0
  0
LINE
  8
0
 62
     0
 10
256.42
 20
64.6081
 30
0.0
 11
256.42
 21
63.6076
 31
0.0
  0
LINE
  8
0
 62
     0
 10
256.42
 20
63.6076
 30
0.0
 11
255.619
 21
63.6076
 31
0.0
  0
LINE
  8
0
 62
     0
 10
255.619
 20
63.6076
 30
0.0
 11
255.619
 21
60.657
 31
0.0
  0
LINE
  8
0
 62
     0
 10
255.619
 20
60.657
 30
0.0
 11
256.42
 21
60.657
 31
0.0
  0
LINE
  8
0
 62
     0
 10
256.42
 20
60.657
 30
0.0
 11
256.42
 21
54.7067
 31
0.0
  0
LINE
  8
0
 62
     0
 10
256.42
 20
54.7067
 30
0.0
 11
255.619
 21
54.7067
 31
0.0
  0
LINE
  8
0
 62
     0
 10
255.619
 20
54.7067
 30
0.0
 11
255.619
 21
51.7578
 31
0.0
  0
LINE
  8
0
 62
     0
 10
255.619
 20
51.7578
 30
0.0
 11
256.42
 21
51.7578
 31
0.0
  0
LINE
  8
0
 62
     0
 10
256.42
 20
51.7578
 30
0.0
 11
256.42
 21
50.7573
 31
0.0
  0
LINE
  8
0
 62
     0
 10
256.42
 20
50.7573
 30
0.0
 11
270.27
 21
50.7573
 31
0.0
  0
LINE
  8
0
 62
     0
 10
270.27
 20
50.7573
 30
0.0
 11
270.27
 21
51.7578
 31
0.0
  0
LINE
  8
0
 62
     0
 10
270.27
 20
51.7578
 30
0.0
 11
271.071
 21
51.7578
 31
0.0
  0
LINE
  8
0
 62
     0
 10
271.071
 20
51.7578
 30
0.0
 11
271.071
 21
54.7067
 31
0.0
  0
LINE
  8
0
 62
     0
 10
271.071
 20
54.7067
 30
0.0
 11
270.27
 21
54.7067
 31
0.0
  0
LINE
  8
0
 62
     0
 10
270.27
 20
54.7067
 30
0.0
 11
270.27
 21
60.657
 31
0.0
  0
LINE
  8
0
 62
     0
 10
270.27
 20
60.657
 30
0.0
 11
271.071
 21
60.657
 31
0.0
  0
LINE
  8
0
 62
     0
 10
271.071
 20
60.657
 30
0.0
 11
271.071
 21
63.6076
 31
0.0
  0
LINE
  8
0
 62
     0
 10
271.071
 20
63.6076
 30
0.0
 11
270.27
 21
63.6076
 31
0.0
  0
LINE
  8
0
 62
     0
 10
270.27
 20
63.6076
 30
0.0
 11
270.27
 21
64.6081
 31
0.0
  0
LINE
  8
0
 62
     0
 10
270.27
 20
64.6081
 30
0.0
 11
256.42
 21
64.6081
 31
0.0
  0
LINE
  8
0
 62
     0
 10
275.47
 20
64.6081
 30
0.0
 11
275.47
 21
63.6076
 31
0.0
  0
LINE
  8
0
 62
     0
 10
275.47
 20
63.6076
 30
0.0
 11
274.671
 21
63.6076
 31
0.0
  0
LINE
  8
0
 62
     0
 10
274.671
 20
63.6076
 30
0.0
 11
274.671
 21
60.657
 31
0.0
  0
LINE
  8
0
 62
     0
 10
274.671
 20
60.657
 30
0.0
 11
275.47
 21
60.657
 31
0.0
  0
LINE
  8
0
 62
     0
 10
275.47
 20
60.657
 30
0.0
 11
275.47
 21
54.7067
 31
0.0
  0
LINE
  8
0
 62
     0
 10
275.47
 20
54.7067
 30
0.0
 11
274.671
 21
54.7067
 31
0.0
  0
LINE
  8
0
 62
     0
 10
274.671
 20
54.7067
 30
0.0
 11
274.671
 21
51.7578
 31
0.0
  0
LINE
  8
0
 62
     0
 10
274.671
 20
51.7578
 30
0.0
 11
275.47
 21
51.7578
 31
0.0
  0
LINE
  8
0
 62
     0
 10
275.47
 20
51.7578
 30
0.0
 11
275.47
 21
50.7573
 31
0.0
  0
LINE
  8
0
 62
     0
 10
275.47
 20
50.7573
 30
0.0
 11
289.32
 21
50.7573
 31
0.0
  0
LINE
  8
0
 62
     0
 10
289.32
 20
50.7573
 30
0.0
 11
289.32
 21
51.7578
 31
0.0
  0
LINE
  8
0
 62
     0
 10
289.32
 20
51.7578
 30
0.0
 11
290.121
 21
51.7578
 31
0.0
  0
LINE
  8
0
 62
     0
 10
290.121
 20
51.7578
 30
0.0
 11
290.121
 21
54.7067
 31
0.0
  0
LINE
  8
0
 62
     0
 10
290.121
 20
54.7067
 30
0.0
 11
289.32
 21
54.7067
 31
0.0
  0
LINE
  8
0
 62
     0
 10
289.32
 20
54.7067
 30
0.0
 11
289.32
 21
60.657
 31
0.0
  0
LINE
  8
0
 62
     0
 10
289.32
 20
60.657
 30
0.0
 11
290.121
 21
60.657
 31
0.0
  0
LINE
  8
0
 62
     0
 10
290.121
 20
60.657
 30
0.0
 11
290.121
 21
63.6076
 31
0.0
  0
LINE
  8
0
 62
     0
 10
290.121
 20
63.6076
 30
0.0
 11
289.32
 21
63.6076
 31
0.0
  0
LINE
  8
0
 62
     0
 10
289.32
 20
63.6076
 30
0.0
 11
289.32
 21
64.6081
 31
0.0
  0
LINE
  8
0
 62
     0
 10
289.32
 20
64.6081
 30
0.0
 11
275.47
 21
64.6081
 31
0.0
  0
LINE
  8
0
 62
     0
 10
8.76984
 20
70.3227
 30
0.0
 11
8.76984
 21
69.3222
 31
0.0
  0
LINE
  8
0
 62
     0
 10
8.76984
 20
69.3222
 30
0.0
 11
7.97059
 21
69.3222
 31
0.0
  0
LINE
  8
0
 62
     0
 10
7.97059
 20
69.3222
 30
0.0
 11
7.97059
 21
66.372
 31
0.0
  0
LINE
  8
0
 62
     0
 10
7.97059
 20
66.372
 30
0.0
 11
8.76984
 21
66.372
 31
0.0
  0
LINE
  8
0
 62
     0
 10
8.76984
 20
66.372
 30
0.0
 11
8.76984
 21
60.4227
 31
0.0
  0
LINE
  8
0
 62
     0
 10
8.76984
 20
60.4227
 30
0.0
 11
7.97059
 21
60.4227
 31
0.0
  0
LINE
  8
0
 62
     0
 10
7.97059
 20
60.4227
 30
0.0
 11
7.97059
 21
57.4724
 31
0.0
  0
LINE
  8
0
 62
     0
 10
7.97059
 20
57.4724
 30
0.0
 11
8.76984
 21
57.4724
 31
0.0
  0
LINE
  8
0
 62
     0
 10
8.76984
 20
57.4724
 30
0.0
 11
8.76984
 21
56.472
 31
0.0
  0
LINE
  8
0
 62
     0
 10
8.76984
 20
56.472
 30
0.0
 11
22.6205
 21
56.472
 31
0.0
  0
LINE
  8
0
 62
     0
 10
22.6205
 20
56.472
 30
0.0
 11
22.6205
 21
57.4724
 31
0.0
  0
LINE
  8
0
 62
     0
 10
22.6205
 20
57.4724
 30
0.0
 11
23.4211
 21
57.4724
 31
0.0
  0
LINE
  8
0
 62
     0
 10
23.4211
 20
57.4724
 30
0.0
 11
23.4211
 21
60.4227
 31
0.0
  0
LINE
  8
0
 62
     0
 10
23.4211
 20
60.4227
 30
0.0
 11
22.6205
 21
60.4227
 31
0.0
  0
LINE
  8
0
 62
     0
 10
22.6205
 20
60.4227
 30
0.0
 11
22.6205
 21
66.372
 31
0.0
  0
LINE
  8
0
 62
     0
 10
22.6205
 20
66.372
 30
0.0
 11
23.4211
 21
66.372
 31
0.0
  0
LINE
  8
0
 62
     0
 10
23.4211
 20
66.372
 30
0.0
 11
23.4211
 21
69.3222
 31
0.0
  0
LINE
  8
0
 62
     0
 10
23.4211
 20
69.3222
 30
0.0
 11
22.6205
 21
69.3222
 31
0.0
  0
LINE
  8
0
 62
     0
 10
22.6205
 20
69.3222
 30
0.0
 11
22.6205
 21
70.3227
 31
0.0
  0
LINE
  8
0
 62
     0
 10
22.6205
 20
70.3227
 30
0.0
 11
8.76984
 21
70.3227
 31
0.0
  0
LINE
  8
0
 62
     0
 10
27.8198
 20
70.3227
 30
0.0
 11
27.8198
 21
69.3222
 31
0.0
  0
LINE
  8
0
 62
     0
 10
27.8198
 20
69.3222
 30
0.0
 11
27.0206
 21
69.3222
 31
0.0
  0
LINE
  8
0
 62
     0
 10
27.0206
 20
69.3222
 30
0.0
 11
27.0206
 21
66.372
 31
0.0
  0
LINE
  8
0
 62
     0
 10
27.0206
 20
66.372
 30
0.0
 11
27.8198
 21
66.372
 31
0.0
  0
LINE
  8
0
 62
     0
 10
27.8198
 20
66.372
 30
0.0
 11
27.8198
 21
60.4227
 31
0.0
  0
LINE
  8
0
 62
     0
 10
27.8198
 20
60.4227
 30
0.0
 11
27.0206
 21
60.4227
 31
0.0
  0
LINE
  8
0
 62
     0
 10
27.0206
 20
60.4227
 30
0.0
 11
27.0206
 21
57.4724
 31
0.0
  0
LINE
  8
0
 62
     0
 10
27.0206
 20
57.4724
 30
0.0
 11
27.8198
 21
57.4724
 31
0.0
  0
LINE
  8
0
 62
     0
 10
27.8198
 20
57.4724
 30
0.0
 11
27.8198
 21
56.472
 31
0.0
  0
LINE
  8
0
 62
     0
 10
27.8198
 20
56.472
 30
0.0
 11
41.6705
 21
56.472
 31
0.0
  0
LINE
  8
0
 62
     0
 10
41.6705
 20
56.472
 30
0.0
 11
41.6705
 21
57.4724
 31
0.0
  0
LINE
  8
0
 62
     0
 10
41.6705
 20
57.4724
 30
0.0
 11
42.4713
 21
57.4724
 31
0.0
  0
LINE
  8
0
 62
     0
 10
42.4713
 20
57.4724
 30
0.0
 11
42.4713
 21
60.4227
 31
0.0
  0
LINE
  8
0
 62
     0
 10
42.4713
 20
60.4227
 30
0.0
 11
41.6705
 21
60.4227
 31
0.0
  0
LINE
  8
0
 62
     0
 10
41.6705
 20
60.4227
 30
0.0
 11
41.6705
 21
66.372
 31
0.0
  0
LINE
  8
0
 62
     0
 10
41.6705
 20
66.372
 30
0.0
 11
42.4713
 21
66.372
 31
0.0
  0
LINE
  8
0
 62
     0
 10
42.4713
 20
66.372
 30
0.0
 11
42.4713
 21
69.3222
 31
0.0
  0
LINE
  8
0
 62
     0
 10
42.4713
 20
69.3222
 30
0.0
 11
41.6705
 21
69.3222
 31
0.0
  0
LINE
  8
0
 62
     0
 10
41.6705
 20
69.3222
 30
0.0
 11
41.6705
 21
70.3227
 31
0.0
  0
LINE
  8
0
 62
     0
 10
41.6705
 20
70.3227
 30
0.0
 11
27.8198
 21
70.3227
 31
0.0
  0
LINE
  8
0
 62
     0
 10
294.52
 20
70.3227
 30
0.0
 11
294.52
 21
69.3222
 31
0.0
  0
LINE
  8
0
 62
     0
 10
294.52
 20
69.3222
 30
0.0
 11
293.721
 21
69.3222
 31
0.0
  0
LINE
  8
0
 62
     0
 10
293.721
 20
69.3222
 30
0.0
 11
293.721
 21
66.372
 31
0.0
  0
LINE
  8
0
 62
     0
 10
293.721
 20
66.372
 30
0.0
 11
294.52
 21
66.372
 31
0.0
  0
LINE
  8
0
 62
     0
 10
294.52
 20
66.372
 30
0.0
 11
294.52
 21
60.4227
 31
0.0
  0
LINE
  8
0
 62
     0
 10
294.52
 20
60.4227
 30
0.0
 11
293.721
 21
60.4227
 31
0.0
  0
LINE
  8
0
 62
     0
 10
293.721
 20
60.4227
 30
0.0
 11
293.721
 21
57.4724
 31
0.0
  0
LINE
  8
0
 62
     0
 10
293.721
 20
57.4724
 30
0.0
 11
294.52
 21
57.4724
 31
0.0
  0
LINE
  8
0
 62
     0
 10
294.52
 20
57.4724
 30
0.0
 11
294.52
 21
56.472
 31
0.0
  0
LINE
  8
0
 62
     0
 10
294.52
 20
56.472
 30
0.0
 11
308.37
 21
56.472
 31
0.0
  0
LINE
  8
0
 62
     0
 10
308.37
 20
56.472
 30
0.0
 11
308.37
 21
57.4724
 31
0.0
  0
LINE
  8
0
 62
     0
 10
308.37
 20
57.4724
 30
0.0
 11
309.171
 21
57.4724
 31
0.0
  0
LINE
  8
0
 62
     0
 10
309.171
 20
57.4724
 30
0.0
 11
309.171
 21
60.4227
 31
0.0
  0
LINE
  8
0
 62
     0
 10
309.171
 20
60.4227
 30
0.0
 11
308.37
 21
60.4227
 31
0.0
  0
LINE
  8
0
 62
     0
 10
308.37
 20
60.4227
 30
0.0
 11
308.37
 21
66.372
 31
0.0
  0
LINE
  8
0
 62
     0
 10
308.37
 20
66.372
 30
0.0
 11
309.171
 21
66.372
 31
0.0
  0
LINE
  8
0
 62
     0
 10
309.171
 20
66.372
 30
0.0
 11
309.171
 21
69.3222
 31
0.0
  0
LINE
  8
0
 62
     0
 10
309.171
 20
69.3222
 30
0.0
 11
308.37
 21
69.3222
 31
0.0
  0
LINE
  8
0
 62
     0
 10
308.37
 20
69.3222
 30
0.0
 11
308.37
 21
70.3227
 31
0.0
  0
LINE
  8
0
 62
     0
 10
308.37
 20
70.3227
 30
0.0
 11
294.52
 21
70.3227
 31
0.0
  0
LINE
  8
0
 62
     0
 10
313.57
 20
70.3227
 30
0.0
 11
313.57
 21
69.3222
 31
0.0
  0
LINE
  8
0
 62
     0
 10
313.57
 20
69.3222
 30
0.0
 11
312.771
 21
69.3222
 31
0.0
  0
LINE
  8
0
 62
     0
 10
312.771
 20
69.3222
 30
0.0
 11
312.771
 21
66.372
 31
0.0
  0
LINE
  8
0
 62
     0
 10
312.771
 20
66.372
 30
0.0
 11
313.57
 21
66.372
 31
0.0
  0
LINE
  8
0
 62
     0
 10
313.57
 20
66.372
 30
0.0
 11
313.57
 21
60.4227
 31
0.0
  0
LINE
  8
0
 62
     0
 10
313.57
 20
60.4227
 30
0.0
 11
312.771
 21
60.4227
 31
0.0
  0
LINE
  8
0
 62
     0
 10
312.771
 20
60.4227
 30
0.0
 11
312.771
 21
57.4724
 31
0.0
  0
LINE
  8
0
 62
     0
 10
312.771
 20
57.4724
 30
0.0
 11
313.57
 21
57.4724
 31
0.0
  0
LINE
  8
0
 62
     0
 10
313.57
 20
57.4724
 30
0.0
 11
313.57
 21
56.472
 31
0.0
  0
LINE
  8
0
 62
     0
 10
313.57
 20
56.472
 30
0.0
 11
327.42
 21
56.472
 31
0.0
  0
LINE
  8
0
 62
     0
 10
327.42
 20
56.472
 30
0.0
 11
327.42
 21
57.4724
 31
0.0
  0
LINE
  8
0
 62
     0
 10
327.42
 20
57.4724
 30
0.0
 11
328.221
 21
57.4724
 31
0.0
  0
LINE
  8
0
 62
     0
 10
328.221
 20
57.4724
 30
0.0
 11
328.221
 21
60.4227
 31
0.0
  0
LINE
  8
0
 62
     0
 10
328.221
 20
60.4227
 30
0.0
 11
327.42
 21
60.4227
 31
0.0
  0
LINE
  8
0
 62
     0
 10
327.42
 20
60.4227
 30
0.0
 11
327.42
 21
66.372
 31
0.0
  0
LINE
  8
0
 62
     0
 10
327.42
 20
66.372
 30
0.0
 11
328.221
 21
66.372
 31
0.0
  0
LINE
  8
0
 62
     0
 10
328.221
 20
66.372
 30
0.0
 11
328.221
 21
69.3222
 31
0.0
  0
LINE
  8
0
 62
     0
 10
328.221
 20
69.3222
 30
0.0
 11
327.42
 21
69.3222
 31
0.0
  0
LINE
  8
0
 62
     0
 10
327.42
 20
69.3222
 30
0.0
 11
327.42
 21
70.3227
 31
0.0
  0
LINE
  8
0
 62
     0
 10
327.42
 20
70.3227
 30
0.0
 11
313.57
 21
70.3227
 31
0.0
  0
LINE
  8
0
 62
     0
 10
333.05
 20
66.7523
 30
0.0
 11
332.624
 21
66.5357
 31
0.0
  0
LINE
  8
0
 62
     0
 10
332.624
 20
66.5357
 30
0.0
 11
332.288
 21
66.198
 31
0.0
  0
LINE
  8
0
 62
     0
 10
332.288
 20
66.198
 30
0.0
 11
332.07
 21
65.7737
 31
0.0
  0
LINE
  8
0
 62
     0
 10
332.07
 20
65.7737
 30
0.0
 11
331.997
 21
65.3023
 31
0.0
  0
LINE
  8
0
 62
     0
 10
331.997
 20
65.3023
 30
0.0
 11
332.07
 21
64.831
 31
0.0
  0
LINE
  8
0
 62
     0
 10
332.07
 20
64.831
 30
0.0
 11
332.288
 21
64.4066
 31
0.0
  0
LINE
  8
0
 62
     0
 10
332.288
 20
64.4066
 30
0.0
 11
332.624
 21
64.0676
 31
0.0
  0
LINE
  8
0
 62
     0
 10
332.624
 20
64.0676
 30
0.0
 11
333.05
 21
63.8528
 31
0.0
  0
LINE
  8
0
 62
     0
 10
333.05
 20
63.8528
 30
0.0
 11
333.521
 21
63.7769
 31
0.0
  0
LINE
  8
0
 62
     0
 10
333.521
 20
63.7769
 30
0.0
 11
333.992
 21
63.8528
 31
0.0
  0
LINE
  8
0
 62
     0
 10
333.992
 20
63.8528
 30
0.0
 11
334.418
 21
64.0676
 31
0.0
  0
LINE
  8
0
 62
     0
 10
334.418
 20
64.0676
 30
0.0
 11
334.754
 21
64.4066
 31
0.0
  0
LINE
  8
0
 62
     0
 10
334.754
 20
64.4066
 30
0.0
 11
334.972
 21
64.831
 31
0.0
  0
LINE
  8
0
 62
     0
 10
334.972
 20
64.831
 30
0.0
 11
335.046
 21
65.3023
 31
0.0
  0
LINE
  8
0
 62
     0
 10
335.046
 20
65.3023
 30
0.0
 11
334.972
 21
65.7737
 31
0.0
  0
LINE
  8
0
 62
     0
 10
334.972
 20
65.7737
 30
0.0
 11
334.754
 21
66.198
 31
0.0
  0
LINE
  8
0
 62
     0
 10
334.754
 20
66.198
 30
0.0
 11
334.418
 21
66.5357
 31
0.0
  0
LINE
  8
0
 62
     0
 10
334.418
 20
66.5357
 30
0.0
 11
333.992
 21
66.7523
 31
0.0
  0
LINE
  8
0
 62
     0
 10
333.992
 20
66.7523
 30
0.0
 11
333.521
 21
66.8281
 31
0.0
  0
LINE
  8
0
 62
     0
 10
333.521
 20
66.8281
 30
0.0
 11
333.05
 21
66.7523
 31
0.0
  0
LINE
  8
0
 62
     0
 10
2.19797
 20
66.7523
 30
0.0
 11
1.77353
 21
66.5357
 31
0.0
  0
LINE
  8
0
 62
     0
 10
1.77353
 20
66.5357
 30
0.0
 11
1.43591
 21
66.198
 31
0.0
  0
LINE
  8
0
 62
     0
 10
1.43591
 20
66.198
 30
0.0
 11
1.21956
 21
65.7737
 31
0.0
  0
LINE
  8
0
 62
     0
 10
1.21956
 20
65.7737
 30
0.0
 11
1.14515
 21
65.3023
 31
0.0
  0
LINE
  8
0
 62
     0
 10
1.14515
 20
65.3023
 30
0.0
 11
1.21956
 21
64.831
 31
0.0
  0
LINE
  8
0
 62
     0
 10
1.21956
 20
64.831
 30
0.0
 11
1.43591
 21
64.4066
 31
0.0
  0
LINE
  8
0
 62
     0
 10
1.43591
 20
64.4066
 30
0.0
 11
1.77353
 21
64.0676
 31
0.0
  0
LINE
  8
0
 62
     0
 10
1.77353
 20
64.0676
 30
0.0
 11
2.19797
 21
63.8528
 31
0.0
  0
LINE
  8
0
 62
     0
 10
2.19797
 20
63.8528
 30
0.0
 11
2.67064
 21
63.7769
 31
0.0
  0
LINE
  8
0
 62
     0
 10
2.67064
 20
63.7769
 30
0.0
 11
3.14055
 21
63.8528
 31
0.0
  0
LINE
  8
0
 62
     0
 10
3.14055
 20
63.8528
 30
0.0
 11
3.56637
 21
64.0676
 31
0.0
  0
LINE
  8
0
 62
     0
 10
3.56637
 20
64.0676
 30
0.0
 11
3.90398
 21
64.4066
 31
0.0
  0
LINE
  8
0
 62
     0
 10
3.90398
 20
64.4066
 30
0.0
 11
4.12034
 21
64.831
 31
0.0
  0
LINE
  8
0
 62
     0
 10
4.12034
 20
64.831
 30
0.0
 11
4.19612
 21
65.3023
 31
0.0
  0
LINE
  8
0
 62
     0
 10
4.19612
 20
65.3023
 30
0.0
 11
4.12034
 21
65.7737
 31
0.0
  0
LINE
  8
0
 62
     0
 10
4.12034
 20
65.7737
 30
0.0
 11
3.90398
 21
66.198
 31
0.0
  0
LINE
  8
0
 62
     0
 10
3.90398
 20
66.198
 30
0.0
 11
3.56637
 21
66.5357
 31
0.0
  0
LINE
  8
0
 62
     0
 10
3.56637
 20
66.5357
 30
0.0
 11
3.14055
 21
66.7523
 31
0.0
  0
LINE
  8
0
 62
     0
 10
3.14055
 20
66.7523
 30
0.0
 11
2.67064
 21
66.8281
 31
0.0
  0
LINE
  8
0
 62
     0
 10
2.67064
 20
66.8281
 30
0.0
 11
2.19797
 21
66.7523
 31
0.0
  0
LINE
  8
0
 62
     0
 10
104.02
 20
79.8477
 30
0.0
 11
104.02
 21
78.8472
 31
0.0
  0
LINE
  8
0
 62
     0
 10
104.02
 20
78.8472
 30
0.0
 11
103.221
 21
78.8472
 31
0.0
  0
LINE
  8
0
 62
     0
 10
103.221
 20
78.8472
 30
0.0
 11
103.221
 21
75.897
 31
0.0
  0
LINE
  8
0
 62
     0
 10
103.221
 20
75.897
 30
0.0
 11
104.02
 21
75.897
 31
0.0
  0
LINE
  8
0
 62
     0
 10
104.02
 20
75.897
 30
0.0
 11
104.02
 21
69.9477
 31
0.0
  0
LINE
  8
0
 62
     0
 10
104.02
 20
69.9477
 30
0.0
 11
103.221
 21
69.9477
 31
0.0
  0
LINE
  8
0
 62
     0
 10
103.221
 20
69.9477
 30
0.0
 11
103.221
 21
66.9974
 31
0.0
  0
LINE
  8
0
 62
     0
 10
103.221
 20
66.9974
 30
0.0
 11
104.02
 21
66.9974
 31
0.0
  0
LINE
  8
0
 62
     0
 10
104.02
 20
66.9974
 30
0.0
 11
104.02
 21
65.997
 31
0.0
  0
LINE
  8
0
 62
     0
 10
104.02
 20
65.997
 30
0.0
 11
117.87
 21
65.997
 31
0.0
  0
LINE
  8
0
 62
     0
 10
117.87
 20
65.997
 30
0.0
 11
117.87
 21
66.9974
 31
0.0
  0
LINE
  8
0
 62
     0
 10
117.87
 20
66.9974
 30
0.0
 11
118.671
 21
66.9974
 31
0.0
  0
LINE
  8
0
 62
     0
 10
118.671
 20
66.9974
 30
0.0
 11
118.671
 21
69.9477
 31
0.0
  0
LINE
  8
0
 62
     0
 10
118.671
 20
69.9477
 30
0.0
 11
117.87
 21
69.9477
 31
0.0
  0
LINE
  8
0
 62
     0
 10
117.87
 20
69.9477
 30
0.0
 11
117.87
 21
75.897
 31
0.0
  0
LINE
  8
0
 62
     0
 10
117.87
 20
75.897
 30
0.0
 11
118.671
 21
75.897
 31
0.0
  0
LINE
  8
0
 62
     0
 10
118.671
 20
75.897
 30
0.0
 11
118.671
 21
78.8472
 31
0.0
  0
LINE
  8
0
 62
     0
 10
118.671
 20
78.8472
 30
0.0
 11
117.87
 21
78.8472
 31
0.0
  0
LINE
  8
0
 62
     0
 10
117.87
 20
78.8472
 30
0.0
 11
117.87
 21
79.8477
 31
0.0
  0
LINE
  8
0
 62
     0
 10
117.87
 20
79.8477
 30
0.0
 11
104.02
 21
79.8477
 31
0.0
  0
LINE
  8
0
 62
     0
 10
218.32
 20
79.8477
 30
0.0
 11
218.32
 21
78.8472
 31
0.0
  0
LINE
  8
0
 62
     0
 10
218.32
 20
78.8472
 30
0.0
 11
217.521
 21
78.8472
 31
0.0
  0
LINE
  8
0
 62
     0
 10
217.521
 20
78.8472
 30
0.0
 11
217.521
 21
75.897
 31
0.0
  0
LINE
  8
0
 62
     0
 10
217.521
 20
75.897
 30
0.0
 11
218.32
 21
75.897
 31
0.0
  0
LINE
  8
0
 62
     0
 10
218.32
 20
75.897
 30
0.0
 11
218.32
 21
69.9477
 31
0.0
  0
LINE
  8
0
 62
     0
 10
218.32
 20
69.9477
 30
0.0
 11
217.521
 21
69.9477
 31
0.0
  0
LINE
  8
0
 62
     0
 10
217.521
 20
69.9477
 30
0.0
 11
217.521
 21
66.9974
 31
0.0
  0
LINE
  8
0
 62
     0
 10
217.521
 20
66.9974
 30
0.0
 11
218.32
 21
66.9974
 31
0.0
  0
LINE
  8
0
 62
     0
 10
218.32
 20
66.9974
 30
0.0
 11
218.32
 21
65.997
 31
0.0
  0
LINE
  8
0
 62
     0
 10
218.32
 20
65.997
 30
0.0
 11
232.17
 21
65.997
 31
0.0
  0
LINE
  8
0
 62
     0
 10
232.17
 20
65.997
 30
0.0
 11
232.17
 21
66.9974
 31
0.0
  0
LINE
  8
0
 62
     0
 10
232.17
 20
66.9974
 30
0.0
 11
232.971
 21
66.9974
 31
0.0
  0
LINE
  8
0
 62
     0
 10
232.971
 20
66.9974
 30
0.0
 11
232.971
 21
69.9477
 31
0.0
  0
LINE
  8
0
 62
     0
 10
232.971
 20
69.9477
 30
0.0
 11
232.17
 21
69.9477
 31
0.0
  0
LINE
  8
0
 62
     0
 10
232.17
 20
69.9477
 30
0.0
 11
232.17
 21
75.897
 31
0.0
  0
LINE
  8
0
 62
     0
 10
232.17
 20
75.897
 30
0.0
 11
232.971
 21
75.897
 31
0.0
  0
LINE
  8
0
 62
     0
 10
232.971
 20
75.897
 30
0.0
 11
232.971
 21
78.8472
 31
0.0
  0
LINE
  8
0
 62
     0
 10
232.971
 20
78.8472
 30
0.0
 11
232.17
 21
78.8472
 31
0.0
  0
LINE
  8
0
 62
     0
 10
232.17
 20
78.8472
 30
0.0
 11
232.17
 21
79.8477
 31
0.0
  0
LINE
  8
0
 62
     0
 10
232.17
 20
79.8477
 30
0.0
 11
218.32
 21
79.8477
 31
0.0
  0
LINE
  8
0
 62
     0
 10
46.8697
 20
83.6581
 30
0.0
 11
46.8697
 21
82.6576
 31
0.0
  0
LINE
  8
0
 62
     0
 10
46.8697
 20
82.6576
 30
0.0
 11
46.0692
 21
82.6576
 31
0.0
  0
LINE
  8
0
 62
     0
 10
46.0692
 20
82.6576
 30
0.0
 11
46.0692
 21
79.707
 31
0.0
  0
LINE
  8
0
 62
     0
 10
46.0692
 20
79.707
 30
0.0
 11
46.8697
 21
79.707
 31
0.0
  0
LINE
  8
0
 62
     0
 10
46.8697
 20
79.707
 30
0.0
 11
46.8697
 21
73.7567
 31
0.0
  0
LINE
  8
0
 62
     0
 10
46.8697
 20
73.7567
 30
0.0
 11
46.0692
 21
73.7567
 31
0.0
  0
LINE
  8
0
 62
     0
 10
46.0692
 20
73.7567
 30
0.0
 11
46.0692
 21
70.8078
 31
0.0
  0
LINE
  8
0
 62
     0
 10
46.0692
 20
70.8078
 30
0.0
 11
46.8697
 21
70.8078
 31
0.0
  0
LINE
  8
0
 62
     0
 10
46.8697
 20
70.8078
 30
0.0
 11
46.8697
 21
69.8073
 31
0.0
  0
LINE
  8
0
 62
     0
 10
46.8697
 20
69.8073
 30
0.0
 11
60.7205
 21
69.8073
 31
0.0
  0
LINE
  8
0
 62
     0
 10
60.7205
 20
69.8073
 30
0.0
 11
60.7205
 21
70.8078
 31
0.0
  0
LINE
  8
0
 62
     0
 10
60.7205
 20
70.8078
 30
0.0
 11
61.5213
 21
70.8078
 31
0.0
  0
LINE
  8
0
 62
     0
 10
61.5213
 20
70.8078
 30
0.0
 11
61.5213
 21
73.7567
 31
0.0
  0
LINE
  8
0
 62
     0
 10
61.5213
 20
73.7567
 30
0.0
 11
60.7205
 21
73.7567
 31
0.0
  0
LINE
  8
0
 62
     0
 10
60.7205
 20
73.7567
 30
0.0
 11
60.7205
 21
79.707
 31
0.0
  0
LINE
  8
0
 62
     0
 10
60.7205
 20
79.707
 30
0.0
 11
61.5213
 21
79.707
 31
0.0
  0
LINE
  8
0
 62
     0
 10
61.5213
 20
79.707
 30
0.0
 11
61.5213
 21
82.6576
 31
0.0
  0
LINE
  8
0
 62
     0
 10
61.5213
 20
82.6576
 30
0.0
 11
60.7205
 21
82.6576
 31
0.0
  0
LINE
  8
0
 62
     0
 10
60.7205
 20
82.6576
 30
0.0
 11
60.7205
 21
83.6581
 31
0.0
  0
LINE
  8
0
 62
     0
 10
60.7205
 20
83.6581
 30
0.0
 11
46.8697
 21
83.6581
 31
0.0
  0
LINE
  8
0
 62
     0
 10
65.9197
 20
83.6581
 30
0.0
 11
65.9197
 21
82.6576
 31
0.0
  0
LINE
  8
0
 62
     0
 10
65.9197
 20
82.6576
 30
0.0
 11
65.1207
 21
82.6576
 31
0.0
  0
LINE
  8
0
 62
     0
 10
65.1207
 20
82.6576
 30
0.0
 11
65.1207
 21
79.707
 31
0.0
  0
LINE
  8
0
 62
     0
 10
65.1207
 20
79.707
 30
0.0
 11
65.9197
 21
79.707
 31
0.0
  0
LINE
  8
0
 62
     0
 10
65.9197
 20
79.707
 30
0.0
 11
65.9197
 21
73.7567
 31
0.0
  0
LINE
  8
0
 62
     0
 10
65.9197
 20
73.7567
 30
0.0
 11
65.1207
 21
73.7567
 31
0.0
  0
LINE
  8
0
 62
     0
 10
65.1207
 20
73.7567
 30
0.0
 11
65.1207
 21
70.8078
 31
0.0
  0
LINE
  8
0
 62
     0
 10
65.1207
 20
70.8078
 30
0.0
 11
65.9197
 21
70.8078
 31
0.0
  0
LINE
  8
0
 62
     0
 10
65.9197
 20
70.8078
 30
0.0
 11
65.9197
 21
69.8073
 31
0.0
  0
LINE
  8
0
 62
     0
 10
65.9197
 20
69.8073
 30
0.0
 11
79.7705
 21
69.8073
 31
0.0
  0
LINE
  8
0
 62
     0
 10
79.7705
 20
69.8073
 30
0.0
 11
79.7705
 21
70.8078
 31
0.0
  0
LINE
  8
0
 62
     0
 10
79.7705
 20
70.8078
 30
0.0
 11
80.5713
 21
70.8078
 31
0.0
  0
LINE
  8
0
 62
     0
 10
80.5713
 20
70.8078
 30
0.0
 11
80.5713
 21
73.7567
 31
0.0
  0
LINE
  8
0
 62
     0
 10
80.5713
 20
73.7567
 30
0.0
 11
79.7705
 21
73.7567
 31
0.0
  0
LINE
  8
0
 62
     0
 10
79.7705
 20
73.7567
 30
0.0
 11
79.7705
 21
79.707
 31
0.0
  0
LINE
  8
0
 62
     0
 10
79.7705
 20
79.707
 30
0.0
 11
80.5713
 21
79.707
 31
0.0
  0
LINE
  8
0
 62
     0
 10
80.5713
 20
79.707
 30
0.0
 11
80.5713
 21
82.6576
 31
0.0
  0
LINE
  8
0
 62
     0
 10
80.5713
 20
82.6576
 30
0.0
 11
79.7705
 21
82.6576
 31
0.0
  0
LINE
  8
0
 62
     0
 10
79.7705
 20
82.6576
 30
0.0
 11
79.7705
 21
83.6581
 31
0.0
  0
LINE
  8
0
 62
     0
 10
79.7705
 20
83.6581
 30
0.0
 11
65.9197
 21
83.6581
 31
0.0
  0
LINE
  8
0
 62
     0
 10
84.9697
 20
83.6581
 30
0.0
 11
84.9697
 21
82.6576
 31
0.0
  0
LINE
  8
0
 62
     0
 10
84.9697
 20
82.6576
 30
0.0
 11
84.1707
 21
82.6576
 31
0.0
  0
LINE
  8
0
 62
     0
 10
84.1707
 20
82.6576
 30
0.0
 11
84.1707
 21
79.707
 31
0.0
  0
LINE
  8
0
 62
     0
 10
84.1707
 20
79.707
 30
0.0
 11
84.9697
 21
79.707
 31
0.0
  0
LINE
  8
0
 62
     0
 10
84.9697
 20
79.707
 30
0.0
 11
84.9697
 21
73.7567
 31
0.0
  0
LINE
  8
0
 62
     0
 10
84.9697
 20
73.7567
 30
0.0
 11
84.1707
 21
73.7567
 31
0.0
  0
LINE
  8
0
 62
     0
 10
84.1707
 20
73.7567
 30
0.0
 11
84.1707
 21
70.8078
 31
0.0
  0
LINE
  8
0
 62
     0
 10
84.1707
 20
70.8078
 30
0.0
 11
84.9697
 21
70.8078
 31
0.0
  0
LINE
  8
0
 62
     0
 10
84.9697
 20
70.8078
 30
0.0
 11
84.9697
 21
69.8073
 31
0.0
  0
LINE
  8
0
 62
     0
 10
84.9697
 20
69.8073
 30
0.0
 11
98.8205
 21
69.8073
 31
0.0
  0
LINE
  8
0
 62
     0
 10
98.8205
 20
69.8073
 30
0.0
 11
98.8205
 21
70.8078
 31
0.0
  0
LINE
  8
0
 62
     0
 10
98.8205
 20
70.8078
 30
0.0
 11
99.6199
 21
70.8078
 31
0.0
  0
LINE
  8
0
 62
     0
 10
99.6199
 20
70.8078
 30
0.0
 11
99.6199
 21
73.7567
 31
0.0
  0
LINE
  8
0
 62
     0
 10
99.6199
 20
73.7567
 30
0.0
 11
98.8205
 21
73.7567
 31
0.0
  0
LINE
  8
0
 62
     0
 10
98.8205
 20
73.7567
 30
0.0
 11
98.8205
 21
79.707
 31
0.0
  0
LINE
  8
0
 62
     0
 10
98.8205
 20
79.707
 30
0.0
 11
99.6199
 21
79.707
 31
0.0
  0
LINE
  8
0
 62
     0
 10
99.6199
 20
79.707
 30
0.0
 11
99.6199
 21
82.6576
 31
0.0
  0
LINE
  8
0
 62
     0
 10
99.6199
 20
82.6576
 30
0.0
 11
98.8205
 21
82.6576
 31
0.0
  0
LINE
  8
0
 62
     0
 10
98.8205
 20
82.6576
 30
0.0
 11
98.8205
 21
83.6581
 31
0.0
  0
LINE
  8
0
 62
     0
 10
98.8205
 20
83.6581
 30
0.0
 11
84.9697
 21
83.6581
 31
0.0
  0
LINE
  8
0
 62
     0
 10
237.37
 20
83.6581
 30
0.0
 11
237.37
 21
82.6576
 31
0.0
  0
LINE
  8
0
 62
     0
 10
237.37
 20
82.6576
 30
0.0
 11
236.571
 21
82.6576
 31
0.0
  0
LINE
  8
0
 62
     0
 10
236.571
 20
82.6576
 30
0.0
 11
236.571
 21
79.707
 31
0.0
  0
LINE
  8
0
 62
     0
 10
236.571
 20
79.707
 30
0.0
 11
237.37
 21
79.707
 31
0.0
  0
LINE
  8
0
 62
     0
 10
237.37
 20
79.707
 30
0.0
 11
237.37
 21
73.7567
 31
0.0
  0
LINE
  8
0
 62
     0
 10
237.37
 20
73.7567
 30
0.0
 11
236.571
 21
73.7567
 31
0.0
  0
LINE
  8
0
 62
     0
 10
236.571
 20
73.7567
 30
0.0
 11
236.571
 21
70.8078
 31
0.0
  0
LINE
  8
0
 62
     0
 10
236.571
 20
70.8078
 30
0.0
 11
237.37
 21
70.8078
 31
0.0
  0
LINE
  8
0
 62
     0
 10
237.37
 20
70.8078
 30
0.0
 11
237.37
 21
69.8073
 31
0.0
  0
LINE
  8
0
 62
     0
 10
237.37
 20
69.8073
 30
0.0
 11
251.22
 21
69.8073
 31
0.0
  0
LINE
  8
0
 62
     0
 10
251.22
 20
69.8073
 30
0.0
 11
251.22
 21
70.8078
 31
0.0
  0
LINE
  8
0
 62
     0
 10
251.22
 20
70.8078
 30
0.0
 11
252.021
 21
70.8078
 31
0.0
  0
LINE
  8
0
 62
     0
 10
252.021
 20
70.8078
 30
0.0
 11
252.021
 21
73.7567
 31
0.0
  0
LINE
  8
0
 62
     0
 10
252.021
 20
73.7567
 30
0.0
 11
251.22
 21
73.7567
 31
0.0
  0
LINE
  8
0
 62
     0
 10
251.22
 20
73.7567
 30
0.0
 11
251.22
 21
79.707
 31
0.0
  0
LINE
  8
0
 62
     0
 10
251.22
 20
79.707
 30
0.0
 11
252.021
 21
79.707
 31
0.0
  0
LINE
  8
0
 62
     0
 10
252.021
 20
79.707
 30
0.0
 11
252.021
 21
82.6576
 31
0.0
  0
LINE
  8
0
 62
     0
 10
252.021
 20
82.6576
 30
0.0
 11
251.22
 21
82.6576
 31
0.0
  0
LINE
  8
0
 62
     0
 10
251.22
 20
82.6576
 30
0.0
 11
251.22
 21
83.6581
 31
0.0
  0
LINE
  8
0
 62
     0
 10
251.22
 20
83.6581
 30
0.0
 11
237.37
 21
83.6581
 31
0.0
  0
LINE
  8
0
 62
     0
 10
256.42
 20
83.6581
 30
0.0
 11
256.42
 21
82.6576
 31
0.0
  0
LINE
  8
0
 62
     0
 10
256.42
 20
82.6576
 30
0.0
 11
255.619
 21
82.6576
 31
0.0
  0
LINE
  8
0
 62
     0
 10
255.619
 20
82.6576
 30
0.0
 11
255.619
 21
79.707
 31
0.0
  0
LINE
  8
0
 62
     0
 10
255.619
 20
79.707
 30
0.0
 11
256.42
 21
79.707
 31
0.0
  0
LINE
  8
0
 62
     0
 10
256.42
 20
79.707
 30
0.0
 11
256.42
 21
73.7567
 31
0.0
  0
LINE
  8
0
 62
     0
 10
256.42
 20
73.7567
 30
0.0
 11
255.619
 21
73.7567
 31
0.0
  0
LINE
  8
0
 62
     0
 10
255.619
 20
73.7567
 30
0.0
 11
255.619
 21
70.8078
 31
0.0
  0
LINE
  8
0
 62
     0
 10
255.619
 20
70.8078
 30
0.0
 11
256.42
 21
70.8078
 31
0.0
  0
LINE
  8
0
 62
     0
 10
256.42
 20
70.8078
 30
0.0
 11
256.42
 21
69.8073
 31
0.0
  0
LINE
  8
0
 62
     0
 10
256.42
 20
69.8073
 30
0.0
 11
270.27
 21
69.8073
 31
0.0
  0
LINE
  8
0
 62
     0
 10
270.27
 20
69.8073
 30
0.0
 11
270.27
 21
70.8078
 31
0.0
  0
LINE
  8
0
 62
     0
 10
270.27
 20
70.8078
 30
0.0
 11
271.071
 21
70.8078
 31
0.0
  0
LINE
  8
0
 62
     0
 10
271.071
 20
70.8078
 30
0.0
 11
271.071
 21
73.7567
 31
0.0
  0
LINE
  8
0
 62
     0
 10
271.071
 20
73.7567
 30
0.0
 11
270.27
 21
73.7567
 31
0.0
  0
LINE
  8
0
 62
     0
 10
270.27
 20
73.7567
 30
0.0
 11
270.27
 21
79.707
 31
0.0
  0
LINE
  8
0
 62
     0
 10
270.27
 20
79.707
 30
0.0
 11
271.071
 21
79.707
 31
0.0
  0
LINE
  8
0
 62
     0
 10
271.071
 20
79.707
 30
0.0
 11
271.071
 21
82.6576
 31
0.0
  0
LINE
  8
0
 62
     0
 10
271.071
 20
82.6576
 30
0.0
 11
270.27
 21
82.6576
 31
0.0
  0
LINE
  8
0
 62
     0
 10
270.27
 20
82.6576
 30
0.0
 11
270.27
 21
83.6581
 31
0.0
  0
LINE
  8
0
 62
     0
 10
270.27
 20
83.6581
 30
0.0
 11
256.42
 21
83.6581
 31
0.0
  0
LINE
  8
0
 62
     0
 10
275.47
 20
83.6581
 30
0.0
 11
275.47
 21
82.6576
 31
0.0
  0
LINE
  8
0
 62
     0
 10
275.47
 20
82.6576
 30
0.0
 11
274.671
 21
82.6576
 31
0.0
  0
LINE
  8
0
 62
     0
 10
274.671
 20
82.6576
 30
0.0
 11
274.671
 21
79.707
 31
0.0
  0
LINE
  8
0
 62
     0
 10
274.671
 20
79.707
 30
0.0
 11
275.47
 21
79.707
 31
0.0
  0
LINE
  8
0
 62
     0
 10
275.47
 20
79.707
 30
0.0
 11
275.47
 21
73.7567
 31
0.0
  0
LINE
  8
0
 62
     0
 10
275.47
 20
73.7567
 30
0.0
 11
274.671
 21
73.7567
 31
0.0
  0
LINE
  8
0
 62
     0
 10
274.671
 20
73.7567
 30
0.0
 11
274.671
 21
70.8078
 31
0.0
  0
LINE
  8
0
 62
     0
 10
274.671
 20
70.8078
 30
0.0
 11
275.47
 21
70.8078
 31
0.0
  0
LINE
  8
0
 62
     0
 10
275.47
 20
70.8078
 30
0.0
 11
275.47
 21
69.8073
 31
0.0
  0
LINE
  8
0
 62
     0
 10
275.47
 20
69.8073
 30
0.0
 11
289.32
 21
69.8073
 31
0.0
  0
LINE
  8
0
 62
     0
 10
289.32
 20
69.8073
 30
0.0
 11
289.32
 21
70.8078
 31
0.0
  0
LINE
  8
0
 62
     0
 10
289.32
 20
70.8078
 30
0.0
 11
290.121
 21
70.8078
 31
0.0
  0
LINE
  8
0
 62
     0
 10
290.121
 20
70.8078
 30
0.0
 11
290.121
 21
73.7567
 31
0.0
  0
LINE
  8
0
 62
     0
 10
290.121
 20
73.7567
 30
0.0
 11
289.32
 21
73.7567
 31
0.0
  0
LINE
  8
0
 62
     0
 10
289.32
 20
73.7567
 30
0.0
 11
289.32
 21
79.707
 31
0.0
  0
LINE
  8
0
 62
     0
 10
289.32
 20
79.707
 30
0.0
 11
290.121
 21
79.707
 31
0.0
  0
LINE
  8
0
 62
     0
 10
290.121
 20
79.707
 30
0.0
 11
290.121
 21
82.6576
 31
0.0
  0
LINE
  8
0
 62
     0
 10
290.121
 20
82.6576
 30
0.0
 11
289.32
 21
82.6576
 31
0.0
  0
LINE
  8
0
 62
     0
 10
289.32
 20
82.6576
 30
0.0
 11
289.32
 21
83.6581
 31
0.0
  0
LINE
  8
0
 62
     0
 10
289.32
 20
83.6581
 30
0.0
 11
275.47
 21
83.6581
 31
0.0
  0
LINE
  8
0
 62
     0
 10
8.76984
 20
89.3727
 30
0.0
 11
8.76984
 21
88.3722
 31
0.0
  0
LINE
  8
0
 62
     0
 10
8.76984
 20
88.3722
 30
0.0
 11
7.97059
 21
88.3722
 31
0.0
  0
LINE
  8
0
 62
     0
 10
7.97059
 20
88.3722
 30
0.0
 11
7.97059
 21
85.422
 31
0.0
  0
LINE
  8
0
 62
     0
 10
7.97059
 20
85.422
 30
0.0
 11
8.76984
 21
85.422
 31
0.0
  0
LINE
  8
0
 62
     0
 10
8.76984
 20
85.422
 30
0.0
 11
8.76984
 21
79.4727
 31
0.0
  0
LINE
  8
0
 62
     0
 10
8.76984
 20
79.4727
 30
0.0
 11
7.97059
 21
79.4727
 31
0.0
  0
LINE
  8
0
 62
     0
 10
7.97059
 20
79.4727
 30
0.0
 11
7.97059
 21
76.5224
 31
0.0
  0
LINE
  8
0
 62
     0
 10
7.97059
 20
76.5224
 30
0.0
 11
8.76984
 21
76.5224
 31
0.0
  0
LINE
  8
0
 62
     0
 10
8.76984
 20
76.5224
 30
0.0
 11
8.76984
 21
75.522
 31
0.0
  0
LINE
  8
0
 62
     0
 10
8.76984
 20
75.522
 30
0.0
 11
22.6205
 21
75.522
 31
0.0
  0
LINE
  8
0
 62
     0
 10
22.6205
 20
75.522
 30
0.0
 11
22.6205
 21
76.5224
 31
0.0
  0
LINE
  8
0
 62
     0
 10
22.6205
 20
76.5224
 30
0.0
 11
23.4211
 21
76.5224
 31
0.0
  0
LINE
  8
0
 62
     0
 10
23.4211
 20
76.5224
 30
0.0
 11
23.4211
 21
79.4727
 31
0.0
  0
LINE
  8
0
 62
     0
 10
23.4211
 20
79.4727
 30
0.0
 11
22.6205
 21
79.4727
 31
0.0
  0
LINE
  8
0
 62
     0
 10
22.6205
 20
79.4727
 30
0.0
 11
22.6205
 21
85.422
 31
0.0
  0
LINE
  8
0
 62
     0
 10
22.6205
 20
85.422
 30
0.0
 11
23.4211
 21
85.422
 31
0.0
  0
LINE
  8
0
 62
     0
 10
23.4211
 20
85.422
 30
0.0
 11
23.4211
 21
88.3722
 31
0.0
  0
LINE
  8
0
 62
     0
 10
23.4211
 20
88.3722
 30
0.0
 11
22.6205
 21
88.3722
 31
0.0
  0
LINE
  8
0
 62
     0
 10
22.6205
 20
88.3722
 30
0.0
 11
22.6205
 21
89.3727
 31
0.0
  0
LINE
  8
0
 62
     0
 10
22.6205
 20
89.3727
 30
0.0
 11
8.76984
 21
89.3727
 31
0.0
  0
LINE
  8
0
 62
     0
 10
27.8198
 20
89.3727
 30
0.0
 11
27.8198
 21
88.3722
 31
0.0
  0
LINE
  8
0
 62
     0
 10
27.8198
 20
88.3722
 30
0.0
 11
27.0206
 21
88.3722
 31
0.0
  0
LINE
  8
0
 62
     0
 10
27.0206
 20
88.3722
 30
0.0
 11
27.0206
 21
85.422
 31
0.0
  0
LINE
  8
0
 62
     0
 10
27.0206
 20
85.422
 30
0.0
 11
27.8198
 21
85.422
 31
0.0
  0
LINE
  8
0
 62
     0
 10
27.8198
 20
85.422
 30
0.0
 11
27.8198
 21
79.4727
 31
0.0
  0
LINE
  8
0
 62
     0
 10
27.8198
 20
79.4727
 30
0.0
 11
27.0206
 21
79.4727
 31
0.0
  0
LINE
  8
0
 62
     0
 10
27.0206
 20
79.4727
 30
0.0
 11
27.0206
 21
76.5224
 31
0.0
  0
LINE
  8
0
 62
     0
 10
27.0206
 20
76.5224
 30
0.0
 11
27.8198
 21
76.5224
 31
0.0
  0
LINE
  8
0
 62
     0
 10
27.8198
 20
76.5224
 30
0.0
 11
27.8198
 21
75.522
 31
0.0
  0
LINE
  8
0
 62
     0
 10
27.8198
 20
75.522
 30
0.0
 11
41.6705
 21
75.522
 31
0.0
  0
LINE
  8
0
 62
     0
 10
41.6705
 20
75.522
 30
0.0
 11
41.6705
 21
76.5224
 31
0.0
  0
LINE
  8
0
 62
     0
 10
41.6705
 20
76.5224
 30
0.0
 11
42.4713
 21
76.5224
 31
0.0
  0
LINE
  8
0
 62
     0
 10
42.4713
 20
76.5224
 30
0.0
 11
42.4713
 21
79.4727
 31
0.0
  0
LINE
  8
0
 62
     0
 10
42.4713
 20
79.4727
 30
0.0
 11
41.6705
 21
79.4727
 31
0.0
  0
LINE
  8
0
 62
     0
 10
41.6705
 20
79.4727
 30
0.0
 11
41.6705
 21
85.422
 31
0.0
  0
LINE
  8
0
 62
     0
 10
41.6705
 20
85.422
 30
0.0
 11
42.4713
 21
85.422
 31
0.0
  0
LINE
  8
0
 62
     0
 10
42.4713
 20
85.422
 30
0.0
 11
42.4713
 21
88.3722
 31
0.0
  0
LINE
  8
0
 62
     0
 10
42.4713
 20
88.3722
 30
0.0
 11
41.6705
 21
88.3722
 31
0.0
  0
LINE
  8
0
 62
     0
 10
41.6705
 20
88.3722
 30
0.0
 11
41.6705
 21
89.3727
 31
0.0
  0
LINE
  8
0
 62
     0
 10
41.6705
 20
89.3727
 30
0.0
 11
27.8198
 21
89.3727
 31
0.0
  0
LINE
  8
0
 62
     0
 10
294.52
 20
89.3727
 30
0.0
 11
294.52
 21
88.3722
 31
0.0
  0
LINE
  8
0
 62
     0
 10
294.52
 20
88.3722
 30
0.0
 11
293.721
 21
88.3722
 31
0.0
  0
LINE
  8
0
 62
     0
 10
293.721
 20
88.3722
 30
0.0
 11
293.721
 21
85.422
 31
0.0
  0
LINE
  8
0
 62
     0
 10
293.721
 20
85.422
 30
0.0
 11
294.52
 21
85.422
 31
0.0
  0
LINE
  8
0
 62
     0
 10
294.52
 20
85.422
 30
0.0
 11
294.52
 21
79.4727
 31
0.0
  0
LINE
  8
0
 62
     0
 10
294.52
 20
79.4727
 30
0.0
 11
293.721
 21
79.4727
 31
0.0
  0
LINE
  8
0
 62
     0
 10
293.721
 20
79.4727
 30
0.0
 11
293.721
 21
76.5224
 31
0.0
  0
LINE
  8
0
 62
     0
 10
293.721
 20
76.5224
 30
0.0
 11
294.52
 21
76.5224
 31
0.0
  0
LINE
  8
0
 62
     0
 10
294.52
 20
76.5224
 30
0.0
 11
294.52
 21
75.522
 31
0.0
  0
LINE
  8
0
 62
     0
 10
294.52
 20
75.522
 30
0.0
 11
308.37
 21
75.522
 31
0.0
  0
LINE
  8
0
 62
     0
 10
308.37
 20
75.522
 30
0.0
 11
308.37
 21
76.5224
 31
0.0
  0
LINE
  8
0
 62
     0
 10
308.37
 20
76.5224
 30
0.0
 11
309.171
 21
76.5224
 31
0.0
  0
LINE
  8
0
 62
     0
 10
309.171
 20
76.5224
 30
0.0
 11
309.171
 21
79.4727
 31
0.0
  0
LINE
  8
0
 62
     0
 10
309.171
 20
79.4727
 30
0.0
 11
308.37
 21
79.4727
 31
0.0
  0
LINE
  8
0
 62
     0
 10
308.37
 20
79.4727
 30
0.0
 11
308.37
 21
85.422
 31
0.0
  0
LINE
  8
0
 62
     0
 10
308.37
 20
85.422
 30
0.0
 11
309.171
 21
85.422
 31
0.0
  0
LINE
  8
0
 62
     0
 10
309.171
 20
85.422
 30
0.0
 11
309.171
 21
88.3722
 31
0.0
  0
LINE
  8
0
 62
     0
 10
309.171
 20
88.3722
 30
0.0
 11
308.37
 21
88.3722
 31
0.0
  0
LINE
  8
0
 62
     0
 10
308.37
 20
88.3722
 30
0.0
 11
308.37
 21
89.3727
 31
0.0
  0
LINE
  8
0
 62
     0
 10
308.37
 20
89.3727
 30
0.0
 11
294.52
 21
89.3727
 31
0.0
  0
LINE
  8
0
 62
     0
 10
313.57
 20
89.3727
 30
0.0
 11
313.57
 21
88.3722
 31
0.0
  0
LINE
  8
0
 62
     0
 10
313.57
 20
88.3722
 30
0.0
 11
312.771
 21
88.3722
 31
0.0
  0
LINE
  8
0
 62
     0
 10
312.771
 20
88.3722
 30
0.0
 11
312.771
 21
85.422
 31
0.0
  0
LINE
  8
0
 62
     0
 10
312.771
 20
85.422
 30
0.0
 11
313.57
 21
85.422
 31
0.0
  0
LINE
  8
0
 62
     0
 10
313.57
 20
85.422
 30
0.0
 11
313.57
 21
79.4727
 31
0.0
  0
LINE
  8
0
 62
     0
 10
313.57
 20
79.4727
 30
0.0
 11
312.771
 21
79.4727
 31
0.0
  0
LINE
  8
0
 62
     0
 10
312.771
 20
79.4727
 30
0.0
 11
312.771
 21
76.5224
 31
0.0
  0
LINE
  8
0
 62
     0
 10
312.771
 20
76.5224
 30
0.0
 11
313.57
 21
76.5224
 31
0.0
  0
LINE
  8
0
 62
     0
 10
313.57
 20
76.5224
 30
0.0
 11
313.57
 21
75.522
 31
0.0
  0
LINE
  8
0
 62
     0
 10
313.57
 20
75.522
 30
0.0
 11
327.42
 21
75.522
 31
0.0
  0
LINE
  8
0
 62
     0
 10
327.42
 20
75.522
 30
0.0
 11
327.42
 21
76.5224
 31
0.0
  0
LINE
  8
0
 62
     0
 10
327.42
 20
76.5224
 30
0.0
 11
328.221
 21
76.5224
 31
0.0
  0
LINE
  8
0
 62
     0
 10
328.221
 20
76.5224
 30
0.0
 11
328.221
 21
79.4727
 31
0.0
  0
LINE
  8
0
 62
     0
 10
328.221
 20
79.4727
 30
0.0
 11
327.42
 21
79.4727
 31
0.0
  0
LINE
  8
0
 62
     0
 10
327.42
 20
79.4727
 30
0.0
 11
327.42
 21
85.422
 31
0.0
  0
LINE
  8
0
 62
     0
 10
327.42
 20
85.422
 30
0.0
 11
328.221
 21
85.422
 31
0.0
  0
LINE
  8
0
 62
     0
 10
328.221
 20
85.422
 30
0.0
 11
328.221
 21
88.3722
 31
0.0
  0
LINE
  8
0
 62
     0
 10
328.221
 20
88.3722
 30
0.0
 11
327.42
 21
88.3722
 31
0.0
  0
LINE
  8
0
 62
     0
 10
327.42
 20
88.3722
 30
0.0
 11
327.42
 21
89.3727
 31
0.0
  0
LINE
  8
0
 62
     0
 10
327.42
 20
89.3727
 30
0.0
 11
313.57
 21
89.3727
 31
0.0
  0
LINE
  8
0
 62
     0
 10
104.02
 20
98.8977
 30
0.0
 11
104.02
 21
97.8972
 31
0.0
  0
LINE
  8
0
 62
     0
 10
104.02
 20
97.8972
 30
0.0
 11
103.221
 21
97.8972
 31
0.0
  0
LINE
  8
0
 62
     0
 10
103.221
 20
97.8972
 30
0.0
 11
103.221
 21
94.947
 31
0.0
  0
LINE
  8
0
 62
     0
 10
103.221
 20
94.947
 30
0.0
 11
104.02
 21
94.947
 31
0.0
  0
LINE
  8
0
 62
     0
 10
104.02
 20
94.947
 30
0.0
 11
104.02
 21
88.9977
 31
0.0
  0
LINE
  8
0
 62
     0
 10
104.02
 20
88.9977
 30
0.0
 11
103.221
 21
88.9977
 31
0.0
  0
LINE
  8
0
 62
     0
 10
103.221
 20
88.9977
 30
0.0
 11
103.221
 21
86.0474
 31
0.0
  0
LINE
  8
0
 62
     0
 10
103.221
 20
86.0474
 30
0.0
 11
104.02
 21
86.0474
 31
0.0
  0
LINE
  8
0
 62
     0
 10
104.02
 20
86.0474
 30
0.0
 11
104.02
 21
85.047
 31
0.0
  0
LINE
  8
0
 62
     0
 10
104.02
 20
85.047
 30
0.0
 11
117.87
 21
85.047
 31
0.0
  0
LINE
  8
0
 62
     0
 10
117.87
 20
85.047
 30
0.0
 11
117.87
 21
86.0474
 31
0.0
  0
LINE
  8
0
 62
     0
 10
117.87
 20
86.0474
 30
0.0
 11
118.671
 21
86.0474
 31
0.0
  0
LINE
  8
0
 62
     0
 10
118.671
 20
86.0474
 30
0.0
 11
118.671
 21
88.9977
 31
0.0
  0
LINE
  8
0
 62
     0
 10
118.671
 20
88.9977
 30
0.0
 11
117.87
 21
88.9977
 31
0.0
  0
LINE
  8
0
 62
     0
 10
117.87
 20
88.9977
 30
0.0
 11
117.87
 21
94.947
 31
0.0
  0
LINE
  8
0
 62
     0
 10
117.87
 20
94.947
 30
0.0
 11
118.671
 21
94.947
 31
0.0
  0
LINE
  8
0
 62
     0
 10
118.671
 20
94.947
 30
0.0
 11
118.671
 21
97.8972
 31
0.0
  0
LINE
  8
0
 62
     0
 10
118.671
 20
97.8972
 30
0.0
 11
117.87
 21
97.8972
 31
0.0
  0
LINE
  8
0
 62
     0
 10
117.87
 20
97.8972
 30
0.0
 11
117.87
 21
98.8977
 31
0.0
  0
LINE
  8
0
 62
     0
 10
117.87
 20
98.8977
 30
0.0
 11
104.02
 21
98.8977
 31
0.0
  0
LINE
  8
0
 62
     0
 10
218.32
 20
98.8977
 30
0.0
 11
218.32
 21
97.8972
 31
0.0
  0
LINE
  8
0
 62
     0
 10
218.32
 20
97.8972
 30
0.0
 11
217.521
 21
97.8972
 31
0.0
  0
LINE
  8
0
 62
     0
 10
217.521
 20
97.8972
 30
0.0
 11
217.521
 21
94.947
 31
0.0
  0
LINE
  8
0
 62
     0
 10
217.521
 20
94.947
 30
0.0
 11
218.32
 21
94.947
 31
0.0
  0
LINE
  8
0
 62
     0
 10
218.32
 20
94.947
 30
0.0
 11
218.32
 21
88.9977
 31
0.0
  0
LINE
  8
0
 62
     0
 10
218.32
 20
88.9977
 30
0.0
 11
217.521
 21
88.9977
 31
0.0
  0
LINE
  8
0
 62
     0
 10
217.521
 20
88.9977
 30
0.0
 11
217.521
 21
86.0474
 31
0.0
  0
LINE
  8
0
 62
     0
 10
217.521
 20
86.0474
 30
0.0
 11
218.32
 21
86.0474
 31
0.0
  0
LINE
  8
0
 62
     0
 10
218.32
 20
86.0474
 30
0.0
 11
218.32
 21
85.047
 31
0.0
  0
LINE
  8
0
 62
     0
 10
218.32
 20
85.047
 30
0.0
 11
232.17
 21
85.047
 31
0.0
  0
LINE
  8
0
 62
     0
 10
232.17
 20
85.047
 30
0.0
 11
232.17
 21
86.0474
 31
0.0
  0
LINE
  8
0
 62
     0
 10
232.17
 20
86.0474
 30
0.0
 11
232.971
 21
86.0474
 31
0.0
  0
LINE
  8
0
 62
     0
 10
232.971
 20
86.0474
 30
0.0
 11
232.971
 21
88.9977
 31
0.0
  0
LINE
  8
0
 62
     0
 10
232.971
 20
88.9977
 30
0.0
 11
232.17
 21
88.9977
 31
0.0
  0
LINE
  8
0
 62
     0
 10
232.17
 20
88.9977
 30
0.0
 11
232.17
 21
94.947
 31
0.0
  0
LINE
  8
0
 62
     0
 10
232.17
 20
94.947
 30
0.0
 11
232.971
 21
94.947
 31
0.0
  0
LINE
  8
0
 62
     0
 10
232.971
 20
94.947
 30
0.0
 11
232.971
 21
97.8972
 31
0.0
  0
LINE
  8
0
 62
     0
 10
232.971
 20
97.8972
 30
0.0
 11
232.17
 21
97.8972
 31
0.0
  0
LINE
  8
0
 62
     0
 10
232.17
 20
97.8972
 30
0.0
 11
232.17
 21
98.8977
 31
0.0
  0
LINE
  8
0
 62
     0
 10
232.17
 20
98.8977
 30
0.0
 11
218.32
 21
98.8977
 31
0.0
  0
LINE
  8
0
 62
     0
 10
46.8697
 20
102.708
 30
0.0
 11
46.8697
 21
101.708
 31
0.0
  0
LINE
  8
0
 62
     0
 10
46.8697
 20
101.708
 30
0.0
 11
46.0692
 21
101.708
 31
0.0
  0
LINE
  8
0
 62
     0
 10
46.0692
 20
101.708
 30
0.0
 11
46.0692
 21
98.757
 31
0.0
  0
LINE
  8
0
 62
     0
 10
46.0692
 20
98.757
 30
0.0
 11
46.8697
 21
98.757
 31
0.0
  0
LINE
  8
0
 62
     0
 10
46.8697
 20
98.757
 30
0.0
 11
46.8697
 21
92.8067
 31
0.0
  0
LINE
  8
0
 62
     0
 10
46.8697
 20
92.8067
 30
0.0
 11
46.0692
 21
92.8067
 31
0.0
  0
LINE
  8
0
 62
     0
 10
46.0692
 20
92.8067
 30
0.0
 11
46.0692
 21
89.8578
 31
0.0
  0
LINE
  8
0
 62
     0
 10
46.0692
 20
89.8578
 30
0.0
 11
46.8697
 21
89.8578
 31
0.0
  0
LINE
  8
0
 62
     0
 10
46.8697
 20
89.8578
 30
0.0
 11
46.8697
 21
88.8573
 31
0.0
  0
LINE
  8
0
 62
     0
 10
46.8697
 20
88.8573
 30
0.0
 11
60.7205
 21
88.8573
 31
0.0
  0
LINE
  8
0
 62
     0
 10
60.7205
 20
88.8573
 30
0.0
 11
60.7205
 21
89.8578
 31
0.0
  0
LINE
  8
0
 62
     0
 10
60.7205
 20
89.8578
 30
0.0
 11
61.5213
 21
89.8578
 31
0.0
  0
LINE
  8
0
 62
     0
 10
61.5213
 20
89.8578
 30
0.0
 11
61.5213
 21
92.8067
 31
0.0
  0
LINE
  8
0
 62
     0
 10
61.5213
 20
92.8067
 30
0.0
 11
60.7205
 21
92.8067
 31
0.0
  0
LINE
  8
0
 62
     0
 10
60.7205
 20
92.8067
 30
0.0
 11
60.7205
 21
98.757
 31
0.0
  0
LINE
  8
0
 62
     0
 10
60.7205
 20
98.757
 30
0.0
 11
61.5213
 21
98.757
 31
0.0
  0
LINE
  8
0
 62
     0
 10
61.5213
 20
98.757
 30
0.0
 11
61.5213
 21
101.708
 31
0.0
  0
LINE
  8
0
 62
     0
 10
61.5213
 20
101.708
 30
0.0
 11
60.7205
 21
101.708
 31
0.0
  0
LINE
  8
0
 62
     0
 10
60.7205
 20
101.708
 30
0.0
 11
60.7205
 21
102.708
 31
0.0
  0
LINE
  8
0
 62
     0
 10
60.7205
 20
102.708
 30
0.0
 11
46.8697
 21
102.708
 31
0.0
  0
LINE
  8
0
 62
     0
 10
65.9197
 20
102.708
 30
0.0
 11
65.9197
 21
101.708
 31
0.0
  0
LINE
  8
0
 62
     0
 10
65.9197
 20
101.708
 30
0.0
 11
65.1207
 21
101.708
 31
0.0
  0
LINE
  8
0
 62
     0
 10
65.1207
 20
101.708
 30
0.0
 11
65.1207
 21
98.757
 31
0.0
  0
LINE
  8
0
 62
     0
 10
65.1207
 20
98.757
 30
0.0
 11
65.9197
 21
98.757
 31
0.0
  0
LINE
  8
0
 62
     0
 10
65.9197
 20
98.757
 30
0.0
 11
65.9197
 21
92.8067
 31
0.0
  0
LINE
  8
0
 62
     0
 10
65.9197
 20
92.8067
 30
0.0
 11
65.1207
 21
92.8067
 31
0.0
  0
LINE
  8
0
 62
     0
 10
65.1207
 20
92.8067
 30
0.0
 11
65.1207
 21
89.8578
 31
0.0
  0
LINE
  8
0
 62
     0
 10
65.1207
 20
89.8578
 30
0.0
 11
65.9197
 21
89.8578
 31
0.0
  0
LINE
  8
0
 62
     0
 10
65.9197
 20
89.8578
 30
0.0
 11
65.9197
 21
88.8573
 31
0.0
  0
LINE
  8
0
 62
     0
 10
65.9197
 20
88.8573
 30
0.0
 11
79.7705
 21
88.8573
 31
0.0
  0
LINE
  8
0
 62
     0
 10
79.7705
 20
88.8573
 30
0.0
 11
79.7705
 21
89.8578
 31
0.0
  0
LINE
  8
0
 62
     0
 10
79.7705
 20
89.8578
 30
0.0
 11
80.5713
 21
89.8578
 31
0.0
  0
LINE
  8
0
 62
     0
 10
80.5713
 20
89.8578
 30
0.0
 11
80.5713
 21
92.8067
 31
0.0
  0
LINE
  8
0
 62
     0
 10
80.5713
 20
92.8067
 30
0.0
 11
79.7705
 21
92.8067
 31
0.0
  0
LINE
  8
0
 62
     0
 10
79.7705
 20
92.8067
 30
0.0
 11
79.7705
 21
98.757
 31
0.0
  0
LINE
  8
0
 62
     0
 10
79.7705
 20
98.757
 30
0.0
 11
80.5713
 21
98.757
 31
0.0
  0
LINE
  8
0
 62
     0
 10
80.5713
 20
98.757
 30
0.0
 11
80.5713
 21
101.708
 31
0.0
  0
LINE
  8
0
 62
     0
 10
80.5713
 20
101.708
 30
0.0
 11
79.7705
 21
101.708
 31
0.0
  0
LINE
  8
0
 62
     0
 10
79.7705
 20
101.708
 30
0.0
 11
79.7705
 21
102.708
 31
0.0
  0
LINE
  8
0
 62
     0
 10
79.7705
 20
102.708
 30
0.0
 11
65.9197
 21
102.708
 31
0.0
  0
LINE
  8
0
 62
     0
 10
84.9697
 20
102.708
 30
0.0
 11
84.9697
 21
101.708
 31
0.0
  0
LINE
  8
0
 62
     0
 10
84.9697
 20
101.708
 30
0.0
 11
84.1707
 21
101.708
 31
0.0
  0
LINE
  8
0
 62
     0
 10
84.1707
 20
101.708
 30
0.0
 11
84.1707
 21
98.757
 31
0.0
  0
LINE
  8
0
 62
     0
 10
84.1707
 20
98.757
 30
0.0
 11
84.9697
 21
98.757
 31
0.0
  0
LINE
  8
0
 62
     0
 10
84.9697
 20
98.757
 30
0.0
 11
84.9697
 21
92.8067
 31
0.0
  0
LINE
  8
0
 62
     0
 10
84.9697
 20
92.8067
 30
0.0
 11
84.1707
 21
92.8067
 31
0.0
  0
LINE
  8
0
 62
     0
 10
84.1707
 20
92.8067
 30
0.0
 11
84.1707
 21
89.8578
 31
0.0
  0
LINE
  8
0
 62
     0
 10
84.1707
 20
89.8578
 30
0.0
 11
84.9697
 21
89.8578
 31
0.0
  0
LINE
  8
0
 62
     0
 10
84.9697
 20
89.8578
 30
0.0
 11
84.9697
 21
88.8573
 31
0.0
  0
LINE
  8
0
 62
     0
 10
84.9697
 20
88.8573
 30
0.0
 11
98.8205
 21
88.8573
 31
0.0
  0
LINE
  8
0
 62
     0
 10
98.8205
 20
88.8573
 30
0.0
 11
98.8205
 21
89.8578
 31
0.0
  0
LINE
  8
0
 62
     0
 10
98.8205
 20
89.8578
 30
0.0
 11
99.6199
 21
89.8578
 31
0.0
  0
LINE
  8
0
 62
     0
 10
99.6199
 20
89.8578
 30
0.0
 11
99.6199
 21
92.8067
 31
0.0
  0
LINE
  8
0
 62
     0
 10
99.6199
 20
92.8067
 30
0.0
 11
98.8205
 21
92.8067
 31
0.0
  0
LINE
  8
0
 62
     0
 10
98.8205
 20
92.8067
 30
0.0
 11
98.8205
 21
98.757
 31
0.0
  0
LINE
  8
0
 62
     0
 10
98.8205
 20
98.757
 30
0.0
 11
99.6199
 21
98.757
 31
0.0
  0
LINE
  8
0
 62
     0
 10
99.6199
 20
98.757
 30
0.0
 11
99.6199
 21
101.708
 31
0.0
  0
LINE
  8
0
 62
     0
 10
99.6199
 20
101.708
 30
0.0
 11
98.8205
 21
101.708
 31
0.0
  0
LINE
  8
0
 62
     0
 10
98.8205
 20
101.708
 30
0.0
 11
98.8205
 21
102.708
 31
0.0
  0
LINE
  8
0
 62
     0
 10
98.8205
 20
102.708
 30
0.0
 11
84.9697
 21
102.708
 31
0.0
  0
LINE
  8
0
 62
     0
 10
237.37
 20
102.708
 30
0.0
 11
237.37
 21
101.708
 31
0.0
  0
LINE
  8
0
 62
     0
 10
237.37
 20
101.708
 30
0.0
 11
236.571
 21
101.708
 31
0.0
  0
LINE
  8
0
 62
     0
 10
236.571
 20
101.708
 30
0.0
 11
236.571
 21
98.757
 31
0.0
  0
LINE
  8
0
 62
     0
 10
236.571
 20
98.757
 30
0.0
 11
237.37
 21
98.757
 31
0.0
  0
LINE
  8
0
 62
     0
 10
237.37
 20
98.757
 30
0.0
 11
237.37
 21
92.8067
 31
0.0
  0
LINE
  8
0
 62
     0
 10
237.37
 20
92.8067
 30
0.0
 11
236.571
 21
92.8067
 31
0.0
  0
LINE
  8
0
 62
     0
 10
236.571
 20
92.8067
 30
0.0
 11
236.571
 21
89.8578
 31
0.0
  0
LINE
  8
0
 62
     0
 10
236.571
 20
89.8578
 30
0.0
 11
237.37
 21
89.8578
 31
0.0
  0
LINE
  8
0
 62
     0
 10
237.37
 20
89.8578
 30
0.0
 11
237.37
 21
88.8573
 31
0.0
  0
LINE
  8
0
 62
     0
 10
237.37
 20
88.8573
 30
0.0
 11
251.22
 21
88.8573
 31
0.0
  0
LINE
  8
0
 62
     0
 10
251.22
 20
88.8573
 30
0.0
 11
251.22
 21
89.8578
 31
0.0
  0
LINE
  8
0
 62
     0
 10
251.22
 20
89.8578
 30
0.0
 11
252.021
 21
89.8578
 31
0.0
  0
LINE
  8
0
 62
     0
 10
252.021
 20
89.8578
 30
0.0
 11
252.021
 21
92.8067
 31
0.0
  0
LINE
  8
0
 62
     0
 10
252.021
 20
92.8067
 30
0.0
 11
251.22
 21
92.8067
 31
0.0
  0
LINE
  8
0
 62
     0
 10
251.22
 20
92.8067
 30
0.0
 11
251.22
 21
98.757
 31
0.0
  0
LINE
  8
0
 62
     0
 10
251.22
 20
98.757
 30
0.0
 11
252.021
 21
98.757
 31
0.0
  0
LINE
  8
0
 62
     0
 10
252.021
 20
98.757
 30
0.0
 11
252.021
 21
101.708
 31
0.0
  0
LINE
  8
0
 62
     0
 10
252.021
 20
101.708
 30
0.0
 11
251.22
 21
101.708
 31
0.0
  0
LINE
  8
0
 62
     0
 10
251.22
 20
101.708
 30
0.0
 11
251.22
 21
102.708
 31
0.0
  0
LINE
  8
0
 62
     0
 10
251.22
 20
102.708
 30
0.0
 11
237.37
 21
102.708
 31
0.0
  0
LINE
  8
0
 62
     0
 10
256.42
 20
102.708
 30
0.0
 11
256.42
 21
101.708
 31
0.0
  0
LINE
  8
0
 62
     0
 10
256.42
 20
101.708
 30
0.0
 11
255.619
 21
101.708
 31
0.0
  0
LINE
  8
0
 62
     0
 10
255.619
 20
101.708
 30
0.0
 11
255.619
 21
98.757
 31
0.0
  0
LINE
  8
0
 62
     0
 10
255.619
 20
98.757
 30
0.0
 11
256.42
 21
98.757
 31
0.0
  0
LINE
  8
0
 62
     0
 10
256.42
 20
98.757
 30
0.0
 11
256.42
 21
92.8067
 31
0.0
  0
LINE
  8
0
 62
     0
 10
256.42
 20
92.8067
 30
0.0
 11
255.619
 21
92.8067
 31
0.0
  0
LINE
  8
0
 62
     0
 10
255.619
 20
92.8067
 30
0.0
 11
255.619
 21
89.8578
 31
0.0
  0
LINE
  8
0
 62
     0
 10
255.619
 20
89.8578
 30
0.0
 11
256.42
 21
89.8578
 31
0.0
  0
LINE
  8
0
 62
     0
 10
256.42
 20
89.8578
 30
0.0
 11
256.42
 21
88.8573
 31
0.0
  0
LINE
  8
0
 62
     0
 10
256.42
 20
88.8573
 30
0.0
 11
270.27
 21
88.8573
 31
0.0
  0
LINE
  8
0
 62
     0
 10
270.27
 20
88.8573
 30
0.0
 11
270.27
 21
89.8578
 31
0.0
  0
LINE
  8
0
 62
     0
 10
270.27
 20
89.8578
 30
0.0
 11
271.071
 21
89.8578
 31
0.0
  0
LINE
  8
0
 62
     0
 10
271.071
 20
89.8578
 30
0.0
 11
271.071
 21
92.8067
 31
0.0
  0
LINE
  8
0
 62
     0
 10
271.071
 20
92.8067
 30
0.0
 11
270.27
 21
92.8067
 31
0.0
  0
LINE
  8
0
 62
     0
 10
270.27
 20
92.8067
 30
0.0
 11
270.27
 21
98.757
 31
0.0
  0
LINE
  8
0
 62
     0
 10
270.27
 20
98.757
 30
0.0
 11
271.071
 21
98.757
 31
0.0
  0
LINE
  8
0
 62
     0
 10
271.071
 20
98.757
 30
0.0
 11
271.071
 21
101.708
 31
0.0
  0
LINE
  8
0
 62
     0
 10
271.071
 20
101.708
 30
0.0
 11
270.27
 21
101.708
 31
0.0
  0
LINE
  8
0
 62
     0
 10
270.27
 20
101.708
 30
0.0
 11
270.27
 21
102.708
 31
0.0
  0
LINE
  8
0
 62
     0
 10
270.27
 20
102.708
 30
0.0
 11
256.42
 21
102.708
 31
0.0
  0
LINE
  8
0
 62
     0
 10
275.47
 20
102.708
 30
0.0
 11
275.47
 21
101.708
 31
0.0
  0
LINE
  8
0
 62
     0
 10
275.47
 20
101.708
 30
0.0
 11
274.671
 21
101.708
 31
0.0
  0
LINE
  8
0
 62
     0
 10
274.671
 20
101.708
 30
0.0
 11
274.671
 21
98.757
 31
0.0
  0
LINE
  8
0
 62
     0
 10
274.671
 20
98.757
 30
0.0
 11
275.47
 21
98.757
 31
0.0
  0
LINE
  8
0
 62
     0
 10
275.47
 20
98.757
 30
0.0
 11
275.47
 21
92.8067
 31
0.0
  0
LINE
  8
0
 62
     0
 10
275.47
 20
92.8067
 30
0.0
 11
274.671
 21
92.8067
 31
0.0
  0
LINE
  8
0
 62
     0
 10
274.671
 20
92.8067
 30
0.0
 11
274.671
 21
89.8578
 31
0.0
  0
LINE
  8
0
 62
     0
 10
274.671
 20
89.8578
 30
0.0
 11
275.47
 21
89.8578
 31
0.0
  0
LINE
  8
0
 62
     0
 10
275.47
 20
89.8578
 30
0.0
 11
275.47
 21
88.8573
 31
0.0
  0
LINE
  8
0
 62
     0
 10
275.47
 20
88.8573
 30
0.0
 11
289.32
 21
88.8573
 31
0.0
  0
LINE
  8
0
 62
     0
 10
289.32
 20
88.8573
 30
0.0
 11
289.32
 21
89.8578
 31
0.0
  0
LINE
  8
0
 62
     0
 10
289.32
 20
89.8578
 30
0.0
 11
290.121
 21
89.8578
 31
0.0
  0
LINE
  8
0
 62
     0
 10
290.121
 20
89.8578
 30
0.0
 11
290.121
 21
92.8067
 31
0.0
  0
LINE
  8
0
 62
     0
 10
290.121
 20
92.8067
 30
0.0
 11
289.32
 21
92.8067
 31
0.0
  0
LINE
  8
0
 62
     0
 10
289.32
 20
92.8067
 30
0.0
 11
289.32
 21
98.757
 31
0.0
  0
LINE
  8
0
 62
     0
 10
289.32
 20
98.757
 30
0.0
 11
290.121
 21
98.757
 31
0.0
  0
LINE
  8
0
 62
     0
 10
290.121
 20
98.757
 30
0.0
 11
290.121
 21
101.708
 31
0.0
  0
LINE
  8
0
 62
     0
 10
290.121
 20
101.708
 30
0.0
 11
289.32
 21
101.708
 31
0.0
  0
LINE
  8
0
 62
     0
 10
289.32
 20
101.708
 30
0.0
 11
289.32
 21
102.708
 31
0.0
  0
LINE
  8
0
 62
     0
 10
289.32
 20
102.708
 30
0.0
 11
275.47
 21
102.708
 31
0.0
  0
LINE
  8
0
 62
     0
 10
8.76984
 20
108.423
 30
0.0
 11
8.76984
 21
107.422
 31
0.0
  0
LINE
  8
0
 62
     0
 10
8.76984
 20
107.422
 30
0.0
 11
7.97059
 21
107.422
 31
0.0
  0
LINE
  8
0
 62
     0
 10
7.97059
 20
107.422
 30
0.0
 11
7.97059
 21
104.472
 31
0.0
  0
LINE
  8
0
 62
     0
 10
7.97059
 20
104.472
 30
0.0
 11
8.76984
 21
104.472
 31
0.0
  0
LINE
  8
0
 62
     0
 10
8.76984
 20
104.472
 30
0.0
 11
8.76984
 21
98.5227
 31
0.0
  0
LINE
  8
0
 62
     0
 10
8.76984
 20
98.5227
 30
0.0
 11
7.97059
 21
98.5227
 31
0.0
  0
LINE
  8
0
 62
     0
 10
7.97059
 20
98.5227
 30
0.0
 11
7.97059
 21
95.5724
 31
0.0
  0
LINE
  8
0
 62
     0
 10
7.97059
 20
95.5724
 30
0.0
 11
8.76984
 21
95.5724
 31
0.0
  0
LINE
  8
0
 62
     0
 10
8.76984
 20
95.5724
 30
0.0
 11
8.76984
 21
94.572
 31
0.0
  0
LINE
  8
0
 62
     0
 10
8.76984
 20
94.572
 30
0.0
 11
22.6205
 21
94.572
 31
0.0
  0
LINE
  8
0
 62
     0
 10
22.6205
 20
94.572
 30
0.0
 11
22.6205
 21
95.5724
 31
0.0
  0
LINE
  8
0
 62
     0
 10
22.6205
 20
95.5724
 30
0.0
 11
23.4211
 21
95.5724
 31
0.0
  0
LINE
  8
0
 62
     0
 10
23.4211
 20
95.5724
 30
0.0
 11
23.4211
 21
98.5227
 31
0.0
  0
LINE
  8
0
 62
     0
 10
23.4211
 20
98.5227
 30
0.0
 11
22.6205
 21
98.5227
 31
0.0
  0
LINE
  8
0
 62
     0
 10
22.6205
 20
98.5227
 30
0.0
 11
22.6205
 21
104.472
 31
0.0
  0
LINE
  8
0
 62
     0
 10
22.6205
 20
104.472
 30
0.0
 11
23.4211
 21
104.472
 31
0.0
  0
LINE
  8
0
 62
     0
 10
23.4211
 20
104.472
 30
0.0
 11
23.4211
 21
107.422
 31
0.0
  0
LINE
  8
0
 62
     0
 10
23.4211
 20
107.422
 30
0.0
 11
22.6205
 21
107.422
 31
0.0
  0
LINE
  8
0
 62
     0
 10
22.6205
 20
107.422
 30
0.0
 11
22.6205
 21
108.423
 31
0.0
  0
LINE
  8
0
 62
     0
 10
22.6205
 20
108.423
 30
0.0
 11
8.76984
 21
108.423
 31
0.0
  0
LINE
  8
0
 62
     0
 10
27.8198
 20
108.423
 30
0.0
 11
27.8198
 21
107.422
 31
0.0
  0
LINE
  8
0
 62
     0
 10
27.8198
 20
107.422
 30
0.0
 11
27.0206
 21
107.422
 31
0.0
  0
LINE
  8
0
 62
     0
 10
27.0206
 20
107.422
 30
0.0
 11
27.0206
 21
104.472
 31
0.0
  0
LINE
  8
0
 62
     0
 10
27.0206
 20
104.472
 30
0.0
 11
27.8198
 21
104.472
 31
0.0
  0
LINE
  8
0
 62
     0
 10
27.8198
 20
104.472
 30
0.0
 11
27.8198
 21
98.5227
 31
0.0
  0
LINE
  8
0
 62
     0
 10
27.8198
 20
98.5227
 30
0.0
 11
27.0206
 21
98.5227
 31
0.0
  0
LINE
  8
0
 62
     0
 10
27.0206
 20
98.5227
 30
0.0
 11
27.0206
 21
95.5724
 31
0.0
  0
LINE
  8
0
 62
     0
 10
27.0206
 20
95.5724
 30
0.0
 11
27.8198
 21
95.5724
 31
0.0
  0
LINE
  8
0
 62
     0
 10
27.8198
 20
95.5724
 30
0.0
 11
27.8198
 21
94.572
 31
0.0
  0
LINE
  8
0
 62
     0
 10
27.8198
 20
94.572
 30
0.0
 11
41.6705
 21
94.572
 31
0.0
  0
LINE
  8
0
 62
     0
 10
41.6705
 20
94.572
 30
0.0
 11
41.6705
 21
95.5724
 31
0.0
  0
LINE
  8
0
 62
     0
 10
41.6705
 20
95.5724
 30
0.0
 11
42.4713
 21
95.5724
 31
0.0
  0
LINE
  8
0
 62
     0
 10
42.4713
 20
95.5724
 30
0.0
 11
42.4713
 21
98.5227
 31
0.0
  0
LINE
  8
0
 62
     0
 10
42.4713
 20
98.5227
 30
0.0
 11
41.6705
 21
98.5227
 31
0.0
  0
LINE
  8
0
 62
     0
 10
41.6705
 20
98.5227
 30
0.0
 11
41.6705
 21
104.472
 31
0.0
  0
LINE
  8
0
 62
     0
 10
41.6705
 20
104.472
 30
0.0
 11
42.4713
 21
104.472
 31
0.0
  0
LINE
  8
0
 62
     0
 10
42.4713
 20
104.472
 30
0.0
 11
42.4713
 21
107.422
 31
0.0
  0
LINE
  8
0
 62
     0
 10
42.4713
 20
107.422
 30
0.0
 11
41.6705
 21
107.422
 31
0.0
  0
LINE
  8
0
 62
     0
 10
41.6705
 20
107.422
 30
0.0
 11
41.6705
 21
108.423
 31
0.0
  0
LINE
  8
0
 62
     0
 10
41.6705
 20
108.423
 30
0.0
 11
27.8198
 21
108.423
 31
0.0
  0
LINE
  8
0
 62
     0
 10
294.52
 20
108.423
 30
0.0
 11
294.52
 21
107.422
 31
0.0
  0
LINE
  8
0
 62
     0
 10
294.52
 20
107.422
 30
0.0
 11
293.721
 21
107.422
 31
0.0
  0
LINE
  8
0
 62
     0
 10
293.721
 20
107.422
 30
0.0
 11
293.721
 21
104.472
 31
0.0
  0
LINE
  8
0
 62
     0
 10
293.721
 20
104.472
 30
0.0
 11
294.52
 21
104.472
 31
0.0
  0
LINE
  8
0
 62
     0
 10
294.52
 20
104.472
 30
0.0
 11
294.52
 21
98.5227
 31
0.0
  0
LINE
  8
0
 62
     0
 10
294.52
 20
98.5227
 30
0.0
 11
293.721
 21
98.5227
 31
0.0
  0
LINE
  8
0
 62
     0
 10
293.721
 20
98.5227
 30
0.0
 11
293.721
 21
95.5724
 31
0.0
  0
LINE
  8
0
 62
     0
 10
293.721
 20
95.5724
 30
0.0
 11
294.52
 21
95.5724
 31
0.0
  0
LINE
  8
0
 62
     0
 10
294.52
 20
95.5724
 30
0.0
 11
294.52
 21
94.572
 31
0.0
  0
LINE
  8
0
 62
     0
 10
294.52
 20
94.572
 30
0.0
 11
308.37
 21
94.572
 31
0.0
  0
LINE
  8
0
 62
     0
 10
308.37
 20
94.572
 30
0.0
 11
308.37
 21
95.5724
 31
0.0
  0
LINE
  8
0
 62
     0
 10
308.37
 20
95.5724
 30
0.0
 11
309.171
 21
95.5724
 31
0.0
  0
LINE
  8
0
 62
     0
 10
309.171
 20
95.5724
 30
0.0
 11
309.171
 21
98.5227
 31
0.0
  0
LINE
  8
0
 62
     0
 10
309.171
 20
98.5227
 30
0.0
 11
308.37
 21
98.5227
 31
0.0
  0
LINE
  8
0
 62
     0
 10
308.37
 20
98.5227
 30
0.0
 11
308.37
 21
104.472
 31
0.0
  0
LINE
  8
0
 62
     0
 10
308.37
 20
104.472
 30
0.0
 11
309.171
 21
104.472
 31
0.0
  0
LINE
  8
0
 62
     0
 10
309.171
 20
104.472
 30
0.0
 11
309.171
 21
107.422
 31
0.0
  0
LINE
  8
0
 62
     0
 10
309.171
 20
107.422
 30
0.0
 11
308.37
 21
107.422
 31
0.0
  0
LINE
  8
0
 62
     0
 10
308.37
 20
107.422
 30
0.0
 11
308.37
 21
108.423
 31
0.0
  0
LINE
  8
0
 62
     0
 10
308.37
 20
108.423
 30
0.0
 11
294.52
 21
108.423
 31
0.0
  0
LINE
  8
0
 62
     0
 10
313.57
 20
108.423
 30
0.0
 11
313.57
 21
107.422
 31
0.0
  0
LINE
  8
0
 62
     0
 10
313.57
 20
107.422
 30
0.0
 11
312.771
 21
107.422
 31
0.0
  0
LINE
  8
0
 62
     0
 10
312.771
 20
107.422
 30
0.0
 11
312.771
 21
104.472
 31
0.0
  0
LINE
  8
0
 62
     0
 10
312.771
 20
104.472
 30
0.0
 11
313.57
 21
104.472
 31
0.0
  0
LINE
  8
0
 62
     0
 10
313.57
 20
104.472
 30
0.0
 11
313.57
 21
98.5227
 31
0.0
  0
LINE
  8
0
 62
     0
 10
313.57
 20
98.5227
 30
0.0
 11
312.771
 21
98.5227
 31
0.0
  0
LINE
  8
0
 62
     0
 10
312.771
 20
98.5227
 30
0.0
 11
312.771
 21
95.5724
 31
0.0
  0
LINE
  8
0
 62
     0
 10
312.771
 20
95.5724
 30
0.0
 11
313.57
 21
95.5724
 31
0.0
  0
LINE
  8
0
 62
     0
 10
313.57
 20
95.5724
 30
0.0
 11
313.57
 21
94.572
 31
0.0
  0
LINE
  8
0
 62
     0
 10
313.57
 20
94.572
 30
0.0
 11
327.42
 21
94.572
 31
0.0
  0
LINE
  8
0
 62
     0
 10
327.42
 20
94.572
 30
0.0
 11
327.42
 21
95.5724
 31
0.0
  0
LINE
  8
0
 62
     0
 10
327.42
 20
95.5724
 30
0.0
 11
328.221
 21
95.5724
 31
0.0
  0
LINE
  8
0
 62
     0
 10
328.221
 20
95.5724
 30
0.0
 11
328.221
 21
98.5227
 31
0.0
  0
LINE
  8
0
 62
     0
 10
328.221
 20
98.5227
 30
0.0
 11
327.42
 21
98.5227
 31
0.0
  0
LINE
  8
0
 62
     0
 10
327.42
 20
98.5227
 30
0.0
 11
327.42
 21
104.472
 31
0.0
  0
LINE
  8
0
 62
     0
 10
327.42
 20
104.472
 30
0.0
 11
328.221
 21
104.472
 31
0.0
  0
LINE
  8
0
 62
     0
 10
328.221
 20
104.472
 30
0.0
 11
328.221
 21
107.422
 31
0.0
  0
LINE
  8
0
 62
     0
 10
328.221
 20
107.422
 30
0.0
 11
327.42
 21
107.422
 31
0.0
  0
LINE
  8
0
 62
     0
 10
327.42
 20
107.422
 30
0.0
 11
327.42
 21
108.423
 31
0.0
  0
LINE
  8
0
 62
     0
 10
327.42
 20
108.423
 30
0.0
 11
313.57
 21
108.423
 31
0.0
  0
LINE
  8
0
 62
     0
 10
104.02
 20
117.948
 30
0.0
 11
104.02
 21
116.947
 31
0.0
  0
LINE
  8
0
 62
     0
 10
104.02
 20
116.947
 30
0.0
 11
103.221
 21
116.947
 31
0.0
  0
LINE
  8
0
 62
     0
 10
103.221
 20
116.947
 30
0.0
 11
103.221
 21
113.997
 31
0.0
  0
LINE
  8
0
 62
     0
 10
103.221
 20
113.997
 30
0.0
 11
104.02
 21
113.997
 31
0.0
  0
LINE
  8
0
 62
     0
 10
104.02
 20
113.997
 30
0.0
 11
104.02
 21
108.048
 31
0.0
  0
LINE
  8
0
 62
     0
 10
104.02
 20
108.048
 30
0.0
 11
103.221
 21
108.048
 31
0.0
  0
LINE
  8
0
 62
     0
 10
103.221
 20
108.048
 30
0.0
 11
103.221
 21
105.097
 31
0.0
  0
LINE
  8
0
 62
     0
 10
103.221
 20
105.097
 30
0.0
 11
104.02
 21
105.097
 31
0.0
  0
LINE
  8
0
 62
     0
 10
104.02
 20
105.097
 30
0.0
 11
104.02
 21
104.097
 31
0.0
  0
LINE
  8
0
 62
     0
 10
104.02
 20
104.097
 30
0.0
 11
117.87
 21
104.097
 31
0.0
  0
LINE
  8
0
 62
     0
 10
117.87
 20
104.097
 30
0.0
 11
117.87
 21
105.097
 31
0.0
  0
LINE
  8
0
 62
     0
 10
117.87
 20
105.097
 30
0.0
 11
118.671
 21
105.097
 31
0.0
  0
LINE
  8
0
 62
     0
 10
118.671
 20
105.097
 30
0.0
 11
118.671
 21
108.048
 31
0.0
  0
LINE
  8
0
 62
     0
 10
118.671
 20
108.048
 30
0.0
 11
117.87
 21
108.048
 31
0.0
  0
LINE
  8
0
 62
     0
 10
117.87
 20
108.048
 30
0.0
 11
117.87
 21
113.997
 31
0.0
  0
LINE
  8
0
 62
     0
 10
117.87
 20
113.997
 30
0.0
 11
118.671
 21
113.997
 31
0.0
  0
LINE
  8
0
 62
     0
 10
118.671
 20
113.997
 30
0.0
 11
118.671
 21
116.947
 31
0.0
  0
LINE
  8
0
 62
     0
 10
118.671
 20
116.947
 30
0.0
 11
117.87
 21
116.947
 31
0.0
  0
LINE
  8
0
 62
     0
 10
117.87
 20
116.947
 30
0.0
 11
117.87
 21
117.948
 31
0.0
  0
LINE
  8
0
 62
     0
 10
117.87
 20
117.948
 30
0.0
 11
104.02
 21
117.948
 31
0.0
  0
LINE
  8
0
 62
     0
 10
218.32
 20
117.948
 30
0.0
 11
218.32
 21
116.947
 31
0.0
  0
LINE
  8
0
 62
     0
 10
218.32
 20
116.947
 30
0.0
 11
217.521
 21
116.947
 31
0.0
  0
LINE
  8
0
 62
     0
 10
217.521
 20
116.947
 30
0.0
 11
217.521
 21
113.997
 31
0.0
  0
LINE
  8
0
 62
     0
 10
217.521
 20
113.997
 30
0.0
 11
218.32
 21
113.997
 31
0.0
  0
LINE
  8
0
 62
     0
 10
218.32
 20
113.997
 30
0.0
 11
218.32
 21
108.048
 31
0.0
  0
LINE
  8
0
 62
     0
 10
218.32
 20
108.048
 30
0.0
 11
217.521
 21
108.048
 31
0.0
  0
LINE
  8
0
 62
     0
 10
217.521
 20
108.048
 30
0.0
 11
217.521
 21
105.097
 31
0.0
  0
LINE
  8
0
 62
     0
 10
217.521
 20
105.097
 30
0.0
 11
218.32
 21
105.097
 31
0.0
  0
LINE
  8
0
 62
     0
 10
218.32
 20
105.097
 30
0.0
 11
218.32
 21
104.097
 31
0.0
  0
LINE
  8
0
 62
     0
 10
218.32
 20
104.097
 30
0.0
 11
232.17
 21
104.097
 31
0.0
  0
LINE
  8
0
 62
     0
 10
232.17
 20
104.097
 30
0.0
 11
232.17
 21
105.097
 31
0.0
  0
LINE
  8
0
 62
     0
 10
232.17
 20
105.097
 30
0.0
 11
232.971
 21
105.097
 31
0.0
  0
LINE
  8
0
 62
     0
 10
232.971
 20
105.097
 30
0.0
 11
232.971
 21
108.048
 31
0.0
  0
LINE
  8
0
 62
     0
 10
232.971
 20
108.048
 30
0.0
 11
232.17
 21
108.048
 31
0.0
  0
LINE
  8
0
 62
     0
 10
232.17
 20
108.048
 30
0.0
 11
232.17
 21
113.997
 31
0.0
  0
LINE
  8
0
 62
     0
 10
232.17
 20
113.997
 30
0.0
 11
232.971
 21
113.997
 31
0.0
  0
LINE
  8
0
 62
     0
 10
232.971
 20
113.997
 30
0.0
 11
232.971
 21
116.947
 31
0.0
  0
LINE
  8
0
 62
     0
 10
232.971
 20
116.947
 30
0.0
 11
232.17
 21
116.947
 31
0.0
  0
LINE
  8
0
 62
     0
 10
232.17
 20
116.947
 30
0.0
 11
232.17
 21
117.948
 31
0.0
  0
LINE
  8
0
 62
     0
 10
232.17
 20
117.948
 30
0.0
 11
218.32
 21
117.948
 31
0.0
  0
LINE
  8
0
 62
     0
 10
46.8697
 20
121.758
 30
0.0
 11
46.8697
 21
120.758
 31
0.0
  0
LINE
  8
0
 62
     0
 10
46.8697
 20
120.758
 30
0.0
 11
46.0707
 21
120.758
 31
0.0
  0
LINE
  8
0
 62
     0
 10
46.0707
 20
120.758
 30
0.0
 11
46.0707
 21
117.807
 31
0.0
  0
LINE
  8
0
 62
     0
 10
46.0707
 20
117.807
 30
0.0
 11
46.8697
 21
117.807
 31
0.0
  0
LINE
  8
0
 62
     0
 10
46.8697
 20
117.807
 30
0.0
 11
46.8697
 21
111.857
 31
0.0
  0
LINE
  8
0
 62
     0
 10
46.8697
 20
111.857
 30
0.0
 11
46.0707
 21
111.857
 31
0.0
  0
LINE
  8
0
 62
     0
 10
46.0707
 20
111.857
 30
0.0
 11
46.0707
 21
108.908
 31
0.0
  0
LINE
  8
0
 62
     0
 10
46.0707
 20
108.908
 30
0.0
 11
46.8697
 21
108.908
 31
0.0
  0
LINE
  8
0
 62
     0
 10
46.8697
 20
108.908
 30
0.0
 11
46.8697
 21
107.907
 31
0.0
  0
LINE
  8
0
 62
     0
 10
46.8697
 20
107.907
 30
0.0
 11
60.7205
 21
107.907
 31
0.0
  0
LINE
  8
0
 62
     0
 10
60.7205
 20
107.907
 30
0.0
 11
60.7205
 21
108.908
 31
0.0
  0
LINE
  8
0
 62
     0
 10
60.7205
 20
108.908
 30
0.0
 11
61.5213
 21
108.908
 31
0.0
  0
LINE
  8
0
 62
     0
 10
61.5213
 20
108.908
 30
0.0
 11
61.5213
 21
111.857
 31
0.0
  0
LINE
  8
0
 62
     0
 10
61.5213
 20
111.857
 30
0.0
 11
60.7205
 21
111.857
 31
0.0
  0
LINE
  8
0
 62
     0
 10
60.7205
 20
111.857
 30
0.0
 11
60.7205
 21
117.807
 31
0.0
  0
LINE
  8
0
 62
     0
 10
60.7205
 20
117.807
 30
0.0
 11
61.5213
 21
117.807
 31
0.0
  0
LINE
  8
0
 62
     0
 10
61.5213
 20
117.807
 30
0.0
 11
61.5213
 21
120.758
 31
0.0
  0
LINE
  8
0
 62
     0
 10
61.5213
 20
120.758
 30
0.0
 11
60.7205
 21
120.758
 31
0.0
  0
LINE
  8
0
 62
     0
 10
60.7205
 20
120.758
 30
0.0
 11
60.7205
 21
121.758
 31
0.0
  0
LINE
  8
0
 62
     0
 10
60.7205
 20
121.758
 30
0.0
 11
46.8697
 21
121.758
 31
0.0
  0
LINE
  8
0
 62
     0
 10
65.9197
 20
121.758
 30
0.0
 11
65.9197
 21
120.758
 31
0.0
  0
LINE
  8
0
 62
     0
 10
65.9197
 20
120.758
 30
0.0
 11
65.1207
 21
120.758
 31
0.0
  0
LINE
  8
0
 62
     0
 10
65.1207
 20
120.758
 30
0.0
 11
65.1207
 21
117.807
 31
0.0
  0
LINE
  8
0
 62
     0
 10
65.1207
 20
117.807
 30
0.0
 11
65.9197
 21
117.807
 31
0.0
  0
LINE
  8
0
 62
     0
 10
65.9197
 20
117.807
 30
0.0
 11
65.9197
 21
111.857
 31
0.0
  0
LINE
  8
0
 62
     0
 10
65.9197
 20
111.857
 30
0.0
 11
65.1207
 21
111.857
 31
0.0
  0
LINE
  8
0
 62
     0
 10
65.1207
 20
111.857
 30
0.0
 11
65.1207
 21
108.908
 31
0.0
  0
LINE
  8
0
 62
     0
 10
65.1207
 20
108.908
 30
0.0
 11
65.9197
 21
108.908
 31
0.0
  0
LINE
  8
0
 62
     0
 10
65.9197
 20
108.908
 30
0.0
 11
65.9197
 21
107.907
 31
0.0
  0
LINE
  8
0
 62
     0
 10
65.9197
 20
107.907
 30
0.0
 11
79.7705
 21
107.907
 31
0.0
  0
LINE
  8
0
 62
     0
 10
79.7705
 20
107.907
 30
0.0
 11
79.7705
 21
108.908
 31
0.0
  0
LINE
  8
0
 62
     0
 10
79.7705
 20
108.908
 30
0.0
 11
80.5713
 21
108.908
 31
0.0
  0
LINE
  8
0
 62
     0
 10
80.5713
 20
108.908
 30
0.0
 11
80.5713
 21
111.857
 31
0.0
  0
LINE
  8
0
 62
     0
 10
80.5713
 20
111.857
 30
0.0
 11
79.7705
 21
111.857
 31
0.0
  0
LINE
  8
0
 62
     0
 10
79.7705
 20
111.857
 30
0.0
 11
79.7705
 21
117.807
 31
0.0
  0
LINE
  8
0
 62
     0
 10
79.7705
 20
117.807
 30
0.0
 11
80.5713
 21
117.807
 31
0.0
  0
LINE
  8
0
 62
     0
 10
80.5713
 20
117.807
 30
0.0
 11
80.5713
 21
120.758
 31
0.0
  0
LINE
  8
0
 62
     0
 10
80.5713
 20
120.758
 30
0.0
 11
79.7705
 21
120.758
 31
0.0
  0
LINE
  8
0
 62
     0
 10
79.7705
 20
120.758
 30
0.0
 11
79.7705
 21
121.758
 31
0.0
  0
LINE
  8
0
 62
     0
 10
79.7705
 20
121.758
 30
0.0
 11
65.9197
 21
121.758
 31
0.0
  0
LINE
  8
0
 62
     0
 10
84.9697
 20
121.758
 30
0.0
 11
84.9697
 21
120.758
 31
0.0
  0
LINE
  8
0
 62
     0
 10
84.9697
 20
120.758
 30
0.0
 11
84.1707
 21
120.758
 31
0.0
  0
LINE
  8
0
 62
     0
 10
84.1707
 20
120.758
 30
0.0
 11
84.1707
 21
117.807
 31
0.0
  0
LINE
  8
0
 62
     0
 10
84.1707
 20
117.807
 30
0.0
 11
84.9697
 21
117.807
 31
0.0
  0
LINE
  8
0
 62
     0
 10
84.9697
 20
117.807
 30
0.0
 11
84.9697
 21
111.857
 31
0.0
  0
LINE
  8
0
 62
     0
 10
84.9697
 20
111.857
 30
0.0
 11
84.1707
 21
111.857
 31
0.0
  0
LINE
  8
0
 62
     0
 10
84.1707
 20
111.857
 30
0.0
 11
84.1707
 21
108.908
 31
0.0
  0
LINE
  8
0
 62
     0
 10
84.1707
 20
108.908
 30
0.0
 11
84.9697
 21
108.908
 31
0.0
  0
LINE
  8
0
 62
     0
 10
84.9697
 20
108.908
 30
0.0
 11
84.9697
 21
107.907
 31
0.0
  0
LINE
  8
0
 62
     0
 10
84.9697
 20
107.907
 30
0.0
 11
98.8205
 21
107.907
 31
0.0
  0
LINE
  8
0
 62
     0
 10
98.8205
 20
107.907
 30
0.0
 11
98.8205
 21
108.908
 31
0.0
  0
LINE
  8
0
 62
     0
 10
98.8205
 20
108.908
 30
0.0
 11
99.6199
 21
108.908
 31
0.0
  0
LINE
  8
0
 62
     0
 10
99.6199
 20
108.908
 30
0.0
 11
99.6199
 21
111.857
 31
0.0
  0
LINE
  8
0
 62
     0
 10
99.6199
 20
111.857
 30
0.0
 11
98.8205
 21
111.857
 31
0.0
  0
LINE
  8
0
 62
     0
 10
98.8205
 20
111.857
 30
0.0
 11
98.8205
 21
117.807
 31
0.0
  0
LINE
  8
0
 62
     0
 10
98.8205
 20
117.807
 30
0.0
 11
99.6199
 21
117.807
 31
0.0
  0
LINE
  8
0
 62
     0
 10
99.6199
 20
117.807
 30
0.0
 11
99.6199
 21
120.758
 31
0.0
  0
LINE
  8
0
 62
     0
 10
99.6199
 20
120.758
 30
0.0
 11
98.8205
 21
120.758
 31
0.0
  0
LINE
  8
0
 62
     0
 10
98.8205
 20
120.758
 30
0.0
 11
98.8205
 21
121.758
 31
0.0
  0
LINE
  8
0
 62
     0
 10
98.8205
 20
121.758
 30
0.0
 11
84.9697
 21
121.758
 31
0.0
  0
LINE
  8
0
 62
     0
 10
237.37
 20
121.758
 30
0.0
 11
237.37
 21
120.758
 31
0.0
  0
LINE
  8
0
 62
     0
 10
237.37
 20
120.758
 30
0.0
 11
236.571
 21
120.758
 31
0.0
  0
LINE
  8
0
 62
     0
 10
236.571
 20
120.758
 30
0.0
 11
236.571
 21
117.807
 31
0.0
  0
LINE
  8
0
 62
     0
 10
236.571
 20
117.807
 30
0.0
 11
237.37
 21
117.807
 31
0.0
  0
LINE
  8
0
 62
     0
 10
237.37
 20
117.807
 30
0.0
 11
237.37
 21
111.857
 31
0.0
  0
LINE
  8
0
 62
     0
 10
237.37
 20
111.857
 30
0.0
 11
236.571
 21
111.857
 31
0.0
  0
LINE
  8
0
 62
     0
 10
236.571
 20
111.857
 30
0.0
 11
236.571
 21
108.908
 31
0.0
  0
LINE
  8
0
 62
     0
 10
236.571
 20
108.908
 30
0.0
 11
237.37
 21
108.908
 31
0.0
  0
LINE
  8
0
 62
     0
 10
237.37
 20
108.908
 30
0.0
 11
237.37
 21
107.907
 31
0.0
  0
LINE
  8
0
 62
     0
 10
237.37
 20
107.907
 30
0.0
 11
251.22
 21
107.907
 31
0.0
  0
LINE
  8
0
 62
     0
 10
251.22
 20
107.907
 30
0.0
 11
251.22
 21
108.908
 31
0.0
  0
LINE
  8
0
 62
     0
 10
251.22
 20
108.908
 30
0.0
 11
252.021
 21
108.908
 31
0.0
  0
LINE
  8
0
 62
     0
 10
252.021
 20
108.908
 30
0.0
 11
252.021
 21
111.857
 31
0.0
  0
LINE
  8
0
 62
     0
 10
252.021
 20
111.857
 30
0.0
 11
251.22
 21
111.857
 31
0.0
  0
LINE
  8
0
 62
     0
 10
251.22
 20
111.857
 30
0.0
 11
251.22
 21
117.807
 31
0.0
  0
LINE
  8
0
 62
     0
 10
251.22
 20
117.807
 30
0.0
 11
252.021
 21
117.807
 31
0.0
  0
LINE
  8
0
 62
     0
 10
252.021
 20
117.807
 30
0.0
 11
252.021
 21
120.758
 31
0.0
  0
LINE
  8
0
 62
     0
 10
252.021
 20
120.758
 30
0.0
 11
251.22
 21
120.758
 31
0.0
  0
LINE
  8
0
 62
     0
 10
251.22
 20
120.758
 30
0.0
 11
251.22
 21
121.758
 31
0.0
  0
LINE
  8
0
 62
     0
 10
251.22
 20
121.758
 30
0.0
 11
237.37
 21
121.758
 31
0.0
  0
LINE
  8
0
 62
     0
 10
256.42
 20
121.758
 30
0.0
 11
256.42
 21
120.758
 31
0.0
  0
LINE
  8
0
 62
     0
 10
256.42
 20
120.758
 30
0.0
 11
255.619
 21
120.758
 31
0.0
  0
LINE
  8
0
 62
     0
 10
255.619
 20
120.758
 30
0.0
 11
255.619
 21
117.807
 31
0.0
  0
LINE
  8
0
 62
     0
 10
255.619
 20
117.807
 30
0.0
 11
256.42
 21
117.807
 31
0.0
  0
LINE
  8
0
 62
     0
 10
256.42
 20
117.807
 30
0.0
 11
256.42
 21
111.857
 31
0.0
  0
LINE
  8
0
 62
     0
 10
256.42
 20
111.857
 30
0.0
 11
255.619
 21
111.857
 31
0.0
  0
LINE
  8
0
 62
     0
 10
255.619
 20
111.857
 30
0.0
 11
255.619
 21
108.908
 31
0.0
  0
LINE
  8
0
 62
     0
 10
255.619
 20
108.908
 30
0.0
 11
256.42
 21
108.908
 31
0.0
  0
LINE
  8
0
 62
     0
 10
256.42
 20
108.908
 30
0.0
 11
256.42
 21
107.907
 31
0.0
  0
LINE
  8
0
 62
     0
 10
256.42
 20
107.907
 30
0.0
 11
270.27
 21
107.907
 31
0.0
  0
LINE
  8
0
 62
     0
 10
270.27
 20
107.907
 30
0.0
 11
270.27
 21
108.908
 31
0.0
  0
LINE
  8
0
 62
     0
 10
270.27
 20
108.908
 30
0.0
 11
271.071
 21
108.908
 31
0.0
  0
LINE
  8
0
 62
     0
 10
271.071
 20
108.908
 30
0.0
 11
271.071
 21
111.857
 31
0.0
  0
LINE
  8
0
 62
     0
 10
271.071
 20
111.857
 30
0.0
 11
270.27
 21
111.857
 31
0.0
  0
LINE
  8
0
 62
     0
 10
270.27
 20
111.857
 30
0.0
 11
270.27
 21
117.807
 31
0.0
  0
LINE
  8
0
 62
     0
 10
270.27
 20
117.807
 30
0.0
 11
271.071
 21
117.807
 31
0.0
  0
LINE
  8
0
 62
     0
 10
271.071
 20
117.807
 30
0.0
 11
271.071
 21
120.758
 31
0.0
  0
LINE
  8
0
 62
     0
 10
271.071
 20
120.758
 30
0.0
 11
270.27
 21
120.758
 31
0.0
  0
LINE
  8
0
 62
     0
 10
270.27
 20
120.758
 30
0.0
 11
270.27
 21
121.758
 31
0.0
  0
LINE
  8
0
 62
     0
 10
270.27
 20
121.758
 30
0.0
 11
256.42
 21
121.758
 31
0.0
  0
LINE
  8
0
 62
     0
 10
275.47
 20
121.758
 30
0.0
 11
275.47
 21
120.758
 31
0.0
  0
LINE
  8
0
 62
     0
 10
275.47
 20
120.758
 30
0.0
 11
274.671
 21
120.758
 31
0.0
  0
LINE
  8
0
 62
     0
 10
274.671
 20
120.758
 30
0.0
 11
274.671
 21
117.807
 31
0.0
  0
LINE
  8
0
 62
     0
 10
274.671
 20
117.807
 30
0.0
 11
275.47
 21
117.807
 31
0.0
  0
LINE
  8
0
 62
     0
 10
275.47
 20
117.807
 30
0.0
 11
275.47
 21
111.857
 31
0.0
  0
LINE
  8
0
 62
     0
 10
275.47
 20
111.857
 30
0.0
 11
274.671
 21
111.857
 31
0.0
  0
LINE
  8
0
 62
     0
 10
274.671
 20
111.857
 30
0.0
 11
274.671
 21
108.908
 31
0.0
  0
LINE
  8
0
 62
     0
 10
274.671
 20
108.908
 30
0.0
 11
275.47
 21
108.908
 31
0.0
  0
LINE
  8
0
 62
     0
 10
275.47
 20
108.908
 30
0.0
 11
275.47
 21
107.907
 31
0.0
  0
LINE
  8
0
 62
     0
 10
275.47
 20
107.907
 30
0.0
 11
289.32
 21
107.907
 31
0.0
  0
LINE
  8
0
 62
     0
 10
289.32
 20
107.907
 30
0.0
 11
289.32
 21
108.908
 31
0.0
  0
LINE
  8
0
 62
     0
 10
289.32
 20
108.908
 30
0.0
 11
290.121
 21
108.908
 31
0.0
  0
LINE
  8
0
 62
     0
 10
290.121
 20
108.908
 30
0.0
 11
290.121
 21
111.857
 31
0.0
  0
LINE
  8
0
 62
     0
 10
290.121
 20
111.857
 30
0.0
 11
289.32
 21
111.857
 31
0.0
  0
LINE
  8
0
 62
     0
 10
289.32
 20
111.857
 30
0.0
 11
289.32
 21
117.807
 31
0.0
  0
LINE
  8
0
 62
     0
 10
289.32
 20
117.807
 30
0.0
 11
290.121
 21
117.807
 31
0.0
  0
LINE
  8
0
 62
     0
 10
290.121
 20
117.807
 30
0.0
 11
290.121
 21
120.758
 31
0.0
  0
LINE
  8
0
 62
     0
 10
290.121
 20
120.758
 30
0.0
 11
289.32
 21
120.758
 31
0.0
  0
LINE
  8
0
 62
     0
 10
289.32
 20
120.758
 30
0.0
 11
289.32
 21
121.758
 31
0.0
  0
LINE
  8
0
 62
     0
 10
289.32
 20
121.758
 30
0.0
 11
275.47
 21
121.758
 31
0.0
  0
LINE
  8
0
 62
     0
 10
84.9119
 20
129.308
 30
0.0
 11
84.486
 21
129.092
 31
0.0
  0
LINE
  8
0
 62
     0
 10
84.486
 20
129.092
 30
0.0
 11
84.1484
 21
128.754
 31
0.0
  0
LINE
  8
0
 62
     0
 10
84.1484
 20
128.754
 30
0.0
 11
83.9322
 21
128.33
 31
0.0
  0
LINE
  8
0
 62
     0
 10
83.9322
 20
128.33
 30
0.0
 11
83.8577
 21
127.857
 31
0.0
  0
LINE
  8
0
 62
     0
 10
83.8577
 20
127.857
 30
0.0
 11
83.9322
 21
127.387
 31
0.0
  0
LINE
  8
0
 62
     0
 10
83.9322
 20
127.387
 30
0.0
 11
84.1484
 21
126.962
 31
0.0
  0
LINE
  8
0
 62
     0
 10
84.1484
 20
126.962
 30
0.0
 11
84.486
 21
126.624
 31
0.0
  0
LINE
  8
0
 62
     0
 10
84.486
 20
126.624
 30
0.0
 11
84.9119
 21
126.407
 31
0.0
  0
LINE
  8
0
 62
     0
 10
84.9119
 20
126.407
 30
0.0
 11
85.3817
 21
126.331
 31
0.0
  0
LINE
  8
0
 62
     0
 10
85.3817
 20
126.331
 30
0.0
 11
85.8545
 21
126.407
 31
0.0
  0
LINE
  8
0
 62
     0
 10
85.8545
 20
126.407
 30
0.0
 11
86.2789
 21
126.624
 31
0.0
  0
LINE
  8
0
 62
     0
 10
86.2789
 20
126.624
 30
0.0
 11
86.6165
 21
126.962
 31
0.0
  0
LINE
  8
0
 62
     0
 10
86.6165
 20
126.962
 30
0.0
 11
86.8331
 21
127.387
 31
0.0
  0
LINE
  8
0
 62
     0
 10
86.8331
 20
127.387
 30
0.0
 11
86.9075
 21
127.857
 31
0.0
  0
LINE
  8
0
 62
     0
 10
86.9075
 20
127.857
 30
0.0
 11
86.8331
 21
128.33
 31
0.0
  0
LINE
  8
0
 62
     0
 10
86.8331
 20
128.33
 30
0.0
 11
86.6165
 21
128.754
 31
0.0
  0
LINE
  8
0
 62
     0
 10
86.6165
 20
128.754
 30
0.0
 11
86.2789
 21
129.092
 31
0.0
  0
LINE
  8
0
 62
     0
 10
86.2789
 20
129.092
 30
0.0
 11
85.8545
 21
129.308
 31
0.0
  0
LINE
  8
0
 62
     0
 10
85.8545
 20
129.308
 30
0.0
 11
85.3817
 21
129.383
 31
0.0
  0
LINE
  8
0
 62
     0
 10
85.3817
 20
129.383
 30
0.0
 11
84.9119
 21
129.308
 31
0.0
  0
LINE
  8
0
 62
     0
 10
167.624
 20
129.308
 30
0.0
 11
167.2
 21
129.092
 31
0.0
  0
LINE
  8
0
 62
     0
 10
167.2
 20
129.092
 30
0.0
 11
166.861
 21
128.754
 31
0.0
  0
LINE
  8
0
 62
     0
 10
166.861
 20
128.754
 30
0.0
 11
166.646
 21
128.33
 31
0.0
  0
LINE
  8
0
 62
     0
 10
166.646
 20
128.33
 30
0.0
 11
166.57
 21
127.857
 31
0.0
  0
LINE
  8
0
 62
     0
 10
166.57
 20
127.857
 30
0.0
 11
166.646
 21
127.387
 31
0.0
  0
LINE
  8
0
 62
     0
 10
166.646
 20
127.387
 30
0.0
 11
166.861
 21
126.962
 31
0.0
  0
LINE
  8
0
 62
     0
 10
166.861
 20
126.962
 30
0.0
 11
167.2
 21
126.624
 31
0.0
  0
LINE
  8
0
 62
     0
 10
167.2
 20
126.624
 30
0.0
 11
167.624
 21
126.407
 31
0.0
  0
LINE
  8
0
 62
     0
 10
167.624
 20
126.407
 30
0.0
 11
168.096
 21
126.331
 31
0.0
  0
LINE
  8
0
 62
     0
 10
168.096
 20
126.331
 30
0.0
 11
168.567
 21
126.407
 31
0.0
  0
LINE
  8
0
 62
     0
 10
168.567
 20
126.407
 30
0.0
 11
168.991
 21
126.624
 31
0.0
  0
LINE
  8
0
 62
     0
 10
168.991
 20
126.624
 30
0.0
 11
169.329
 21
126.962
 31
0.0
  0
LINE
  8
0
 62
     0
 10
169.329
 20
126.962
 30
0.0
 11
169.546
 21
127.387
 31
0.0
  0
LINE
  8
0
 62
     0
 10
169.546
 20
127.387
 30
0.0
 11
169.62
 21
127.857
 31
0.0
  0
LINE
  8
0
 62
     0
 10
169.62
 20
127.857
 30
0.0
 11
169.546
 21
128.33
 31
0.0
  0
LINE
  8
0
 62
     0
 10
169.546
 20
128.33
 30
0.0
 11
169.329
 21
128.754
 31
0.0
  0
LINE
  8
0
 62
     0
 10
169.329
 20
128.754
 30
0.0
 11
168.991
 21
129.092
 31
0.0
  0
LINE
  8
0
 62
     0
 10
168.991
 20
129.092
 30
0.0
 11
168.567
 21
129.308
 31
0.0
  0
LINE
  8
0
 62
     0
 10
168.567
 20
129.308
 30
0.0
 11
168.096
 21
129.383
 31
0.0
  0
LINE
  8
0
 62
     0
 10
168.096
 20
129.383
 30
0.0
 11
167.624
 21
129.308
 31
0.0
  0
LINE
  8
0
 62
     0
 10
250.337
 20
129.308
 30
0.0
 11
249.911
 21
129.092
 31
0.0
  0
LINE
  8
0
 62
     0
 10
249.911
 20
129.092
 30
0.0
 11
249.575
 21
128.754
 31
0.0
  0
LINE
  8
0
 62
     0
 10
249.575
 20
128.754
 30
0.0
 11
249.357
 21
128.33
 31
0.0
  0
LINE
  8
0
 62
     0
 10
249.357
 20
128.33
 30
0.0
 11
249.283
 21
127.857
 31
0.0
  0
LINE
  8
0
 62
     0
 10
249.283
 20
127.857
 30
0.0
 11
249.357
 21
127.387
 31
0.0
  0
LINE
  8
0
 62
     0
 10
249.357
 20
127.387
 30
0.0
 11
249.575
 21
126.962
 31
0.0
  0
LINE
  8
0
 62
     0
 10
249.575
 20
126.962
 30
0.0
 11
249.911
 21
126.624
 31
0.0
  0
LINE
  8
0
 62
     0
 10
249.911
 20
126.624
 30
0.0
 11
250.337
 21
126.407
 31
0.0
  0
LINE
  8
0
 62
     0
 10
250.337
 20
126.407
 30
0.0
 11
250.808
 21
126.331
 31
0.0
  0
LINE
  8
0
 62
     0
 10
250.808
 20
126.331
 30
0.0
 11
251.28
 21
126.407
 31
0.0
  0
LINE
  8
0
 62
     0
 10
251.28
 20
126.407
 30
0.0
 11
251.703
 21
126.624
 31
0.0
  0
LINE
  8
0
 62
     0
 10
251.703
 20
126.624
 30
0.0
 11
252.042
 21
126.962
 31
0.0
  0
LINE
  8
0
 62
     0
 10
252.042
 20
126.962
 30
0.0
 11
252.258
 21
127.387
 31
0.0
  0
LINE
  8
0
 62
     0
 10
252.258
 20
127.387
 30
0.0
 11
252.334
 21
127.857
 31
0.0
  0
LINE
  8
0
 62
     0
 10
252.334
 20
127.857
 30
0.0
 11
252.258
 21
128.33
 31
0.0
  0
LINE
  8
0
 62
     0
 10
252.258
 20
128.33
 30
0.0
 11
252.042
 21
128.754
 31
0.0
  0
LINE
  8
0
 62
     0
 10
252.042
 20
128.754
 30
0.0
 11
251.703
 21
129.092
 31
0.0
  0
LINE
  8
0
 62
     0
 10
251.703
 20
129.092
 30
0.0
 11
251.28
 21
129.308
 31
0.0
  0
LINE
  8
0
 62
     0
 10
251.28
 20
129.308
 30
0.0
 11
250.808
 21
129.383
 31
0.0
  0
LINE
  8
0
 62
     0
 10
250.808
 20
129.383
 30
0.0
 11
250.337
 21
129.308
 31
0.0
  0
LINE
  8
0
 62
     0
 10
333.05
 20
129.308
 30
0.0
 11
332.624
 21
129.092
 31
0.0
  0
LINE
  8
0
 62
     0
 10
332.624
 20
129.092
 30
0.0
 11
332.288
 21
128.754
 31
0.0
  0
LINE
  8
0
 62
     0
 10
332.288
 20
128.754
 30
0.0
 11
332.07
 21
128.33
 31
0.0
  0
LINE
  8
0
 62
     0
 10
332.07
 20
128.33
 30
0.0
 11
331.997
 21
127.857
 31
0.0
  0
LINE
  8
0
 62
     0
 10
331.997
 20
127.857
 30
0.0
 11
332.07
 21
127.387
 31
0.0
  0
LINE
  8
0
 62
     0
 10
332.07
 20
127.387
 30
0.0
 11
332.288
 21
126.962
 31
0.0
  0
LINE
  8
0
 62
     0
 10
332.288
 20
126.962
 30
0.0
 11
332.624
 21
126.624
 31
0.0
  0
LINE
  8
0
 62
     0
 10
332.624
 20
126.624
 30
0.0
 11
333.05
 21
126.407
 31
0.0
  0
LINE
  8
0
 62
     0
 10
333.05
 20
126.407
 30
0.0
 11
333.521
 21
126.331
 31
0.0
  0
LINE
  8
0
 62
     0
 10
333.521
 20
126.331
 30
0.0
 11
333.992
 21
126.407
 31
0.0
  0
LINE
  8
0
 62
     0
 10
333.992
 20
126.407
 30
0.0
 11
334.418
 21
126.624
 31
0.0
  0
LINE
  8
0
 62
     0
 10
334.418
 20
126.624
 30
0.0
 11
334.754
 21
126.962
 31
0.0
  0
LINE
  8
0
 62
     0
 10
334.754
 20
126.962
 30
0.0
 11
334.972
 21
127.387
 31
0.0
  0
LINE
  8
0
 62
     0
 10
334.972
 20
127.387
 30
0.0
 11
335.046
 21
127.857
 31
0.0
  0
LINE
  8
0
 62
     0
 10
335.046
 20
127.857
 30
0.0
 11
334.972
 21
128.33
 31
0.0
  0
LINE
  8
0
 62
     0
 10
334.972
 20
128.33
 30
0.0
 11
334.754
 21
128.754
 31
0.0
  0
LINE
  8
0
 62
     0
 10
334.754
 20
128.754
 30
0.0
 11
334.418
 21
129.092
 31
0.0
  0
LINE
  8
0
 62
     0
 10
334.418
 20
129.092
 30
0.0
 11
333.992
 21
129.308
 31
0.0
  0
LINE
  8
0
 62
     0
 10
333.992
 20
129.308
 30
0.0
 11
333.521
 21
129.383
 31
0.0
  0
LINE
  8
0
 62
     0
 10
333.521
 20
129.383
 30
0.0
 11
333.05
 21
129.308
 31
0.0
  0
LINE
  8
0
 62
     0
 10
2.19797
 20
129.308
 30
0.0
 11
1.77353
 21
129.092
 31
0.0
  0
LINE
  8
0
 62
     0
 10
1.77353
 20
129.092
 30
0.0
 11
1.43591
 21
128.754
 31
0.0
  0
LINE
  8
0
 62
     0
 10
1.43591
 20
128.754
 30
0.0
 11
1.21956
 21
128.33
 31
0.0
  0
LINE
  8
0
 62
     0
 10
1.21956
 20
128.33
 30
0.0
 11
1.14515
 21
127.857
 31
0.0
  0
LINE
  8
0
 62
     0
 10
1.14515
 20
127.857
 30
0.0
 11
1.21956
 21
127.387
 31
0.0
  0
LINE
  8
0
 62
     0
 10
1.21956
 20
127.387
 30
0.0
 11
1.43591
 21
126.962
 31
0.0
  0
LINE
  8
0
 62
     0
 10
1.43591
 20
126.962
 30
0.0
 11
1.77353
 21
126.624
 31
0.0
  0
LINE
  8
0
 62
     0
 10
1.77353
 20
126.624
 30
0.0
 11
2.19797
 21
126.407
 31
0.0
  0
LINE
  8
0
 62
     0
 10
2.19797
 20
126.407
 30
0.0
 11
2.67064
 21
126.331
 31
0.0
  0
LINE
  8
0
 62
     0
 10
2.67064
 20
126.331
 30
0.0
 11
3.14055
 21
126.407
 31
0.0
  0
LINE
  8
0
 62
     0
 10
3.14055
 20
126.407
 30
0.0
 11
3.56637
 21
126.624
 31
0.0
  0
LINE
  8
0
 62
     0
 10
3.56637
 20
126.624
 30
0.0
 11
3.90398
 21
126.962
 31
0.0
  0
LINE
  8
0
 62
     0
 10
3.90398
 20
126.962
 30
0.0
 11
4.12034
 21
127.387
 31
0.0
  0
LINE
  8
0
 62
     0
 10
4.12034
 20
127.387
 30
0.0
 11
4.19612
 21
127.857
 31
0.0
  0
LINE
  8
0
 62
     0
 10
4.19612
 20
127.857
 30
0.0
 11
4.12034
 21
128.33
 31
0.0
  0
LINE
  8
0
 62
     0
 10
4.12034
 20
128.33
 30
0.0
 11
3.90398
 21
128.754
 31
0.0
  0
LINE
  8
0
 62
     0
 10
3.90398
 20
128.754
 30
0.0
 11
3.56637
 21
129.092
 31
0.0
  0
LINE
  8
0
 62
     0
 10
3.56637
 20
129.092
 30
0.0
 11
3.14055
 21
129.308
 31
0.0
  0
LINE
  8
0
 62
     0
 10
3.14055
 20
129.308
 30
0.0
 11
2.67064
 21
129.383
 31
0.0
  0
LINE
  8
0
 62
     0
 10
2.67064
 20
129.383
 30
0.0
 11
2.19797
 21
129.308
 31
0.0
  0
ENDSEC
  0
EOF
