  0
SECTION
  2
HEADER
  9
$ACADVER
  1
AC1009
  9
$FILLMODE
 70
 0
  9
$SPLFRAME
 70
 1
  9
$EXTMIN
 10
0
 20
0
 30
0.0
  9
$EXTMAX
 10
1058.33
 20
1058.33
 30
0.0
  0
ENDSEC
  0
SECTION
  2
TABLES
  0
TABLE
  2
LAYER
 70
1
  0
LAYER
  2
0
 70
     0
 62
     7
  6
CONTINUOUS
  0
ENDTAB
  0
ENDSEC
  0
SECTION
  2
ENTITIES
  0
LINE
  8
0
 62
     0
 10
334.097
 20
130.433
 30
0.0
 11
334.253
 21
130.426
 31
0.0
  0
LINE
  8
0
 62
     0
 10
334.253
 20
130.426
 30
0.0
 11
334.409
 21
130.408
 31
0.0
  0
LINE
  8
0
 62
     0
 10
334.409
 20
130.408
 30
0.0
 11
334.563
 21
130.377
 31
0.0
  0
LINE
  8
0
 62
     0
 10
334.563
 20
130.377
 30
0.0
 11
334.714
 21
130.335
 31
0.0
  0
LINE
  8
0
 62
     0
 10
334.714
 20
130.335
 30
0.0
 11
334.862
 21
130.28
 31
0.0
  0
LINE
  8
0
 62
     0
 10
334.862
 20
130.28
 30
0.0
 11
335.004
 21
130.215
 31
0.0
  0
LINE
  8
0
 62
     0
 10
335.004
 20
130.215
 30
0.0
 11
335.14
 21
130.138
 31
0.0
  0
LINE
  8
0
 62
     0
 10
335.14
 20
130.138
 30
0.0
 11
335.271
 21
130.051
 31
0.0
  0
LINE
  8
0
 62
     0
 10
335.271
 20
130.051
 30
0.0
 11
335.394
 21
129.953
 31
0.0
  0
LINE
  8
0
 62
     0
 10
335.394
 20
129.953
 30
0.0
 11
335.511
 21
129.847
 31
0.0
  0
LINE
  8
0
 62
     0
 10
335.511
 20
129.847
 30
0.0
 11
335.617
 21
129.731
 31
0.0
  0
LINE
  8
0
 62
     0
 10
335.617
 20
129.731
 30
0.0
 11
335.715
 21
129.609
 31
0.0
  0
LINE
  8
0
 62
     0
 10
335.715
 20
129.609
 30
0.0
 11
335.802
 21
129.478
 31
0.0
  0
LINE
  8
0
 62
     0
 10
335.802
 20
129.478
 30
0.0
 11
335.879
 21
129.34
 31
0.0
  0
LINE
  8
0
 62
     0
 10
335.879
 20
129.34
 30
0.0
 11
335.944
 21
129.198
 31
0.0
  0
LINE
  8
0
 62
     0
 10
335.944
 20
129.198
 30
0.0
 11
335.999
 21
129.052
 31
0.0
  0
LINE
  8
0
 62
     0
 10
335.999
 20
129.052
 30
0.0
 11
336.04
 21
128.899
 31
0.0
  0
LINE
  8
0
 62
     0
 10
336.04
 20
128.899
 30
0.0
 11
336.072
 21
128.746
 31
0.0
  0
LINE
  8
0
 62
     0
 10
336.072
 20
128.746
 30
0.0
 11
336.09
 21
128.589
 31
0.0
  0
LINE
  8
0
 62
     0
 10
336.09
 20
128.589
 30
0.0
 11
336.097
 21
128.432
 31
0.0
  0
LINE
  8
0
 62
     0
 10
336.097
 20
128.432
 30
0.0
 11
336.097
 21
2.17179
 31
0.0
  0
LINE
  8
0
 62
     0
 10
336.097
 20
2.17179
 30
0.0
 11
336.09
 21
2.01469
 31
0.0
  0
LINE
  8
0
 62
     0
 10
336.09
 20
2.01469
 30
0.0
 11
336.072
 21
1.85897
 31
0.0
  0
LINE
  8
0
 62
     0
 10
336.072
 20
1.85897
 30
0.0
 11
336.04
 21
1.70463
 31
0.0
  0
LINE
  8
0
 62
     0
 10
336.04
 20
1.70463
 30
0.0
 11
335.999
 21
1.55305
 31
0.0
  0
LINE
  8
0
 62
     0
 10
335.999
 20
1.55305
 30
0.0
 11
335.944
 21
1.40698
 31
0.0
  0
LINE
  8
0
 62
     0
 10
335.944
 20
1.40698
 30
0.0
 11
335.879
 21
1.26366
 31
0.0
  0
LINE
  8
0
 62
     0
 10
335.879
 20
1.26366
 30
0.0
 11
335.802
 21
1.12723
 31
0.0
  0
LINE
  8
0
 62
     0
 10
335.802
 20
1.12723
 30
0.0
 11
335.715
 21
0.996322
 31
0.0
  0
LINE
  8
0
 62
     0
 10
335.715
 20
0.996322
 30
0.0
 11
335.617
 21
0.873675
 31
0.0
  0
LINE
  8
0
 62
     0
 10
335.617
 20
0.873675
 30
0.0
 11
335.511
 21
0.757922
 31
0.0
  0
LINE
  8
0
 62
     0
 10
335.511
 20
0.757922
 30
0.0
 11
335.394
 21
0.651813
 31
0.0
  0
LINE
  8
0
 62
     0
 10
335.394
 20
0.651813
 30
0.0
 11
335.271
 21
0.55397
 31
0.0
  0
LINE
  8
0
 62
     0
 10
335.271
 20
0.55397
 30
0.0
 11
335.14
 21
0.465776
 31
0.0
  0
LINE
  8
0
 62
     0
 10
335.14
 20
0.465776
 30
0.0
 11
335.004
 21
0.388606
 31
0.0
  0
LINE
  8
0
 62
     0
 10
335.004
 20
0.388606
 30
0.0
 11
334.862
 21
0.323839
 31
0.0
  0
LINE
  8
0
 62
     0
 10
334.862
 20
0.323839
 30
0.0
 11
334.714
 21
0.268718
 31
0.0
  0
LINE
  8
0
 62
     0
 10
334.714
 20
0.268718
 30
0.0
 11
334.563
 21
0.227376
 31
0.0
  0
LINE
  8
0
 62
     0
 10
334.563
 20
0.227376
 30
0.0
 11
334.409
 21
0.195682
 31
0.0
  0
LINE
  8
0
 62
     0
 10
334.409
 20
0.195682
 30
0.0
 11
334.253
 21
0.177767
 31
0.0
  0
LINE
  8
0
 62
     0
 10
334.253
 20
0.177767
 30
0.0
 11
334.096
 21
0.170877
 31
0.0
  0
LINE
  8
0
 62
     0
 10
334.096
 20
0.170877
 30
0.0
 11
2.096
 21
0.170877
 31
0.0
  0
LINE
  8
0
 62
     0
 10
2.096
 20
0.170877
 30
0.0
 11
1.9389
 21
0.177767
 31
0.0
  0
LINE
  8
0
 62
     0
 10
1.9389
 20
0.177767
 30
0.0
 11
1.7818
 21
0.195682
 31
0.0
  0
LINE
  8
0
 62
     0
 10
1.7818
 20
0.195682
 30
0.0
 11
1.62884
 21
0.227376
 31
0.0
  0
LINE
  8
0
 62
     0
 10
1.62884
 20
0.227376
 30
0.0
 11
1.47588
 21
0.268718
 31
0.0
  0
LINE
  8
0
 62
     0
 10
1.47588
 20
0.268718
 30
0.0
 11
1.32981
 21
0.323839
 31
0.0
  0
LINE
  8
0
 62
     0
 10
1.32981
 20
0.323839
 30
0.0
 11
1.18787
 21
0.388606
 31
0.0
  0
LINE
  8
0
 62
     0
 10
1.18787
 20
0.388606
 30
0.0
 11
1.05006
 21
0.465776
 31
0.0
  0
LINE
  8
0
 62
     0
 10
1.05006
 20
0.465776
 30
0.0
 11
0.919152
 21
0.55397
 31
0.0
  0
LINE
  8
0
 62
     0
 10
0.919152
 20
0.55397
 30
0.0
 11
0.796505
 21
0.651813
 31
0.0
  0
LINE
  8
0
 62
     0
 10
0.796505
 20
0.651813
 30
0.0
 11
0.680752
 21
0.757922
 31
0.0
  0
LINE
  8
0
 62
     0
 10
0.680752
 20
0.757922
 30
0.0
 11
0.574643
 21
0.873675
 31
0.0
  0
LINE
  8
0
 62
     0
 10
0.574643
 20
0.873675
 30
0.0
 11
0.4768
 21
0.996322
 31
0.0
  0
LINE
  8
0
 62
     0
 10
0.4768
 20
0.996322
 30
0.0
 11
0.389985
 21
1.12723
 31
0.0
  0
LINE
  8
0
 62
     0
 10
0.389985
 20
1.12723
 30
0.0
 11
0.312815
 21
1.26366
 31
0.0
  0
LINE
  8
0
 62
     0
 10
0.312815
 20
1.26366
 30
0.0
 11
0.248047
 21
1.40698
 31
0.0
  0
LINE
  8
0
 62
     0
 10
0.248047
 20
1.40698
 30
0.0
 11
0.192925
 21
1.55305
 31
0.0
  0
LINE
  8
0
 62
     0
 10
0.192925
 20
1.55305
 30
0.0
 11
0.150206
 21
1.70463
 31
0.0
  0
LINE
  8
0
 62
     0
 10
0.150206
 20
1.70463
 30
0.0
 11
0.119889
 21
1.85897
 31
0.0
  0
LINE
  8
0
 62
     0
 10
0.119889
 20
1.85897
 30
0.0
 11
0.101975
 21
2.01469
 31
0.0
  0
LINE
  8
0
 62
     0
 10
0.101975
 20
2.01469
 30
0.0
 11
0.0950846
 21
2.17179
 31
0.0
  0
LINE
  8
0
 62
     0
 10
0.0950846
 20
2.17179
 30
0.0
 11
0.0950846
 21
128.432
 31
0.0
  0
LINE
  8
0
 62
     0
 10
0.0950846
 20
128.432
 30
0.0
 11
0.101975
 21
128.589
 31
0.0
  0
LINE
  8
0
 62
     0
 10
0.101975
 20
128.589
 30
0.0
 11
0.119889
 21
128.746
 31
0.0
  0
LINE
  8
0
 62
     0
 10
0.119889
 20
128.746
 30
0.0
 11
0.150206
 21
128.899
 31
0.0
  0
LINE
  8
0
 62
     0
 10
0.150206
 20
128.899
 30
0.0
 11
0.192925
 21
129.052
 31
0.0
  0
LINE
  8
0
 62
     0
 10
0.192925
 20
129.052
 30
0.0
 11
0.248047
 21
129.198
 31
0.0
  0
LINE
  8
0
 62
     0
 10
0.248047
 20
129.198
 30
0.0
 11
0.312815
 21
129.34
 31
0.0
  0
LINE
  8
0
 62
     0
 10
0.312815
 20
129.34
 30
0.0
 11
0.389985
 21
129.478
 31
0.0
  0
LINE
  8
0
 62
     0
 10
0.389985
 20
129.478
 30
0.0
 11
0.4768
 21
129.609
 31
0.0
  0
LINE
  8
0
 62
     0
 10
0.4768
 20
129.609
 30
0.0
 11
0.574643
 21
129.731
 31
0.0
  0
LINE
  8
0
 62
     0
 10
0.574643
 20
129.731
 30
0.0
 11
0.680752
 21
129.847
 31
0.0
  0
LINE
  8
0
 62
     0
 10
0.680752
 20
129.847
 30
0.0
 11
0.796505
 21
129.953
 31
0.0
  0
LINE
  8
0
 62
     0
 10
0.796505
 20
129.953
 30
0.0
 11
0.919152
 21
130.051
 31
0.0
  0
LINE
  8
0
 62
     0
 10
0.919152
 20
130.051
 30
0.0
 11
1.05006
 21
130.138
 31
0.0
  0
LINE
  8
0
 62
     0
 10
1.05006
 20
130.138
 30
0.0
 11
1.18787
 21
130.215
 31
0.0
  0
LINE
  8
0
 62
     0
 10
1.18787
 20
130.215
 30
0.0
 11
1.32981
 21
130.28
 31
0.0
  0
LINE
  8
0
 62
     0
 10
1.32981
 20
130.28
 30
0.0
 11
1.47588
 21
130.335
 31
0.0
  0
LINE
  8
0
 62
     0
 10
1.47588
 20
130.335
 30
0.0
 11
1.62884
 21
130.377
 31
0.0
  0
LINE
  8
0
 62
     0
 10
1.62884
 20
130.377
 30
0.0
 11
1.7818
 21
130.408
 31
0.0
  0
LINE
  8
0
 62
     0
 10
1.7818
 20
130.408
 30
0.0
 11
1.9389
 21
130.426
 31
0.0
  0
LINE
  8
0
 62
     0
 10
1.9389
 20
130.426
 30
0.0
 11
2.096
 21
130.433
 31
0.0
  0
LINE
  8
0
 62
     0
 10
2.096
 20
130.433
 30
0.0
 11
334.097
 21
130.433
 31
0.0
  0
LINE
  8
0
 62
     0
 10
333.05
 20
4.19749
 30
0.0
 11
332.624
 21
3.97979
 31
0.0
  0
LINE
  8
0
 62
     0
 10
332.624
 20
3.97979
 30
0.0
 11
332.288
 21
3.64352
 31
0.0
  0
LINE
  8
0
 62
     0
 10
332.288
 20
3.64352
 30
0.0
 11
332.07
 21
3.21772
 31
0.0
  0
LINE
  8
0
 62
     0
 10
332.07
 20
3.21772
 30
0.0
 11
331.997
 21
2.74643
 31
0.0
  0
LINE
  8
0
 62
     0
 10
331.997
 20
2.74643
 30
0.0
 11
332.07
 21
2.27514
 31
0.0
  0
LINE
  8
0
 62
     0
 10
332.07
 20
2.27514
 30
0.0
 11
332.288
 21
1.8507
 31
0.0
  0
LINE
  8
0
 62
     0
 10
332.288
 20
1.8507
 30
0.0
 11
332.624
 21
1.51309
 31
0.0
  0
LINE
  8
0
 62
     0
 10
332.624
 20
1.51309
 30
0.0
 11
333.05
 21
1.29673
 31
0.0
  0
LINE
  8
0
 62
     0
 10
333.05
 20
1.29673
 30
0.0
 11
333.521
 21
1.22094
 31
0.0
  0
LINE
  8
0
 62
     0
 10
333.521
 20
1.22094
 30
0.0
 11
333.992
 21
1.29673
 31
0.0
  0
LINE
  8
0
 62
     0
 10
333.992
 20
1.29673
 30
0.0
 11
334.418
 21
1.51309
 31
0.0
  0
LINE
  8
0
 62
     0
 10
334.418
 20
1.51309
 30
0.0
 11
334.754
 21
1.8507
 31
0.0
  0
LINE
  8
0
 62
     0
 10
334.754
 20
1.8507
 30
0.0
 11
334.972
 21
2.27514
 31
0.0
  0
LINE
  8
0
 62
     0
 10
334.972
 20
2.27514
 30
0.0
 11
335.046
 21
2.74643
 31
0.0
  0
LINE
  8
0
 62
     0
 10
335.046
 20
2.74643
 30
0.0
 11
334.972
 21
3.21772
 31
0.0
  0
LINE
  8
0
 62
     0
 10
334.972
 20
3.21772
 30
0.0
 11
334.754
 21
3.64352
 31
0.0
  0
LINE
  8
0
 62
     0
 10
334.754
 20
3.64352
 30
0.0
 11
334.418
 21
3.97979
 31
0.0
  0
LINE
  8
0
 62
     0
 10
334.418
 20
3.97979
 30
0.0
 11
333.992
 21
4.19749
 31
0.0
  0
LINE
  8
0
 62
     0
 10
333.992
 20
4.19749
 30
0.0
 11
333.521
 21
4.27193
 31
0.0
  0
LINE
  8
0
 62
     0
 10
333.521
 20
4.27193
 30
0.0
 11
333.05
 21
4.19749
 31
0.0
  0
LINE
  8
0
 62
     0
 10
250.337
 20
4.19749
 30
0.0
 11
249.911
 21
3.97979
 31
0.0
  0
LINE
  8
0
 62
     0
 10
249.911
 20
3.97979
 30
0.0
 11
249.575
 21
3.64352
 31
0.0
  0
LINE
  8
0
 62
     0
 10
249.575
 20
3.64352
 30
0.0
 11
249.357
 21
3.21772
 31
0.0
  0
LINE
  8
0
 62
     0
 10
249.357
 20
3.21772
 30
0.0
 11
249.283
 21
2.74643
 31
0.0
  0
LINE
  8
0
 62
     0
 10
249.283
 20
2.74643
 30
0.0
 11
249.357
 21
2.27514
 31
0.0
  0
LINE
  8
0
 62
     0
 10
249.357
 20
2.27514
 30
0.0
 11
249.575
 21
1.8507
 31
0.0
  0
LINE
  8
0
 62
     0
 10
249.575
 20
1.8507
 30
0.0
 11
249.911
 21
1.51309
 31
0.0
  0
LINE
  8
0
 62
     0
 10
249.911
 20
1.51309
 30
0.0
 11
250.337
 21
1.29673
 31
0.0
  0
LINE
  8
0
 62
     0
 10
250.337
 20
1.29673
 30
0.0
 11
250.808
 21
1.22094
 31
0.0
  0
LINE
  8
0
 62
     0
 10
250.808
 20
1.22094
 30
0.0
 11
251.28
 21
1.29673
 31
0.0
  0
LINE
  8
0
 62
     0
 10
251.28
 20
1.29673
 30
0.0
 11
251.703
 21
1.51309
 31
0.0
  0
LINE
  8
0
 62
     0
 10
251.703
 20
1.51309
 30
0.0
 11
252.042
 21
1.8507
 31
0.0
  0
LINE
  8
0
 62
     0
 10
252.042
 20
1.8507
 30
0.0
 11
252.258
 21
2.27514
 31
0.0
  0
LINE
  8
0
 62
     0
 10
252.258
 20
2.27514
 30
0.0
 11
252.334
 21
2.74643
 31
0.0
  0
LINE
  8
0
 62
     0
 10
252.334
 20
2.74643
 30
0.0
 11
252.258
 21
3.21772
 31
0.0
  0
LINE
  8
0
 62
     0
 10
252.258
 20
3.21772
 30
0.0
 11
252.042
 21
3.64352
 31
0.0
  0
LINE
  8
0
 62
     0
 10
252.042
 20
3.64352
 30
0.0
 11
251.703
 21
3.97979
 31
0.0
  0
LINE
  8
0
 62
     0
 10
251.703
 20
3.97979
 30
0.0
 11
251.28
 21
4.19749
 31
0.0
  0
LINE
  8
0
 62
     0
 10
251.28
 20
4.19749
 30
0.0
 11
250.808
 21
4.27193
 31
0.0
  0
LINE
  8
0
 62
     0
 10
250.808
 20
4.27193
 30
0.0
 11
250.337
 21
4.19749
 31
0.0
  0
LINE
  8
0
 62
     0
 10
167.624
 20
4.19749
 30
0.0
 11
167.2
 21
3.97979
 31
0.0
  0
LINE
  8
0
 62
     0
 10
167.2
 20
3.97979
 30
0.0
 11
166.861
 21
3.64352
 31
0.0
  0
LINE
  8
0
 62
     0
 10
166.861
 20
3.64352
 30
0.0
 11
166.646
 21
3.21772
 31
0.0
  0
LINE
  8
0
 62
     0
 10
166.646
 20
3.21772
 30
0.0
 11
166.57
 21
2.74643
 31
0.0
  0
LINE
  8
0
 62
     0
 10
166.57
 20
2.74643
 30
0.0
 11
166.646
 21
2.27514
 31
0.0
  0
LINE
  8
0
 62
     0
 10
166.646
 20
2.27514
 30
0.0
 11
166.861
 21
1.8507
 31
0.0
  0
LINE
  8
0
 62
     0
 10
166.861
 20
1.8507
 30
0.0
 11
167.2
 21
1.51309
 31
0.0
  0
LINE
  8
0
 62
     0
 10
167.2
 20
1.51309
 30
0.0
 11
167.624
 21
1.29673
 31
0.0
  0
LINE
  8
0
 62
     0
 10
167.624
 20
1.29673
 30
0.0
 11
168.096
 21
1.22094
 31
0.0
  0
LINE
  8
0
 62
     0
 10
168.096
 20
1.22094
 30
0.0
 11
168.567
 21
1.29673
 31
0.0
  0
LINE
  8
0
 62
     0
 10
168.567
 20
1.29673
 30
0.0
 11
168.991
 21
1.51309
 31
0.0
  0
LINE
  8
0
 62
     0
 10
168.991
 20
1.51309
 30
0.0
 11
169.329
 21
1.8507
 31
0.0
  0
LINE
  8
0
 62
     0
 10
169.329
 20
1.8507
 30
0.0
 11
169.546
 21
2.27514
 31
0.0
  0
LINE
  8
0
 62
     0
 10
169.546
 20
2.27514
 30
0.0
 11
169.62
 21
2.74643
 31
0.0
  0
LINE
  8
0
 62
     0
 10
169.62
 20
2.74643
 30
0.0
 11
169.546
 21
3.21772
 31
0.0
  0
LINE
  8
0
 62
     0
 10
169.546
 20
3.21772
 30
0.0
 11
169.329
 21
3.64352
 31
0.0
  0
LINE
  8
0
 62
     0
 10
169.329
 20
3.64352
 30
0.0
 11
168.991
 21
3.97979
 31
0.0
  0
LINE
  8
0
 62
     0
 10
168.991
 20
3.97979
 30
0.0
 11
168.567
 21
4.19749
 31
0.0
  0
LINE
  8
0
 62
     0
 10
168.567
 20
4.19749
 30
0.0
 11
168.096
 21
4.27193
 31
0.0
  0
LINE
  8
0
 62
     0
 10
168.096
 20
4.27193
 30
0.0
 11
167.624
 21
4.19749
 31
0.0
  0
LINE
  8
0
 62
     0
 10
84.9119
 20
4.19749
 30
0.0
 11
84.486
 21
3.97979
 31
0.0
  0
LINE
  8
0
 62
     0
 10
84.486
 20
3.97979
 30
0.0
 11
84.1484
 21
3.64352
 31
0.0
  0
LINE
  8
0
 62
     0
 10
84.1484
 20
3.64352
 30
0.0
 11
83.9322
 21
3.21772
 31
0.0
  0
LINE
  8
0
 62
     0
 10
83.9322
 20
3.21772
 30
0.0
 11
83.8577
 21
2.74643
 31
0.0
  0
LINE
  8
0
 62
     0
 10
83.8577
 20
2.74643
 30
0.0
 11
83.9322
 21
2.27514
 31
0.0
  0
LINE
  8
0
 62
     0
 10
83.9322
 20
2.27514
 30
0.0
 11
84.1484
 21
1.8507
 31
0.0
  0
LINE
  8
0
 62
     0
 10
84.1484
 20
1.8507
 30
0.0
 11
84.486
 21
1.51309
 31
0.0
  0
LINE
  8
0
 62
     0
 10
84.486
 20
1.51309
 30
0.0
 11
84.9119
 21
1.29673
 31
0.0
  0
LINE
  8
0
 62
     0
 10
84.9119
 20
1.29673
 30
0.0
 11
85.3817
 21
1.22094
 31
0.0
  0
LINE
  8
0
 62
     0
 10
85.3817
 20
1.22094
 30
0.0
 11
85.8545
 21
1.29673
 31
0.0
  0
LINE
  8
0
 62
     0
 10
85.8545
 20
1.29673
 30
0.0
 11
86.2789
 21
1.51309
 31
0.0
  0
LINE
  8
0
 62
     0
 10
86.2789
 20
1.51309
 30
0.0
 11
86.6165
 21
1.8507
 31
0.0
  0
LINE
  8
0
 62
     0
 10
86.6165
 20
1.8507
 30
0.0
 11
86.8331
 21
2.27514
 31
0.0
  0
LINE
  8
0
 62
     0
 10
86.8331
 20
2.27514
 30
0.0
 11
86.9075
 21
2.74643
 31
0.0
  0
LINE
  8
0
 62
     0
 10
86.9075
 20
2.74643
 30
0.0
 11
86.8331
 21
3.21772
 31
0.0
  0
LINE
  8
0
 62
     0
 10
86.8331
 20
3.21772
 30
0.0
 11
86.6165
 21
3.64352
 31
0.0
  0
LINE
  8
0
 62
     0
 10
86.6165
 20
3.64352
 30
0.0
 11
86.2789
 21
3.97979
 31
0.0
  0
LINE
  8
0
 62
     0
 10
86.2789
 20
3.97979
 30
0.0
 11
85.8545
 21
4.19749
 31
0.0
  0
LINE
  8
0
 62
     0
 10
85.8545
 20
4.19749
 30
0.0
 11
85.3817
 21
4.27193
 31
0.0
  0
LINE
  8
0
 62
     0
 10
85.3817
 20
4.27193
 30
0.0
 11
84.9119
 21
4.19749
 31
0.0
  0
LINE
  8
0
 62
     0
 10
2.19797
 20
4.19749
 30
0.0
 11
1.77353
 21
3.97979
 31
0.0
  0
LINE
  8
0
 62
     0
 10
1.77353
 20
3.97979
 30
0.0
 11
1.43591
 21
3.64352
 31
0.0
  0
LINE
  8
0
 62
     0
 10
1.43591
 20
3.64352
 30
0.0
 11
1.21956
 21
3.21772
 31
0.0
  0
LINE
  8
0
 62
     0
 10
1.21956
 20
3.21772
 30
0.0
 11
1.14515
 21
2.74643
 31
0.0
  0
LINE
  8
0
 62
     0
 10
1.14515
 20
2.74643
 30
0.0
 11
1.21956
 21
2.27514
 31
0.0
  0
LINE
  8
0
 62
     0
 10
1.21956
 20
2.27514
 30
0.0
 11
1.43591
 21
1.8507
 31
0.0
  0
LINE
  8
0
 62
     0
 10
1.43591
 20
1.8507
 30
0.0
 11
1.77353
 21
1.51309
 31
0.0
  0
LINE
  8
0
 62
     0
 10
1.77353
 20
1.51309
 30
0.0
 11
2.19797
 21
1.29673
 31
0.0
  0
LINE
  8
0
 62
     0
 10
2.19797
 20
1.29673
 30
0.0
 11
2.67064
 21
1.22094
 31
0.0
  0
LINE
  8
0
 62
     0
 10
2.67064
 20
1.22094
 30
0.0
 11
3.14055
 21
1.29673
 31
0.0
  0
LINE
  8
0
 62
     0
 10
3.14055
 20
1.29673
 30
0.0
 11
3.56637
 21
1.51309
 31
0.0
  0
LINE
  8
0
 62
     0
 10
3.56637
 20
1.51309
 30
0.0
 11
3.90398
 21
1.8507
 31
0.0
  0
LINE
  8
0
 62
     0
 10
3.90398
 20
1.8507
 30
0.0
 11
4.12034
 21
2.27514
 31
0.0
  0
LINE
  8
0
 62
     0
 10
4.12034
 20
2.27514
 30
0.0
 11
4.19612
 21
2.74643
 31
0.0
  0
LINE
  8
0
 62
     0
 10
4.19612
 20
2.74643
 30
0.0
 11
4.12034
 21
3.21772
 31
0.0
  0
LINE
  8
0
 62
     0
 10
4.12034
 20
3.21772
 30
0.0
 11
3.90398
 21
3.64352
 31
0.0
  0
LINE
  8
0
 62
     0
 10
3.90398
 20
3.64352
 30
0.0
 11
3.56637
 21
3.97979
 31
0.0
  0
LINE
  8
0
 62
     0
 10
3.56637
 20
3.97979
 30
0.0
 11
3.14055
 21
4.19749
 31
0.0
  0
LINE
  8
0
 62
     0
 10
3.14055
 20
4.19749
 30
0.0
 11
2.67064
 21
4.27193
 31
0.0
  0
LINE
  8
0
 62
     0
 10
2.67064
 20
4.27193
 30
0.0
 11
2.19797
 21
4.19749
 31
0.0
  0
LINE
  8
0
 62
     0
 10
139.519
 20
44.348
 30
0.0
 11
139.519
 21
25.298
 31
0.0
  0
LINE
  8
0
 62
     0
 10
139.519
 20
25.298
 30
0.0
 11
139.518
 21
25.298
 31
0.0
  0
LINE
  8
0
 62
     0
 10
139.518
 20
25.298
 30
0.0
 11
139.518
 21
6.24664
 31
0.0
  0
LINE
  8
0
 62
     0
 10
139.518
 20
6.24664
 30
0.0
 11
196.671
 21
6.24664
 31
0.0
  0
LINE
  8
0
 62
     0
 10
196.671
 20
6.24664
 30
0.0
 11
196.671
 21
44.348
 31
0.0
  0
LINE
  8
0
 62
     0
 10
196.671
 20
44.348
 30
0.0
 11
139.519
 21
44.348
 31
0.0
  0
LINE
  8
0
 62
     0
 10
44.2694
 20
124.358
 30
0.0
 11
44.2694
 21
111.023
 31
0.0
  0
LINE
  8
0
 62
     0
 10
44.2694
 20
111.023
 30
0.0
 11
6.16948
 21
111.023
 31
0.0
  0
LINE
  8
0
 62
     0
 10
6.16948
 20
111.023
 30
0.0
 11
6.16948
 21
15.7716
 31
0.0
  0
LINE
  8
0
 62
     0
 10
6.16948
 20
15.7716
 30
0.0
 11
44.2708
 21
15.7716
 31
0.0
  0
LINE
  8
0
 62
     0
 10
44.2708
 20
15.7716
 30
0.0
 11
44.2708
 21
29.1069
 31
0.0
  0
LINE
  8
0
 62
     0
 10
44.2708
 20
29.1069
 30
0.0
 11
101.419
 21
29.1069
 31
0.0
  0
LINE
  8
0
 62
     0
 10
101.419
 20
29.1069
 30
0.0
 11
101.419
 21
25.2966
 31
0.0
  0
LINE
  8
0
 62
     0
 10
101.419
 20
25.2966
 30
0.0
 11
129.996
 21
25.2966
 31
0.0
  0
LINE
  8
0
 62
     0
 10
129.996
 20
25.2966
 30
0.0
 11
129.996
 21
44.348
 31
0.0
  0
LINE
  8
0
 62
     0
 10
129.996
 20
44.348
 30
0.0
 11
120.471
 21
44.348
 31
0.0
  0
LINE
  8
0
 62
     0
 10
120.471
 20
44.348
 30
0.0
 11
120.471
 21
120.548
 31
0.0
  0
LINE
  8
0
 62
     0
 10
120.471
 20
120.548
 30
0.0
 11
101.421
 21
120.548
 31
0.0
  0
LINE
  8
0
 62
     0
 10
101.421
 20
120.548
 30
0.0
 11
101.421
 21
124.358
 31
0.0
  0
LINE
  8
0
 62
     0
 10
101.421
 20
124.358
 30
0.0
 11
44.2694
 21
124.358
 31
0.0
  0
LINE
  8
0
 62
     0
 10
234.768
 20
124.358
 30
0.0
 11
234.768
 21
120.548
 31
0.0
  0
LINE
  8
0
 62
     0
 10
234.768
 20
120.548
 30
0.0
 11
215.719
 21
120.548
 31
0.0
  0
LINE
  8
0
 62
     0
 10
215.719
 20
120.548
 30
0.0
 11
215.719
 21
44.348
 31
0.0
  0
LINE
  8
0
 62
     0
 10
215.719
 20
44.348
 30
0.0
 11
206.194
 21
44.348
 31
0.0
  0
LINE
  8
0
 62
     0
 10
206.194
 20
44.348
 30
0.0
 11
206.194
 21
25.2966
 31
0.0
  0
LINE
  8
0
 62
     0
 10
206.194
 20
25.2966
 30
0.0
 11
234.771
 21
25.2966
 31
0.0
  0
LINE
  8
0
 62
     0
 10
234.771
 20
25.2966
 30
0.0
 11
234.771
 21
29.1069
 31
0.0
  0
LINE
  8
0
 62
     0
 10
234.771
 20
29.1069
 30
0.0
 11
291.919
 21
29.1069
 31
0.0
  0
LINE
  8
0
 62
     0
 10
291.919
 20
29.1069
 30
0.0
 11
291.919
 21
15.7716
 31
0.0
  0
LINE
  8
0
 62
     0
 10
291.919
 20
15.7716
 30
0.0
 11
330.021
 21
15.7716
 31
0.0
  0
LINE
  8
0
 62
     0
 10
330.021
 20
15.7716
 30
0.0
 11
330.021
 21
111.023
 31
0.0
  0
LINE
  8
0
 62
     0
 10
330.021
 20
111.023
 30
0.0
 11
291.921
 21
111.023
 31
0.0
  0
LINE
  8
0
 62
     0
 10
291.921
 20
111.023
 30
0.0
 11
291.921
 21
124.358
 31
0.0
  0
LINE
  8
0
 62
     0
 10
291.921
 20
124.358
 30
0.0
 11
234.768
 21
124.358
 31
0.0
  0
LINE
  8
0
 62
     0
 10
333.05
 20
66.7523
 30
0.0
 11
332.624
 21
66.5357
 31
0.0
  0
LINE
  8
0
 62
     0
 10
332.624
 20
66.5357
 30
0.0
 11
332.288
 21
66.198
 31
0.0
  0
LINE
  8
0
 62
     0
 10
332.288
 20
66.198
 30
0.0
 11
332.07
 21
65.7737
 31
0.0
  0
LINE
  8
0
 62
     0
 10
332.07
 20
65.7737
 30
0.0
 11
331.997
 21
65.3023
 31
0.0
  0
LINE
  8
0
 62
     0
 10
331.997
 20
65.3023
 30
0.0
 11
332.07
 21
64.831
 31
0.0
  0
LINE
  8
0
 62
     0
 10
332.07
 20
64.831
 30
0.0
 11
332.288
 21
64.4066
 31
0.0
  0
LINE
  8
0
 62
     0
 10
332.288
 20
64.4066
 30
0.0
 11
332.624
 21
64.0676
 31
0.0
  0
LINE
  8
0
 62
     0
 10
332.624
 20
64.0676
 30
0.0
 11
333.05
 21
63.8528
 31
0.0
  0
LINE
  8
0
 62
     0
 10
333.05
 20
63.8528
 30
0.0
 11
333.521
 21
63.7769
 31
0.0
  0
LINE
  8
0
 62
     0
 10
333.521
 20
63.7769
 30
0.0
 11
333.992
 21
63.8528
 31
0.0
  0
LINE
  8
0
 62
     0
 10
333.992
 20
63.8528
 30
0.0
 11
334.418
 21
64.0676
 31
0.0
  0
LINE
  8
0
 62
     0
 10
334.418
 20
64.0676
 30
0.0
 11
334.754
 21
64.4066
 31
0.0
  0
LINE
  8
0
 62
     0
 10
334.754
 20
64.4066
 30
0.0
 11
334.972
 21
64.831
 31
0.0
  0
LINE
  8
0
 62
     0
 10
334.972
 20
64.831
 30
0.0
 11
335.046
 21
65.3023
 31
0.0
  0
LINE
  8
0
 62
     0
 10
335.046
 20
65.3023
 30
0.0
 11
334.972
 21
65.7737
 31
0.0
  0
LINE
  8
0
 62
     0
 10
334.972
 20
65.7737
 30
0.0
 11
334.754
 21
66.198
 31
0.0
  0
LINE
  8
0
 62
     0
 10
334.754
 20
66.198
 30
0.0
 11
334.418
 21
66.5357
 31
0.0
  0
LINE
  8
0
 62
     0
 10
334.418
 20
66.5357
 30
0.0
 11
333.992
 21
66.7523
 31
0.0
  0
LINE
  8
0
 62
     0
 10
333.992
 20
66.7523
 30
0.0
 11
333.521
 21
66.8281
 31
0.0
  0
LINE
  8
0
 62
     0
 10
333.521
 20
66.8281
 30
0.0
 11
333.05
 21
66.7523
 31
0.0
  0
LINE
  8
0
 62
     0
 10
2.19797
 20
66.7523
 30
0.0
 11
1.77353
 21
66.5357
 31
0.0
  0
LINE
  8
0
 62
     0
 10
1.77353
 20
66.5357
 30
0.0
 11
1.43591
 21
66.198
 31
0.0
  0
LINE
  8
0
 62
     0
 10
1.43591
 20
66.198
 30
0.0
 11
1.21956
 21
65.7737
 31
0.0
  0
LINE
  8
0
 62
     0
 10
1.21956
 20
65.7737
 30
0.0
 11
1.14515
 21
65.3023
 31
0.0
  0
LINE
  8
0
 62
     0
 10
1.14515
 20
65.3023
 30
0.0
 11
1.21956
 21
64.831
 31
0.0
  0
LINE
  8
0
 62
     0
 10
1.21956
 20
64.831
 30
0.0
 11
1.43591
 21
64.4066
 31
0.0
  0
LINE
  8
0
 62
     0
 10
1.43591
 20
64.4066
 30
0.0
 11
1.77353
 21
64.0676
 31
0.0
  0
LINE
  8
0
 62
     0
 10
1.77353
 20
64.0676
 30
0.0
 11
2.19797
 21
63.8528
 31
0.0
  0
LINE
  8
0
 62
     0
 10
2.19797
 20
63.8528
 30
0.0
 11
2.67064
 21
63.7769
 31
0.0
  0
LINE
  8
0
 62
     0
 10
2.67064
 20
63.7769
 30
0.0
 11
3.14055
 21
63.8528
 31
0.0
  0
LINE
  8
0
 62
     0
 10
3.14055
 20
63.8528
 30
0.0
 11
3.56637
 21
64.0676
 31
0.0
  0
LINE
  8
0
 62
     0
 10
3.56637
 20
64.0676
 30
0.0
 11
3.90398
 21
64.4066
 31
0.0
  0
LINE
  8
0
 62
     0
 10
3.90398
 20
64.4066
 30
0.0
 11
4.12034
 21
64.831
 31
0.0
  0
LINE
  8
0
 62
     0
 10
4.12034
 20
64.831
 30
0.0
 11
4.19612
 21
65.3023
 31
0.0
  0
LINE
  8
0
 62
     0
 10
4.19612
 20
65.3023
 30
0.0
 11
4.12034
 21
65.7737
 31
0.0
  0
LINE
  8
0
 62
     0
 10
4.12034
 20
65.7737
 30
0.0
 11
3.90398
 21
66.198
 31
0.0
  0
LINE
  8
0
 62
     0
 10
3.90398
 20
66.198
 30
0.0
 11
3.56637
 21
66.5357
 31
0.0
  0
LINE
  8
0
 62
     0
 10
3.56637
 20
66.5357
 30
0.0
 11
3.14055
 21
66.7523
 31
0.0
  0
LINE
  8
0
 62
     0
 10
3.14055
 20
66.7523
 30
0.0
 11
2.67064
 21
66.8281
 31
0.0
  0
LINE
  8
0
 62
     0
 10
2.67064
 20
66.8281
 30
0.0
 11
2.19797
 21
66.7523
 31
0.0
  0
LINE
  8
0
 62
     0
 10
84.9119
 20
129.308
 30
0.0
 11
84.486
 21
129.092
 31
0.0
  0
LINE
  8
0
 62
     0
 10
84.486
 20
129.092
 30
0.0
 11
84.1484
 21
128.754
 31
0.0
  0
LINE
  8
0
 62
     0
 10
84.1484
 20
128.754
 30
0.0
 11
83.9322
 21
128.33
 31
0.0
  0
LINE
  8
0
 62
     0
 10
83.9322
 20
128.33
 30
0.0
 11
83.8577
 21
127.857
 31
0.0
  0
LINE
  8
0
 62
     0
 10
83.8577
 20
127.857
 30
0.0
 11
83.9322
 21
127.387
 31
0.0
  0
LINE
  8
0
 62
     0
 10
83.9322
 20
127.387
 30
0.0
 11
84.1484
 21
126.962
 31
0.0
  0
LINE
  8
0
 62
     0
 10
84.1484
 20
126.962
 30
0.0
 11
84.486
 21
126.624
 31
0.0
  0
LINE
  8
0
 62
     0
 10
84.486
 20
126.624
 30
0.0
 11
84.9119
 21
126.407
 31
0.0
  0
LINE
  8
0
 62
     0
 10
84.9119
 20
126.407
 30
0.0
 11
85.3817
 21
126.331
 31
0.0
  0
LINE
  8
0
 62
     0
 10
85.3817
 20
126.331
 30
0.0
 11
85.8545
 21
126.407
 31
0.0
  0
LINE
  8
0
 62
     0
 10
85.8545
 20
126.407
 30
0.0
 11
86.2789
 21
126.624
 31
0.0
  0
LINE
  8
0
 62
     0
 10
86.2789
 20
126.624
 30
0.0
 11
86.6165
 21
126.962
 31
0.0
  0
LINE
  8
0
 62
     0
 10
86.6165
 20
126.962
 30
0.0
 11
86.8331
 21
127.387
 31
0.0
  0
LINE
  8
0
 62
     0
 10
86.8331
 20
127.387
 30
0.0
 11
86.9075
 21
127.857
 31
0.0
  0
LINE
  8
0
 62
     0
 10
86.9075
 20
127.857
 30
0.0
 11
86.8331
 21
128.33
 31
0.0
  0
LINE
  8
0
 62
     0
 10
86.8331
 20
128.33
 30
0.0
 11
86.6165
 21
128.754
 31
0.0
  0
LINE
  8
0
 62
     0
 10
86.6165
 20
128.754
 30
0.0
 11
86.2789
 21
129.092
 31
0.0
  0
LINE
  8
0
 62
     0
 10
86.2789
 20
129.092
 30
0.0
 11
85.8545
 21
129.308
 31
0.0
  0
LINE
  8
0
 62
     0
 10
85.8545
 20
129.308
 30
0.0
 11
85.3817
 21
129.383
 31
0.0
  0
LINE
  8
0
 62
     0
 10
85.3817
 20
129.383
 30
0.0
 11
84.9119
 21
129.308
 31
0.0
  0
LINE
  8
0
 62
     0
 10
167.624
 20
129.308
 30
0.0
 11
167.2
 21
129.092
 31
0.0
  0
LINE
  8
0
 62
     0
 10
167.2
 20
129.092
 30
0.0
 11
166.861
 21
128.754
 31
0.0
  0
LINE
  8
0
 62
     0
 10
166.861
 20
128.754
 30
0.0
 11
166.646
 21
128.33
 31
0.0
  0
LINE
  8
0
 62
     0
 10
166.646
 20
128.33
 30
0.0
 11
166.57
 21
127.857
 31
0.0
  0
LINE
  8
0
 62
     0
 10
166.57
 20
127.857
 30
0.0
 11
166.646
 21
127.387
 31
0.0
  0
LINE
  8
0
 62
     0
 10
166.646
 20
127.387
 30
0.0
 11
166.861
 21
126.962
 31
0.0
  0
LINE
  8
0
 62
     0
 10
166.861
 20
126.962
 30
0.0
 11
167.2
 21
126.624
 31
0.0
  0
LINE
  8
0
 62
     0
 10
167.2
 20
126.624
 30
0.0
 11
167.624
 21
126.407
 31
0.0
  0
LINE
  8
0
 62
     0
 10
167.624
 20
126.407
 30
0.0
 11
168.096
 21
126.331
 31
0.0
  0
LINE
  8
0
 62
     0
 10
168.096
 20
126.331
 30
0.0
 11
168.567
 21
126.407
 31
0.0
  0
LINE
  8
0
 62
     0
 10
168.567
 20
126.407
 30
0.0
 11
168.991
 21
126.624
 31
0.0
  0
LINE
  8
0
 62
     0
 10
168.991
 20
126.624
 30
0.0
 11
169.329
 21
126.962
 31
0.0
  0
LINE
  8
0
 62
     0
 10
169.329
 20
126.962
 30
0.0
 11
169.546
 21
127.387
 31
0.0
  0
LINE
  8
0
 62
     0
 10
169.546
 20
127.387
 30
0.0
 11
169.62
 21
127.857
 31
0.0
  0
LINE
  8
0
 62
     0
 10
169.62
 20
127.857
 30
0.0
 11
169.546
 21
128.33
 31
0.0
  0
LINE
  8
0
 62
     0
 10
169.546
 20
128.33
 30
0.0
 11
169.329
 21
128.754
 31
0.0
  0
LINE
  8
0
 62
     0
 10
169.329
 20
128.754
 30
0.0
 11
168.991
 21
129.092
 31
0.0
  0
LINE
  8
0
 62
     0
 10
168.991
 20
129.092
 30
0.0
 11
168.567
 21
129.308
 31
0.0
  0
LINE
  8
0
 62
     0
 10
168.567
 20
129.308
 30
0.0
 11
168.096
 21
129.383
 31
0.0
  0
LINE
  8
0
 62
     0
 10
168.096
 20
129.383
 30
0.0
 11
167.624
 21
129.308
 31
0.0
  0
LINE
  8
0
 62
     0
 10
250.337
 20
129.308
 30
0.0
 11
249.911
 21
129.092
 31
0.0
  0
LINE
  8
0
 62
     0
 10
249.911
 20
129.092
 30
0.0
 11
249.575
 21
128.754
 31
0.0
  0
LINE
  8
0
 62
     0
 10
249.575
 20
128.754
 30
0.0
 11
249.357
 21
128.33
 31
0.0
  0
LINE
  8
0
 62
     0
 10
249.357
 20
128.33
 30
0.0
 11
249.283
 21
127.857
 31
0.0
  0
LINE
  8
0
 62
     0
 10
249.283
 20
127.857
 30
0.0
 11
249.357
 21
127.387
 31
0.0
  0
LINE
  8
0
 62
     0
 10
249.357
 20
127.387
 30
0.0
 11
249.575
 21
126.962
 31
0.0
  0
LINE
  8
0
 62
     0
 10
249.575
 20
126.962
 30
0.0
 11
249.911
 21
126.624
 31
0.0
  0
LINE
  8
0
 62
     0
 10
249.911
 20
126.624
 30
0.0
 11
250.337
 21
126.407
 31
0.0
  0
LINE
  8
0
 62
     0
 10
250.337
 20
126.407
 30
0.0
 11
250.808
 21
126.331
 31
0.0
  0
LINE
  8
0
 62
     0
 10
250.808
 20
126.331
 30
0.0
 11
251.28
 21
126.407
 31
0.0
  0
LINE
  8
0
 62
     0
 10
251.28
 20
126.407
 30
0.0
 11
251.703
 21
126.624
 31
0.0
  0
LINE
  8
0
 62
     0
 10
251.703
 20
126.624
 30
0.0
 11
252.042
 21
126.962
 31
0.0
  0
LINE
  8
0
 62
     0
 10
252.042
 20
126.962
 30
0.0
 11
252.258
 21
127.387
 31
0.0
  0
LINE
  8
0
 62
     0
 10
252.258
 20
127.387
 30
0.0
 11
252.334
 21
127.857
 31
0.0
  0
LINE
  8
0
 62
     0
 10
252.334
 20
127.857
 30
0.0
 11
252.258
 21
128.33
 31
0.0
  0
LINE
  8
0
 62
     0
 10
252.258
 20
128.33
 30
0.0
 11
252.042
 21
128.754
 31
0.0
  0
LINE
  8
0
 62
     0
 10
252.042
 20
128.754
 30
0.0
 11
251.703
 21
129.092
 31
0.0
  0
LINE
  8
0
 62
     0
 10
251.703
 20
129.092
 30
0.0
 11
251.28
 21
129.308
 31
0.0
  0
LINE
  8
0
 62
     0
 10
251.28
 20
129.308
 30
0.0
 11
250.808
 21
129.383
 31
0.0
  0
LINE
  8
0
 62
     0
 10
250.808
 20
129.383
 30
0.0
 11
250.337
 21
129.308
 31
0.0
  0
LINE
  8
0
 62
     0
 10
333.05
 20
129.308
 30
0.0
 11
332.624
 21
129.092
 31
0.0
  0
LINE
  8
0
 62
     0
 10
332.624
 20
129.092
 30
0.0
 11
332.288
 21
128.754
 31
0.0
  0
LINE
  8
0
 62
     0
 10
332.288
 20
128.754
 30
0.0
 11
332.07
 21
128.33
 31
0.0
  0
LINE
  8
0
 62
     0
 10
332.07
 20
128.33
 30
0.0
 11
331.997
 21
127.857
 31
0.0
  0
LINE
  8
0
 62
     0
 10
331.997
 20
127.857
 30
0.0
 11
332.07
 21
127.387
 31
0.0
  0
LINE
  8
0
 62
     0
 10
332.07
 20
127.387
 30
0.0
 11
332.288
 21
126.962
 31
0.0
  0
LINE
  8
0
 62
     0
 10
332.288
 20
126.962
 30
0.0
 11
332.624
 21
126.624
 31
0.0
  0
LINE
  8
0
 62
     0
 10
332.624
 20
126.624
 30
0.0
 11
333.05
 21
126.407
 31
0.0
  0
LINE
  8
0
 62
     0
 10
333.05
 20
126.407
 30
0.0
 11
333.521
 21
126.331
 31
0.0
  0
LINE
  8
0
 62
     0
 10
333.521
 20
126.331
 30
0.0
 11
333.992
 21
126.407
 31
0.0
  0
LINE
  8
0
 62
     0
 10
333.992
 20
126.407
 30
0.0
 11
334.418
 21
126.624
 31
0.0
  0
LINE
  8
0
 62
     0
 10
334.418
 20
126.624
 30
0.0
 11
334.754
 21
126.962
 31
0.0
  0
LINE
  8
0
 62
     0
 10
334.754
 20
126.962
 30
0.0
 11
334.972
 21
127.387
 31
0.0
  0
LINE
  8
0
 62
     0
 10
334.972
 20
127.387
 30
0.0
 11
335.046
 21
127.857
 31
0.0
  0
LINE
  8
0
 62
     0
 10
335.046
 20
127.857
 30
0.0
 11
334.972
 21
128.33
 31
0.0
  0
LINE
  8
0
 62
     0
 10
334.972
 20
128.33
 30
0.0
 11
334.754
 21
128.754
 31
0.0
  0
LINE
  8
0
 62
     0
 10
334.754
 20
128.754
 30
0.0
 11
334.418
 21
129.092
 31
0.0
  0
LINE
  8
0
 62
     0
 10
334.418
 20
129.092
 30
0.0
 11
333.992
 21
129.308
 31
0.0
  0
LINE
  8
0
 62
     0
 10
333.992
 20
129.308
 30
0.0
 11
333.521
 21
129.383
 31
0.0
  0
LINE
  8
0
 62
     0
 10
333.521
 20
129.383
 30
0.0
 11
333.05
 21
129.308
 31
0.0
  0
LINE
  8
0
 62
     0
 10
2.19797
 20
129.308
 30
0.0
 11
1.77353
 21
129.092
 31
0.0
  0
LINE
  8
0
 62
     0
 10
1.77353
 20
129.092
 30
0.0
 11
1.43591
 21
128.754
 31
0.0
  0
LINE
  8
0
 62
     0
 10
1.43591
 20
128.754
 30
0.0
 11
1.21956
 21
128.33
 31
0.0
  0
LINE
  8
0
 62
     0
 10
1.21956
 20
128.33
 30
0.0
 11
1.14515
 21
127.857
 31
0.0
  0
LINE
  8
0
 62
     0
 10
1.14515
 20
127.857
 30
0.0
 11
1.21956
 21
127.387
 31
0.0
  0
LINE
  8
0
 62
     0
 10
1.21956
 20
127.387
 30
0.0
 11
1.43591
 21
126.962
 31
0.0
  0
LINE
  8
0
 62
     0
 10
1.43591
 20
126.962
 30
0.0
 11
1.77353
 21
126.624
 31
0.0
  0
LINE
  8
0
 62
     0
 10
1.77353
 20
126.624
 30
0.0
 11
2.19797
 21
126.407
 31
0.0
  0
LINE
  8
0
 62
     0
 10
2.19797
 20
126.407
 30
0.0
 11
2.67064
 21
126.331
 31
0.0
  0
LINE
  8
0
 62
     0
 10
2.67064
 20
126.331
 30
0.0
 11
3.14055
 21
126.407
 31
0.0
  0
LINE
  8
0
 62
     0
 10
3.14055
 20
126.407
 30
0.0
 11
3.56637
 21
126.624
 31
0.0
  0
LINE
  8
0
 62
     0
 10
3.56637
 20
126.624
 30
0.0
 11
3.90398
 21
126.962
 31
0.0
  0
LINE
  8
0
 62
     0
 10
3.90398
 20
126.962
 30
0.0
 11
4.12034
 21
127.387
 31
0.0
  0
LINE
  8
0
 62
     0
 10
4.12034
 20
127.387
 30
0.0
 11
4.19612
 21
127.857
 31
0.0
  0
LINE
  8
0
 62
     0
 10
4.19612
 20
127.857
 30
0.0
 11
4.12034
 21
128.33
 31
0.0
  0
LINE
  8
0
 62
     0
 10
4.12034
 20
128.33
 30
0.0
 11
3.90398
 21
128.754
 31
0.0
  0
LINE
  8
0
 62
     0
 10
3.90398
 20
128.754
 30
0.0
 11
3.56637
 21
129.092
 31
0.0
  0
LINE
  8
0
 62
     0
 10
3.56637
 20
129.092
 30
0.0
 11
3.14055
 21
129.308
 31
0.0
  0
LINE
  8
0
 62
     0
 10
3.14055
 20
129.308
 30
0.0
 11
2.67064
 21
129.383
 31
0.0
  0
LINE
  8
0
 62
     0
 10
2.67064
 20
129.383
 30
0.0
 11
2.19797
 21
129.308
 31
0.0
  0
ENDSEC
  0
EOF
